<svg width="68" height="83" viewBox="0 0 68 83" fill="none" xmlns="http://www.w3.org/2000/svg">
<path d="M4.37656 20.2836C20.5658 15.7463 31.3584 6.67164 35.6753 1C41.0718 10.0746 57.9802 18.0149 66.9742 20.2836C67.8376 55.6746 46.8278 72.8408 35.6753 77C6.31924 65.203 2.57779 34.2736 4.37656 20.2836Z" fill="#F0FFE9" stroke="#E8FEDA" stroke-width="2" stroke-linejoin="round"></path>
<path d="M1.37656 25.2836C17.5658 20.7463 28.3584 11.6716 32.6753 6C38.0718 15.0746 54.9802 23.0149 63.9742 25.2836C64.8376 60.6746 43.8278 77.8408 32.6753 82C3.31924 70.203 -0.422213 39.2736 1.37656 25.2836Z" stroke="#1A468D" stroke-width="1.75" stroke-linejoin="round"></path>
<path d="M12.251 31.9552C23.0439 28.6716 30.239 22.1045 33.1168 18C36.7145 24.5672 47.9868 30.3134 53.9828 31.9552C54.5584 57.5672 40.5518 69.99 33.1168 73C13.5462 64.4627 11.0519 42.0796 12.251 31.9552Z" stroke="#1A468D" stroke-width="1.75" stroke-linejoin="round"></path>
<circle cx="18" cy="27" r="4.125" fill="white" stroke="#1A468D" stroke-width="1.75"></circle>
<circle cx="20.5" cy="17.5" r="5.625" fill="white" stroke="#1A468D" stroke-width="1.75"></circle>
<circle cx="10" cy="14" r="3.125" fill="white" stroke="#1A468D" stroke-width="1.75"></circle>
<path d="M44.5484 72.6535C50.8444 79.3171 60.2501 70.8839 55.174 64.3715L40.0748 45.383L23.5608 45.7273L44.5484 72.6535Z" fill="#E8FEDA"></path>
<path d="M23.5608 45.7273L44.5484 72.6535C50.8444 79.3171 60.2501 70.8839 55.174 64.3715L40.0748 45.383M23.5608 45.7273L17.0306 37.3493C15.3923 38.0753 13.7137 36.6286 15.1604 34.95L25.786 26.6679C26.8143 25.8664 28.76 27.6558 27.3134 29.3344L40.0748 45.383M23.5608 45.7273L40.0748 45.383" stroke="#1A468D" stroke-width="1.75" stroke-linejoin="round"></path>
</svg>