<svg width="76" height="71" viewBox="0 0 76 71" fill="none" xmlns="http://www.w3.org/2000/svg">
<path d="M17.3712 28.3101C18.2354 9.2874 34.2958 4.53174 42.2179 4.53174C60.7989 4.53174 68.3484 17.5017 69.2252 25.608V33.1738C76.4506 31.0121 77.5309 46.1438 69.2252 45.063V46.1438C69.2252 52.6288 64.904 57.4925 62.7434 59.1138C60.9429 60.1946 55.5885 66.1392 41.3412 65.0584C27.9769 64.0445 23.5164 60.1946 20.8156 56.9521C19.8318 55.771 17.6428 51.0911 17.2941 45.063C6.77185 43.9821 11.093 31.5526 17.194 33.1738C17.2344 31.6574 17.2927 30.0382 17.3712 28.3101Z" fill="#DBE9FF"></path>
<path d="M30.4349 41.1355C30.4349 42.8683 28.8741 44.2729 26.9488 44.2729C25.0235 44.2729 23.4627 42.8683 23.4627 41.1355C23.4627 39.4027 25.0235 37.998 26.9488 37.998C28.8741 37.998 30.4349 39.4027 30.4349 41.1355Z" fill="white"></path>
<path d="M58.3233 41.1355C58.3233 42.8683 56.9186 44.2729 55.1858 44.2729C53.4531 44.2729 52.0484 42.8683 52.0484 41.1355C52.0484 39.4027 53.4531 37.998 55.1858 37.998C56.9186 37.998 58.3233 39.4027 58.3233 41.1355Z" fill="white"></path>
<path d="M28.3432 41.4842C28.3432 43.0244 27.0946 44.273 25.5543 44.273C24.0141 44.273 22.7655 43.0244 22.7655 41.4842C22.7655 39.9439 24.0141 38.6953 25.5543 38.6953C27.0946 38.6953 28.3432 39.9439 28.3432 41.4842Z" fill="#1A468D"></path>
<path d="M55.5345 41.4842C55.5345 43.0244 54.2859 44.273 52.7457 44.273C51.2054 44.273 49.9568 43.0244 49.9568 41.4842C49.9568 39.9439 51.2054 38.6953 52.7457 38.6953C54.2859 38.6953 55.5345 39.9439 55.5345 41.4842Z" fill="#1A468D"></path>
<path fill-rule="evenodd" clip-rule="evenodd" d="M50.7662 53.3716C51.132 53.8186 51.0661 54.4775 50.6191 54.8433C44.727 59.6644 37.8591 57.8213 34.6984 55.5122C34.232 55.1715 34.1302 54.5172 34.4709 54.0508C34.8116 53.5844 35.4659 53.4826 35.9323 53.8233C38.5559 55.7401 44.3411 57.2776 49.2945 53.2245C49.7415 52.8587 50.4004 52.9246 50.7662 53.3716Z" fill="white"></path>
<path fill-rule="evenodd" clip-rule="evenodd" d="M47.6287 54.0054C47.9945 54.4524 47.9286 55.1113 47.4816 55.4771C44.5327 57.89 41.2012 58.5755 38.3282 58.3119C35.5054 58.0529 32.996 56.8608 31.7239 55.3382C31.3536 54.895 31.4127 54.2354 31.856 53.8651C32.2992 53.4948 32.9588 53.5539 33.3291 53.9972C34.1487 54.9781 36.0743 56.0046 38.5193 56.229C40.9142 56.4488 43.6832 55.8825 46.1571 53.8583C46.6041 53.4925 47.263 53.5584 47.6287 54.0054Z" fill="#1A468D"></path>
<path d="M60.415 7.59362C64.7251 6.28408 66.1617 2.68283 66.3413 1.0459C66.7723 4.97453 70.6514 7.04798 72.2676 7.59362C69.0351 8.68491 66.5209 12.3225 66.3413 13.5957C65.2638 10.3218 62.3905 7.95738 60.415 7.59362Z" fill="#DBE9FF"></path>
<path fill-rule="evenodd" clip-rule="evenodd" d="M66.3412 0C66.8746 8.3114e-08 67.3226 0.401499 67.3807 0.931766C67.5591 2.55761 68.4516 3.83679 69.5504 4.80289C70.656 5.77499 71.9029 6.36667 72.602 6.60266C73.0271 6.74618 73.3133 7.14486 73.3133 7.59354C73.3133 8.04221 73.0271 8.4409 72.602 8.58441C71.2223 9.05017 69.9316 10.09 68.9463 11.2153C68.4598 11.7709 68.0681 12.3244 67.793 12.7988C67.5011 13.3023 67.3929 13.627 67.3767 13.7417C67.3088 14.223 66.9182 14.5941 66.434 14.6373C65.9498 14.6805 65.4997 14.3843 65.3478 13.9226C64.8703 12.4719 63.9872 11.2054 62.9941 10.2612C61.9838 9.30061 60.9478 8.75508 60.2255 8.62206C59.751 8.5347 59.3979 8.13416 59.3707 7.65253C59.3435 7.17089 59.6493 6.73313 60.1108 6.59289C63.9217 5.435 65.1552 2.26562 65.3016 0.931766C65.3598 0.401499 65.8077 -8.3114e-08 66.3412 0ZM62.9954 7.59587C63.4921 7.92252 63.9784 8.31089 64.4353 8.74537C65.1415 9.41673 65.8084 10.2268 66.3604 11.1486C66.6481 10.7211 66.9884 10.2762 67.3726 9.83743C68.0556 9.05748 68.9073 8.26274 69.8858 7.6187C69.3226 7.28238 68.7323 6.86877 68.1693 6.37371C67.4955 5.78134 66.8442 5.05681 66.3288 4.19414C65.6395 5.40448 64.572 6.65526 62.9954 7.59587Z" fill="#DBE9FF"></path>
<path d="M8.82143 63.3705C13.1315 62.0609 14.5681 58.4597 14.7477 56.8228C15.1787 60.7514 19.0578 62.8248 20.674 63.3705C17.4415 64.4618 14.9273 68.0994 14.7477 69.3726C13.6702 66.0987 10.7969 63.7342 8.82143 63.3705Z" fill="#DBE9FF"></path>
<path fill-rule="evenodd" clip-rule="evenodd" d="M14.7478 55.7769C15.2812 55.7769 15.7292 56.1784 15.7874 56.7086C15.9657 58.3345 16.8582 59.6136 17.957 60.5797C19.0626 61.5518 20.3095 62.1435 21.0086 62.3795C21.4337 62.523 21.7199 62.9217 21.7199 63.3704C21.7199 63.8191 21.4337 64.2178 21.0086 64.3613C19.629 64.827 18.3383 65.8668 17.3529 66.9922C16.8665 67.5477 16.4747 68.1013 16.1997 68.5756C15.9077 69.0791 15.7995 69.4038 15.7833 69.5185C15.7154 69.9999 15.3248 70.371 14.8406 70.4142C14.3564 70.4573 13.9064 70.1612 13.7544 69.6994C13.2769 68.2488 12.3938 66.9823 11.4007 66.0381C10.3904 65.0775 9.35442 64.5319 8.63209 64.3989C8.15766 64.3116 7.80454 63.911 7.77733 63.4294C7.75012 62.9477 8.05588 62.51 8.51745 62.3697C12.3284 61.2119 13.5619 58.0425 13.7082 56.7086C13.7664 56.1784 14.2143 55.7769 14.7478 55.7769ZM11.402 63.3727C11.8987 63.6994 12.385 64.0877 12.842 64.5222C13.5481 65.1936 14.215 66.0037 14.767 66.9255C15.0547 66.498 15.395 66.0531 15.7792 65.6143C16.4622 64.8343 17.3139 64.0396 18.2924 63.3956C17.7292 63.0592 17.139 62.6456 16.5759 62.1506C15.9022 61.5582 15.2508 60.8337 14.7354 59.971C14.0462 61.1813 12.9787 62.4321 11.402 63.3727Z" fill="#DBE9FF"></path>
<path d="M3.94083 51.0934C7.23673 50.1476 8.33537 47.5467 8.4727 46.3645C8.80229 49.2018 11.7686 50.6993 13.0046 51.0934C10.5326 51.8816 8.61003 54.5087 8.4727 55.4282C7.64872 53.0638 5.45145 51.3561 3.94083 51.0934Z" fill="#DBE9FF"></path>
<path fill-rule="evenodd" clip-rule="evenodd" d="M8.47275 45.3186C9.00366 45.3186 9.45032 45.7164 9.51158 46.2437C9.63492 47.3055 10.2547 48.166 11.0669 48.8405C11.883 49.5182 12.8083 49.933 13.3223 50.0969C13.756 50.2352 14.0504 50.6381 14.0504 51.0933C14.0504 51.5485 13.756 51.9514 13.3223 52.0897C12.3152 52.4108 11.3627 53.1324 10.6301 53.9225C10.2693 54.3117 9.98161 54.6965 9.78241 55.021C9.68285 55.1831 9.61102 55.321 9.56378 55.4291C9.52265 55.5232 9.50993 55.5725 9.50742 55.5822C9.50683 55.5845 9.5068 55.5846 9.5071 55.5826C9.43603 56.0585 9.04946 56.4245 8.57043 56.4694C8.0914 56.5143 7.64351 56.2267 7.48518 55.7723C7.14062 54.7836 6.49819 53.9086 5.76557 53.2507C5.01798 52.5794 4.26416 52.2111 3.76169 52.1237C3.28152 52.0402 2.92269 51.6361 2.89657 51.1494C2.87044 50.6627 3.18395 50.2225 3.65242 50.0881C6.46741 49.2803 7.33558 47.0903 7.43392 46.2437C7.49518 45.7164 7.94185 45.3186 8.47275 45.3186ZM8.46863 49.1102C7.98954 49.8195 7.32538 50.525 6.43093 51.1072C6.6827 51.2866 6.9281 51.4835 7.16305 51.6945C7.64187 52.1244 8.09997 52.6328 8.49798 53.2075C8.67826 52.9731 8.8786 52.7353 9.09628 52.5005C9.53432 52.028 10.0623 51.5467 10.6624 51.1247C10.3512 50.9279 10.0361 50.7033 9.73068 50.4497C9.28453 50.0792 8.84439 49.6338 8.46863 49.1102Z" fill="#DBE9FF"></path>
<path fill-rule="evenodd" clip-rule="evenodd" d="M63.5523 0C64.0858 0 64.5337 0.401499 64.5919 0.931766C64.7703 2.55761 65.6628 3.83679 66.7616 4.80289C67.8672 5.77499 69.1141 6.36667 69.8131 6.60266C70.2383 6.74618 70.5245 7.14486 70.5245 7.59354C70.5245 8.04221 70.2383 8.4409 69.8131 8.58441C68.4335 9.05017 67.1428 10.09 66.1575 11.2153C65.671 11.7709 65.2793 12.3244 65.0042 12.7988C64.7122 13.3023 64.6041 13.627 64.5879 13.7417C64.52 14.223 64.1294 14.5941 63.6452 14.6373C63.161 14.6805 62.7109 14.3843 62.5589 13.9226C62.0815 12.4719 61.1984 11.2054 60.2053 10.2612C59.195 9.30061 58.159 8.75508 57.4367 8.62206C56.9622 8.5347 56.6091 8.13416 56.5819 7.65253C56.5547 7.17089 56.8604 6.73313 57.322 6.59289C61.1329 5.435 62.3664 2.26562 62.5128 0.931766C62.5709 0.401499 63.0189 0 63.5523 0ZM60.2065 7.59587C60.7033 7.92252 61.1896 8.31089 61.6465 8.74537C62.3526 9.41673 63.0196 10.2268 63.5716 11.1486C63.8593 10.7211 64.1996 10.2762 64.5838 9.83743C65.2667 9.05748 66.1185 8.26274 67.097 7.6187C66.5337 7.28238 65.9435 6.86878 65.3805 6.37371C64.7067 5.78134 64.0553 5.05681 63.54 4.19414C62.8507 5.40448 61.7832 6.65526 60.2065 7.59587Z" fill="#1A468D"></path>
<path fill-rule="evenodd" clip-rule="evenodd" d="M11.9587 55.7769C12.4922 55.7769 12.9401 56.1784 12.9983 56.7086C13.1767 58.3345 14.0692 59.6136 15.168 60.5797C16.2736 61.5518 17.5205 62.1435 18.2195 62.3795C18.6446 62.523 18.9308 62.9217 18.9308 63.3704C18.9308 63.8191 18.6446 64.2178 18.2195 64.3613C16.8399 64.827 15.5492 65.8668 14.5638 66.9922C14.0774 67.5477 13.6857 68.1013 13.4106 68.5756C13.1186 69.0791 13.0105 69.4038 12.9943 69.5185C12.9264 69.9999 12.5358 70.371 12.0516 70.4142C11.5674 70.4573 11.1173 70.1612 10.9653 69.6994C10.4879 68.2488 9.60476 66.9823 8.61169 66.0381C7.60136 65.0775 6.56538 64.5319 5.84304 64.3989C5.36861 64.3116 5.01549 63.911 4.98828 63.4294C4.96107 62.9477 5.26683 62.51 5.7284 62.3697C9.53931 61.2119 10.7728 58.0425 10.9191 56.7086C10.9773 56.1784 11.4253 55.7769 11.9587 55.7769ZM8.61293 63.3727C9.10964 63.6994 9.59595 64.0877 10.0529 64.5222C10.759 65.1936 11.4259 66.0037 11.978 66.9255C12.2656 66.498 12.606 66.0531 12.9902 65.6143C13.6731 64.8343 14.5248 64.0396 15.5034 63.3956C14.9401 63.0592 14.3499 62.6456 13.7868 62.1506C13.1131 61.5582 12.4617 60.8337 11.9464 59.971C11.2571 61.1813 10.1896 62.4321 8.61293 63.3727Z" fill="#1A468D"></path>
<path fill-rule="evenodd" clip-rule="evenodd" d="M5.68394 45.3186C6.21485 45.3186 6.66151 45.7164 6.72277 46.2437C6.84611 47.3055 7.46586 48.166 8.2781 48.8405C9.09416 49.5182 10.0195 49.933 10.5335 50.0969C10.9672 50.2352 11.2616 50.6381 11.2616 51.0933C11.2616 51.5485 10.9672 51.9514 10.5335 52.0897C9.52638 52.4108 8.57386 53.1324 7.84133 53.9225C7.48053 54.3117 7.19279 54.6965 6.9936 55.021C6.89404 55.1831 6.82221 55.321 6.77497 55.4291C6.73384 55.5232 6.72112 55.5725 6.71861 55.5822C6.71802 55.5845 6.71799 55.5846 6.71829 55.5826C6.64722 56.0585 6.26065 56.4245 5.78162 56.4694C5.30259 56.5143 4.8547 56.2267 4.69637 55.7723C4.35181 54.7836 3.70938 53.9086 2.97676 53.2507C2.22917 52.5794 1.47535 52.2111 0.972879 52.1237C0.492712 52.0402 0.133882 51.6361 0.107757 51.1494C0.0816326 50.6627 0.39514 50.2225 0.863608 50.0881C3.6786 49.2803 4.54677 47.0903 4.64511 46.2437C4.70637 45.7164 5.15304 45.3186 5.68394 45.3186ZM3.64212 51.1072C3.89389 51.2866 4.13929 51.4835 4.37423 51.6945C4.85306 52.1244 5.31116 52.6328 5.70917 53.2075C5.88945 52.9731 6.08979 52.7353 6.30747 52.5005C6.74551 52.028 7.27344 51.5467 7.87361 51.1247C7.56241 50.9279 7.24726 50.7033 6.94187 50.4497C6.49572 50.0792 6.05558 49.6338 5.67982 49.1102C5.20073 49.8195 4.53657 50.525 3.64212 51.1072Z" fill="#1A468D"></path>
<path fill-rule="evenodd" clip-rule="evenodd" d="M21.9488 8.57026C27.2916 4.8835 33.5346 3.6604 37.6776 3.6604C56.9686 3.6604 64.9174 17.0312 65.8448 25.5134C65.8482 25.5449 65.8499 25.5765 65.8499 25.6081V32.116C67.5059 31.9536 68.8862 32.5868 69.8852 33.6853C71.0565 34.9733 71.6626 36.8439 71.7367 38.6781C71.8109 40.5146 71.3577 42.4577 70.2341 43.8943C69.2394 45.1662 67.7631 45.9798 65.8499 45.9898V46.144C65.8499 53.0041 61.2571 58.098 58.9457 59.8137C58.9217 59.8315 58.8969 59.8481 58.8712 59.8633C58.6935 59.9688 58.4515 60.1472 58.0891 60.4202C58.0608 60.4415 58.032 60.4632 58.0027 60.4853C57.6712 60.7352 57.2707 61.0371 56.8033 61.3646C55.7809 62.0808 54.4334 62.923 52.6778 63.6947C49.1594 65.2413 44.062 66.4781 36.7261 65.9276C29.9007 65.4154 25.2837 64.1824 22.0019 62.6289C18.7023 61.067 16.7977 59.2022 15.376 57.5136C14.7774 56.8027 13.9334 55.22 13.199 53.1121C12.5128 51.1424 11.8982 48.6462 11.6641 45.836C9.21918 45.4509 7.48841 44.445 6.4207 43.0516C5.25518 41.5304 4.97203 39.6667 5.27242 37.9547C5.57146 36.2503 6.45783 34.6293 7.73194 33.5347C8.77096 32.642 10.0891 32.0872 11.5392 32.1634C11.5776 30.9309 11.6276 29.6342 11.6902 28.2702C12.1401 18.4746 16.566 12.2846 21.9488 8.57026ZM11.4913 33.9073C10.5261 33.8449 9.62779 34.2038 8.86783 34.8567C7.92077 35.6704 7.22354 36.9204 6.98922 38.2559C6.75625 39.5837 6.99 40.9287 7.80428 41.9914C8.4962 42.8945 9.67509 43.6814 11.5572 44.0479C11.4329 41.3591 11.3945 38.0201 11.4913 33.9073ZM65.8499 44.247C67.2373 44.2378 68.2054 43.659 68.8611 42.8205C69.6659 41.7915 70.0574 40.2895 69.9951 38.7484C69.9327 37.205 69.4211 35.7656 68.5957 34.8581C67.9284 34.1243 67.0315 33.7012 65.8499 33.8712V44.247ZM22.9387 10.0049C17.9836 13.4241 13.8552 19.1232 13.4314 28.3502C13.3523 30.0732 13.2936 31.6869 13.2528 33.1975C13.118 38.1981 13.1806 42.0641 13.353 45.0123C13.5239 47.9356 14.1463 50.5331 14.845 52.5386C15.5538 54.5729 16.3135 55.9208 16.7094 56.391C18.0177 57.9449 19.7327 59.6263 22.7476 61.0534C25.7802 62.489 30.1725 63.6879 36.8565 64.1895C43.9228 64.7198 48.7329 63.5248 51.9764 62.099C53.6017 61.3846 54.8488 60.6056 55.8032 59.937C56.2446 59.6278 56.6224 59.343 56.9551 59.0922C56.9839 59.0705 57.0123 59.0491 57.0404 59.0279C57.3618 58.7858 57.6714 58.5537 57.9393 58.3899C60.0069 56.8388 64.1069 52.2218 64.1069 46.144V25.6563C63.2755 18.2601 56.5431 6.48792 40.0054 5.47364C42.4075 7.9984 44.6652 11.7434 45.5047 15.2494C46.0302 17.4441 46.0347 19.6927 45 21.5052C43.9401 23.3621 41.915 24.55 38.8558 24.8541C35.7152 25.1663 32.9206 23.1497 31.9033 20.5938C31.386 19.2941 31.3127 17.8187 31.9172 16.4213C32.5217 15.0238 33.7594 13.8054 35.6764 12.9267C36.114 12.7262 36.6313 12.9183 36.8318 13.3559C37.0324 13.7934 36.8402 14.3107 36.4027 14.5113C34.7825 15.2539 33.9133 16.1971 33.517 17.1133C33.1207 18.0295 33.1528 19.0198 33.5227 19.9492C34.28 21.8518 36.3877 23.3479 38.6834 23.1197C41.3694 22.8527 42.7885 21.8636 43.4863 20.6411C44.2094 19.3743 44.2851 17.6412 43.8096 15.6553C42.883 11.7858 39.9958 7.51769 37.3793 5.40568C33.5144 5.46355 27.8069 6.64568 22.9387 10.0049Z" fill="#1A468D"></path>
</svg>