<svg width="102" height="42" viewBox="0 0 102 42" fill="none" xmlns="http://www.w3.org/2000/svg">
<path d="M26.5935 34.2116C26.3278 33.5493 25.7435 33.1491 25.2051 32.7205C24.1745 31.9059 23.6963 30.847 22.9101 29.8021C21.3942 27.7834 19.9031 27.4965 17.5231 27.4575C16.2587 27.6488 15.3308 27.5 14.2116 28.3323C13.2128 29.0761 12.4443 30.0926 11.7147 31.0878C11.1161 31.9024 10.4255 32.4762 9.75254 33.2128C7.38312 35.8089 10.05 40.778 13.1314 41.3694C14.1337 41.5607 15.1112 41.2242 15.947 40.6894C16.3083 40.4592 17.385 39.0992 17.7179 39.0638C17.9127 39.0425 18.1394 39.3684 18.3625 39.5702C19.0602 40.2042 19.8713 40.7815 20.7638 41.1003C24.1993 42.3257 27.8897 37.4487 26.5935 34.2116Z" fill="black"></path>
<path d="M26.0587 37.0838C24.9962 39.1097 23.3564 40.8912 20.9232 40.1155C20.2078 39.8889 19.5561 39.4887 18.9611 39.0353C18.7769 38.8936 18.0473 38.033 17.8313 38.0153C17.5125 37.987 16.2304 39.4816 15.8018 39.7401C13.8929 40.8876 12.037 40.3174 10.6345 38.6776C9.92257 37.8488 8.69005 36.3259 9.1186 35.1359C9.33465 34.5338 9.92966 34.0733 10.383 33.6483C11.8953 32.2387 12.7843 30.2199 14.5835 29.1114C15.5752 28.4987 16.4429 28.658 17.5196 28.4951C18.8973 28.5164 20.2503 28.4314 21.4226 29.2814C22.9491 30.3864 23.4555 32.3166 24.851 33.4925C25.2512 33.8325 25.7258 34.0911 26.08 34.4842C26.8343 35.3165 26.5368 36.1701 26.0587 37.0838Z" fill="white"></path>
<path d="M35.1216 4.83993C34.2964 1.18486 29.423 -0.462041 26.3452 1.11049C21.5391 3.57199 19.5168 8.27895 17.8344 13.0886C17.8309 13.0426 17.8238 13.0001 17.8096 12.9611C16.3575 8.74646 14.6363 4.77264 10.8006 2.21197C8.77115 0.855483 6.53986 -0.15391 4.14565 0.873192C2.88479 1.41154 1.60268 2.42093 0.805795 3.55428C-0.876527 5.94849 0.423288 10.0144 1.5531 12.3094C2.90604 15.0578 5.53047 17.1475 7.71217 19.2158C10.8679 22.2121 14.0802 25.1553 17.3705 28.0029C17.3776 28.1552 17.3953 28.272 17.4236 28.272C17.4449 28.272 17.459 28.1977 17.4696 28.0879C17.5263 28.1374 17.5865 28.1906 17.6432 28.2402C17.6396 28.2543 17.6361 28.272 17.629 28.2791C17.6396 28.272 17.6467 28.2614 17.6574 28.2543C17.6821 28.2756 17.7105 28.3004 17.7353 28.3216C17.7105 28.3004 17.7069 28.2579 17.7069 28.2047C17.7636 28.1552 17.8238 28.102 17.8805 28.0524C17.8876 28.2047 17.9053 28.3145 17.9301 28.3145C17.9584 28.3145 17.9797 28.1516 17.9867 27.9568C20.8414 25.4811 23.6358 22.9311 26.3948 20.3492C28.6615 18.2277 31.417 16.0672 33.1418 13.4463C34.6895 11.0946 35.7627 7.67686 35.1216 4.83993Z" fill="black"></path>
<path d="M34.6293 9.16095C34.1689 10.6024 33.5137 12.0404 32.5432 13.2127C30.6236 15.5325 28.2719 17.5655 26.076 19.6161C23.3135 22.1945 20.5191 24.7481 17.6538 27.2167C12.7379 22.9772 7.73341 18.628 3.33812 13.8467C1.25204 11.5729 -1.13863 6.81278 1.19891 4.13169C2.08788 3.11167 3.23186 2.21207 4.51397 1.75873C6.63901 1.01142 8.5728 1.84019 10.3826 2.97C14.3494 5.45276 16.1734 9.35575 17.6573 13.5987C17.6184 13.7085 17.583 13.8148 17.544 13.9246C17.4484 14.2079 17.6255 14.7604 17.5723 14.9233C18.9288 10.9672 20.3207 6.83757 23.5791 4.01127C25.1516 2.64771 27.2519 1.26289 29.4194 1.41164C31.0345 1.52143 32.4653 2.42103 33.6058 3.51897C35.2633 5.10921 35.3235 6.98987 34.6293 9.16095Z" fill="white"></path>
<path d="M13.1094 36.85C13.1342 36.8464 13.1696 37.4202 13.1094 37.4273C11.5652 37.5831 10.0104 37.9302 8.61142 38.6173C7.85349 38.9927 6.71659 39.4992 6.36596 40.3421C6.40138 40.2606 6.28804 39.9383 6.35179 39.7861C6.66347 39.0352 7.61619 38.5323 8.29975 38.1958C9.81915 37.445 11.4236 37.02 13.1094 36.85ZM29.5997 39.8002C29.2774 39.0387 28.3353 38.5748 27.6518 38.21C26.1749 37.4202 24.4961 37.0306 22.8421 36.8641C22.8173 36.8606 22.7819 37.4343 22.8421 37.4414C24.4111 37.6008 25.9022 37.9833 27.3401 38.635C28.098 38.9785 29.2385 39.5346 29.5856 40.3563C29.5501 40.2784 29.6635 39.9525 29.5997 39.8002ZM12.9323 36.5277C12.9677 36.5277 12.9855 35.9504 12.9323 35.9504C11.2358 35.8654 9.58539 36.0389 7.95974 36.5454C7.23014 36.772 6.23846 37.1262 5.80991 37.8133C5.72845 37.9444 5.86303 38.3127 5.82407 38.3694C6.30929 37.5866 7.5064 37.2643 8.321 37.0093C9.80852 36.5454 11.3881 36.4497 12.9323 36.5277ZM30.471 37.7283C30.0354 37.0235 29.0543 36.7189 28.3212 36.4604C26.7345 35.9043 25.0132 35.7804 23.3486 35.8654C23.2954 35.8689 23.3131 36.4462 23.3486 36.4427C24.9176 36.3647 26.4405 36.51 27.9564 36.9243C28.7674 37.1475 29.9822 37.5193 30.4568 38.2844C30.4179 38.2277 30.5524 37.8629 30.471 37.7283ZM19.0276 35.3022C19.0241 35.3022 19.0241 35.3022 19.0206 35.3022C18.6381 35.3022 18.036 35.8441 17.8093 36.0637C17.5968 35.8583 17.0514 35.366 16.6299 35.3908C16.4953 35.3943 16.382 35.451 16.3005 35.5501C16.2155 35.6493 16.1836 35.7662 16.2084 35.8937C16.2864 36.3152 16.9947 36.7437 17.2178 36.8712C17.232 37.1758 17.2993 38.0719 17.5968 38.3127C17.6535 38.3587 17.7172 38.38 17.781 38.38C17.7987 38.38 17.8128 38.38 17.8305 38.3764C18.2945 38.3021 18.3476 37.2148 18.3512 36.8606C18.5814 36.7225 19.3145 36.2408 19.3854 35.7839C19.4066 35.6422 19.3641 35.5147 19.2685 35.4085C19.2083 35.3376 19.1268 35.3022 19.0276 35.3022ZM14.9688 31.0132C14.6536 31.0132 14.4057 31.509 14.4057 32.143C14.4057 32.7876 14.6465 33.2693 14.9688 33.2693C15.284 33.2693 15.532 32.7734 15.532 32.143C15.532 31.509 15.284 31.0132 14.9688 31.0132ZM20.1716 31.0203C19.8564 31.0203 19.6085 31.5161 19.6085 32.1465C19.6085 32.7911 19.8493 33.2764 20.1716 33.2764C20.4904 33.2764 20.7312 32.7911 20.7312 32.1465C20.7312 31.5161 20.4868 31.0203 20.1716 31.0203Z" fill="black"></path>
<path d="M3.16063 4.98144C-2.08821 8.40984 16.219 25.1516 17.7738 25.1516C19.3393 25.1516 37.4304 8.99776 31.7778 4.38643C24.5775 -1.49639 17.5365 19.3573 17.5365 19.3573C17.5365 19.3573 11.6891 -1.09617 3.16063 4.98144Z" fill="#F6ADCD"></path>
<path d="M46.7494 17.6717H41.9999V16.9881C42.4001 16.9881 42.6941 16.9598 42.8783 16.9031C43.0624 16.8464 43.1545 16.7118 43.1545 16.4993C43.1545 16.3506 43.1262 16.1983 43.066 16.046L42.5914 14.856H39.3224L39.078 15.5112C38.9399 15.8795 38.869 16.1416 38.869 16.3081C38.869 16.6056 38.9859 16.7933 39.2161 16.8748C39.4463 16.9527 39.7155 16.9952 40.0236 16.9952V17.6787H36.5527V16.9881C36.829 16.9881 37.0663 16.935 37.2575 16.8323C37.4523 16.7296 37.6365 16.5312 37.8101 16.2408C37.9871 15.9504 38.1748 15.5395 38.3767 15.0118L41.2845 7.40063H41.9893L45.06 15.2491C45.2831 15.8052 45.446 16.1806 45.5487 16.3754C45.6514 16.5702 45.7967 16.7225 45.9808 16.8287C46.165 16.935 46.42 16.9881 46.7529 16.9881V17.6717H46.7494ZM42.3187 14.1264L40.9303 10.6094L39.6057 14.1264H42.3187Z" fill="black"></path>
<path d="M58.6669 8.27901C58.1852 8.27901 57.8417 8.3286 57.6327 8.42422C57.4237 8.51985 57.2962 8.66506 57.2466 8.85277C57.1971 9.04049 57.1723 9.34862 57.1723 9.77362V17.7638H56.4887L49.8976 9.92946V15.4829C49.8976 15.9044 49.9223 16.209 49.9755 16.4002C50.0286 16.5915 50.1596 16.7367 50.3721 16.8394C50.5846 16.9421 50.9282 16.9917 51.4063 16.9917V17.6752H47.6592V16.9881C48.1054 16.9881 48.4277 16.9385 48.6296 16.8358C48.8315 16.7331 48.9555 16.5879 49.0015 16.3967C49.0475 16.2054 49.0723 15.9008 49.0723 15.4794V10.3368C49.0723 9.92238 49.0617 9.60716 49.0405 9.40174C49.0192 9.19278 48.9661 9.01215 48.8811 8.85632C48.7961 8.70048 48.6579 8.57298 48.4667 8.47735C48.2754 8.38172 48.0133 8.31443 47.6769 8.27901V7.59546H50.613L56.3506 14.3743V9.77008C56.3506 9.39466 56.3258 9.10424 56.2727 8.9059C56.2195 8.70402 56.092 8.55173 55.8866 8.44193C55.6812 8.33214 55.3554 8.27901 54.9091 8.27901V7.59546H58.6704V8.27901H58.6669Z" fill="black"></path>
<path d="M64.7656 17.6716H59.6514V16.988C60.0764 16.988 60.3987 16.9491 60.6183 16.8641C60.8343 16.7826 60.9795 16.6586 61.0468 16.4957C61.1141 16.3328 61.146 16.099 61.146 15.798V9.46537C61.146 9.02974 61.0539 8.72161 60.8733 8.54452C60.6926 8.36744 60.2853 8.27535 59.6514 8.27535V7.5918H64.7656V8.27535C64.3406 8.27535 64.0183 8.31785 63.7987 8.40285C63.5792 8.48785 63.4375 8.60827 63.3702 8.77119C63.3029 8.93411 63.271 9.16433 63.271 9.46537V15.798C63.271 16.0849 63.3029 16.3115 63.3666 16.4745C63.4304 16.6374 63.5685 16.7649 63.7775 16.8534C63.9865 16.942 64.3158 16.988 64.7621 16.988V17.6716H64.7656Z" fill="black"></path>
<path d="M79.9062 17.6716H74.8522V16.988C75.2878 16.988 75.6066 16.9455 75.812 16.857C76.0139 16.772 76.1484 16.6445 76.2086 16.478C76.2689 16.3115 76.3007 16.0849 76.3007 15.798V9.48308L72.4969 17.6716H72.0436L68.1866 9.47954V15.4792C68.1866 15.7944 68.1973 16.0388 68.2185 16.2053C68.2398 16.3753 68.2964 16.517 68.3885 16.6374C68.4806 16.7578 68.6258 16.8428 68.8241 16.8995C69.0225 16.9561 69.2987 16.9845 69.6494 16.9845V17.668H65.9199V16.988C66.2776 16.988 66.5539 16.9597 66.7487 16.8995C66.9435 16.8393 67.0851 16.7507 67.1772 16.6303C67.2658 16.5099 67.3189 16.3682 67.3402 16.2017C67.3614 16.0353 67.3685 15.7944 67.3685 15.4757V9.76996C67.3685 9.34495 67.3472 9.03682 67.3012 8.84911C67.2552 8.6614 67.1347 8.51973 66.9329 8.42056C66.731 8.32139 66.3945 8.27535 65.9199 8.27535V7.5918H69.6069L72.9503 14.7036L76.3007 7.5918H79.9062V8.27535C79.2864 8.27535 78.8862 8.36744 78.7056 8.54806C78.5249 8.72869 78.4329 9.03328 78.4329 9.46537V15.798C78.4329 16.0707 78.4612 16.2903 78.5214 16.4603C78.5816 16.6303 78.7197 16.7578 78.9322 16.8499C79.1483 16.942 79.4706 16.988 79.9027 16.988V17.6716H79.9062Z" fill="black"></path>
<path d="M91.0736 17.6717H86.3241V16.9881C86.7244 16.9881 87.0183 16.9598 87.2025 16.9031C87.3867 16.8464 87.4787 16.7118 87.4787 16.4993C87.4787 16.3506 87.4504 16.1983 87.3902 16.046L86.9156 14.856H83.6466L83.4022 15.5112C83.2641 15.8795 83.1932 16.1416 83.1932 16.3081C83.1932 16.6056 83.3101 16.7933 83.5403 16.8748C83.7705 16.9527 84.0397 16.9952 84.3479 16.9952V17.6787H80.877V16.9881C81.1532 16.9881 81.3905 16.935 81.5818 16.8323C81.7766 16.7296 81.9607 16.5312 82.1343 16.2408C82.3114 15.9504 82.4991 15.5395 82.7009 15.0118L85.6087 7.40063H86.3135L89.3842 15.2491C89.6073 15.8052 89.7702 16.1806 89.8729 16.3754C89.9757 16.5702 90.1209 16.7225 90.305 16.8287C90.4892 16.935 90.7442 16.9881 91.0771 16.9881V17.6717H91.0736ZM86.6429 14.1264L85.2545 10.6094L83.9299 14.1264H86.6429Z" fill="black"></path>
<path d="M101.072 14.3034L101.005 17.6716H92.0264V16.988C92.6462 16.988 93.0428 16.8995 93.2235 16.7188C93.4006 16.5418 93.4926 16.2336 93.4926 15.798V9.46537C93.4926 9.17141 93.4643 8.94474 93.4041 8.78536C93.3439 8.62598 93.2058 8.49848 92.9897 8.40994C92.7737 8.32139 92.4549 8.27535 92.0264 8.27535V7.5918H97.0946V8.27535C96.6731 8.27535 96.3544 8.31785 96.1383 8.40285C95.9223 8.48785 95.7806 8.60827 95.7133 8.77119C95.646 8.93411 95.6141 9.16433 95.6141 9.46537V15.2632C95.6141 15.7201 95.6354 16.0459 95.6814 16.2442C95.7275 16.4426 95.8479 16.5913 96.0462 16.694C96.2446 16.7968 96.5704 16.8463 97.0202 16.8463C97.5904 16.8463 98.0898 16.8038 98.5184 16.7153C98.9469 16.6268 99.3436 16.3965 99.7084 16.0247C100.073 15.6492 100.3 15.0755 100.388 14.3034H101.072V14.3034Z" fill="black"></path>
<path d="M43.4206 24.2665H42.8893C42.8397 23.7955 42.737 23.4484 42.5776 23.2253C42.4183 23.0021 42.2483 22.864 42.0641 22.8109C41.8799 22.7578 41.671 22.733 41.4301 22.733H40.4668V28.297C40.4668 28.5166 40.488 28.6866 40.5341 28.8106C40.5801 28.931 40.6828 29.0266 40.8493 29.0939C41.0122 29.1612 41.253 29.1966 41.5718 29.1966V29.7137H37.7609V29.1966C38.2284 29.1966 38.5294 29.1293 38.664 28.9947C38.7986 28.8602 38.8659 28.6299 38.8659 28.3006V22.733H38.0584C37.7396 22.733 37.4776 22.7578 37.2686 22.8073C37.0596 22.8569 36.8755 22.9951 36.7161 23.2217C36.5567 23.4484 36.4682 23.7955 36.4434 24.2665H35.9121V22.1096H43.4206V24.2665V24.2665Z" fill="black"></path>
<path d="M51.1771 27.2097L51.1169 29.7102H44.3486V29.1931C44.8161 29.1931 45.1172 29.1258 45.2518 28.9912C45.3864 28.8566 45.4537 28.6264 45.4537 28.297V23.5228C45.4537 23.3067 45.4324 23.1367 45.3899 23.0163C45.3474 22.8959 45.2447 22.8003 45.0889 22.7294C44.9295 22.6586 44.6851 22.6267 44.3522 22.6267V22.1096H50.6565L50.7592 24.0824H50.2421C50.1252 23.6467 49.9942 23.3315 49.8419 23.1438C49.6896 22.9561 49.5196 22.8392 49.3318 22.7967C49.1441 22.7542 48.8608 22.733 48.4818 22.733H47.0581V25.4176H47.8302C48.0958 25.4176 48.2941 25.3928 48.4252 25.3468C48.5562 25.3007 48.6483 25.2122 48.6979 25.0811C48.751 24.9501 48.7864 24.7447 48.8041 24.4649H49.3425V26.9901H48.8254C48.8112 26.7103 48.7723 26.5049 48.712 26.3703C48.6518 26.2393 48.5598 26.1507 48.4287 26.1047C48.3012 26.0587 48.1029 26.0374 47.8372 26.0374H47.0545V27.826C47.0545 28.127 47.0616 28.3431 47.0758 28.4812C47.0899 28.6193 47.1324 28.7327 47.1962 28.8247C47.2599 28.9168 47.3697 28.9841 47.5149 29.0231C47.6637 29.0656 47.8727 29.0833 48.1454 29.0833H48.7581C49.0166 29.0833 49.261 29.0514 49.4948 28.9841C49.7285 28.9168 49.9552 28.7504 50.1819 28.4777C50.405 28.2085 50.5644 27.7835 50.6529 27.2026H51.1771V27.2097Z" fill="black"></path>
<path d="M58.0188 27.5284C58.0188 27.7622 57.9692 28.0136 57.8665 28.2757C57.7674 28.5378 57.6151 28.7928 57.4096 29.0336C57.2042 29.2745 56.9492 29.4693 56.6375 29.6216C56.3259 29.7739 55.9682 29.8482 55.5609 29.8482C55.1571 29.8482 54.7569 29.7597 54.3602 29.5862C53.9635 29.4091 53.6271 29.1505 53.3508 28.7999C53.2304 29.0761 53.156 29.3312 53.1206 29.5684H52.6035V26.9688H53.1242C53.2162 27.3442 53.3473 27.6949 53.5102 28.0207C53.6731 28.3501 53.9069 28.6334 54.2079 28.8707C54.509 29.108 54.8773 29.2249 55.3129 29.2249C55.6954 29.2249 56 29.1222 56.2303 28.9132C56.4605 28.7043 56.5738 28.4386 56.5738 28.1234C56.5738 27.9428 56.5384 27.787 56.4675 27.6524C56.3967 27.5178 56.294 27.3974 56.1594 27.2911C56.0248 27.1849 55.8407 27.0715 55.6069 26.9476C55.3731 26.8271 55.1075 26.6996 54.81 26.5651C54.3496 26.349 53.9742 26.1294 53.6767 25.9098C53.3827 25.6903 53.1596 25.4742 53.0073 25.2688C52.855 25.0598 52.7523 24.865 52.6921 24.6773C52.6354 24.4896 52.6071 24.3019 52.6071 24.1106C52.6071 23.7706 52.6991 23.4342 52.8833 23.1048C53.0675 22.7754 53.3331 22.5027 53.6873 22.2937C54.0415 22.0812 54.4488 21.9785 54.9127 21.9785C55.2669 21.9785 55.6069 22.06 55.9257 22.2158C56.248 22.3752 56.5242 22.5912 56.7615 22.8675C56.8288 22.7117 56.889 22.4921 56.9457 22.2052H57.4734V24.3231H56.9457C56.5703 23.1685 55.9221 22.5912 54.9942 22.5912C54.6577 22.5912 54.3886 22.6798 54.1831 22.8569C53.9777 23.034 53.8785 23.2642 53.8785 23.544C53.8785 23.7635 53.9423 23.9548 54.0698 24.1177C54.1973 24.2806 54.3638 24.4188 54.5727 24.5356C54.7817 24.6525 55.1146 24.819 55.5786 25.035C56.1382 25.3007 56.5773 25.5309 56.8926 25.7257C57.2078 25.9205 57.4769 26.1648 57.693 26.4588C57.909 26.7528 58.0188 27.1105 58.0188 27.5284Z" fill="black"></path>
<path d="M66.6794 24.2665H66.1481C66.0985 23.7955 65.9958 23.4484 65.8364 23.2253C65.6771 23.0021 65.5071 22.864 65.3229 22.8109C65.1387 22.7578 64.9297 22.733 64.6889 22.733H63.7256V28.297C63.7256 28.5166 63.7468 28.6866 63.7929 28.8106C63.8389 28.931 63.9416 29.0266 64.1081 29.0939C64.271 29.1612 64.5118 29.1966 64.8306 29.1966V29.7137H61.0197V29.1966C61.4872 29.1966 61.7882 29.1293 61.9228 28.9947C62.0574 28.8602 62.1247 28.6299 62.1247 28.3006V22.733H61.3172C60.9984 22.733 60.7363 22.7578 60.5274 22.8073C60.3184 22.8569 60.1342 22.9951 59.9749 23.2217C59.8155 23.4484 59.727 23.7955 59.7022 24.2665H59.1709V22.1096H66.6794V24.2665Z" fill="black"></path>
<path d="M69.9839 27.9642H66.9521V26.8379H69.9839V27.9642Z" fill="black"></path>
<path d="M77.3361 24.0824H76.8084C76.7163 23.6609 76.5924 23.3528 76.4365 23.158C76.2807 22.9632 76.1072 22.8463 75.9159 22.8003C75.7246 22.7542 75.4555 22.733 75.1119 22.733H73.7554V25.4176H74.4673C74.8038 25.4176 75.0305 25.3609 75.1509 25.2441C75.2713 25.1272 75.3421 24.8722 75.3634 24.4755H75.8805V27.0008H75.3528C75.335 26.7103 75.2996 26.5014 75.2501 26.3739C75.2005 26.2464 75.1119 26.1578 74.9915 26.1118C74.8711 26.0622 74.6869 26.0409 74.4461 26.0409H73.7554V28.3006C73.7554 28.6052 73.8156 28.8318 73.9361 28.977C74.0565 29.1222 74.3469 29.1966 74.8002 29.1966H74.9561V29.7137H71.0566V29.1966C71.5206 29.1966 71.8181 29.1293 71.9492 28.9912C72.0802 28.8531 72.1475 28.6229 72.1475 28.3006V23.5228C72.1475 23.3067 72.1262 23.1367 72.0802 23.0163C72.0342 22.8959 71.935 22.8003 71.7756 22.7294C71.6162 22.6586 71.3754 22.6267 71.0566 22.6267V22.1096H77.2759L77.3361 24.0824Z" fill="black"></path>
<path d="M86.4415 29.7066H84.4086C84.3342 29.6251 84.2421 29.5047 84.1323 29.3489C84.0225 29.193 83.9021 29.0088 83.7711 28.7963C83.64 28.5838 83.5338 28.4103 83.4452 28.2722L82.9281 27.4222C82.6979 27.0396 82.5208 26.7811 82.404 26.6394C82.2871 26.4978 82.1525 26.4092 82.0002 26.3703C81.8479 26.3313 81.5929 26.31 81.2281 26.31H80.9412V28.2934C80.9412 28.5024 80.9625 28.6688 81.0085 28.7963C81.0546 28.9238 81.1608 29.0195 81.3237 29.0868C81.4902 29.1541 81.731 29.1895 82.0498 29.1895V29.7066H78.2389V29.1895C78.7029 29.1895 79.0004 29.1222 79.1314 28.9876C79.2625 28.853 79.3298 28.6228 79.3298 28.2934V23.4979C79.3298 23.1721 79.266 22.9419 79.135 22.8073C79.0075 22.6727 78.7064 22.6019 78.2354 22.6019V22.0741L79.9956 22.0175C80.1302 22.0104 80.2825 22.0033 80.456 21.9998C80.6296 21.9962 80.7925 21.9927 80.9412 21.9927C81.0581 21.9927 81.2494 21.9962 81.5185 22.0033C81.8975 22.0139 82.2481 22.0387 82.5775 22.0706C82.9069 22.1025 83.1654 22.1485 83.3567 22.1981C83.6365 22.2689 83.9021 22.3858 84.1536 22.5523C84.4051 22.7152 84.6105 22.9348 84.7699 23.2004C84.9292 23.4696 85.0071 23.7812 85.0071 24.1354C85.0071 24.3904 84.9505 24.6348 84.8407 24.8756C84.7309 25.1165 84.5538 25.329 84.3094 25.5132C84.065 25.7009 83.7427 25.8461 83.3425 25.9559C83.6152 26.1188 83.8455 26.3171 84.0367 26.5509C84.228 26.7882 84.5255 27.2238 84.9328 27.8613C85.1665 28.2226 85.3613 28.4988 85.5136 28.683C85.6659 28.8672 85.8076 28.9947 85.9351 29.0584C86.0626 29.1222 86.229 29.1647 86.4238 29.1859V29.7066H86.4415ZM83.2929 24.1319C83.2929 23.5262 83.1088 23.126 82.7404 22.9277C82.3721 22.7294 81.8904 22.6302 81.299 22.6302C81.2175 22.6302 81.1537 22.6302 81.1042 22.6337C81.0581 22.6337 81.005 22.6373 80.9448 22.6373V25.6902H81.299C81.8621 25.6902 82.3367 25.5982 82.7192 25.4175C83.1017 25.2334 83.2929 24.8048 83.2929 24.1319Z" fill="black"></path>
<path d="M93.8939 27.2097L93.8337 29.7102H87.0654V29.1931C87.5329 29.1931 87.834 29.1258 87.9686 28.9912C88.1032 28.8566 88.1704 28.6264 88.1704 28.297V23.5228C88.1704 23.3067 88.1492 23.1367 88.1067 23.0163C88.0642 22.8959 87.9615 22.8003 87.8057 22.7294C87.6463 22.6586 87.4019 22.6267 87.069 22.6267V22.1096H93.3733L93.476 24.0824H92.9589C92.842 23.6467 92.7109 23.3315 92.5587 23.1438C92.4064 22.9561 92.2364 22.8392 92.0486 22.7967C91.8609 22.7542 91.5776 22.733 91.1986 22.733H89.7749V25.4176H90.547C90.8126 25.4176 91.0109 25.3928 91.142 25.3468C91.273 25.3007 91.3651 25.2122 91.4147 25.0811C91.4678 24.9501 91.5032 24.7447 91.5209 24.4649H92.0593V26.9901H91.5422C91.528 26.7103 91.4891 26.5049 91.4288 26.3703C91.3686 26.2393 91.2766 26.1507 91.1455 26.1047C91.018 26.0587 90.8197 26.0374 90.554 26.0374H89.7713V27.826C89.7713 28.127 89.7784 28.3431 89.7926 28.4812C89.8067 28.6193 89.8492 28.7327 89.913 28.8247C89.9767 28.9168 90.0865 28.9841 90.2317 29.0231C90.3805 29.0656 90.5894 29.0833 90.8622 29.0833H91.4749C91.7334 29.0833 91.9778 29.0514 92.2116 28.9841C92.4453 28.9168 92.672 28.7504 92.8987 28.4777C93.1218 28.2085 93.2812 27.7835 93.3697 27.2026H93.8939V27.2097Z" fill="black"></path>
<path d="M101.76 27.2097L101.7 29.7102H94.9316V29.1931C95.3991 29.1931 95.7002 29.1258 95.8348 28.9912C95.9694 28.8566 96.0367 28.6264 96.0367 28.297V23.5228C96.0367 23.3067 96.0154 23.1367 95.9729 23.0163C95.9304 22.8959 95.8277 22.8003 95.6719 22.7294C95.5125 22.6586 95.2681 22.6267 94.9352 22.6267V22.1096H101.239L101.342 24.0824H100.825C100.708 23.6467 100.577 23.3315 100.425 23.1438C100.273 22.9561 100.103 22.8392 99.9148 22.7967C99.7271 22.7542 99.4438 22.733 99.0648 22.733H97.6411V25.4176H98.4132C98.6788 25.4176 98.8771 25.3928 99.0082 25.3468C99.1392 25.3007 99.2313 25.2122 99.2809 25.0811C99.334 24.9501 99.3694 24.7447 99.3871 24.4649H99.9255V26.9901H99.4084C99.3942 26.7103 99.3553 26.5049 99.295 26.3703C99.2348 26.2393 99.1428 26.1507 99.0117 26.1047C98.8842 26.0587 98.6859 26.0374 98.4202 26.0374H97.6375V27.826C97.6375 28.127 97.6446 28.3431 97.6588 28.4812C97.6729 28.6193 97.7154 28.7327 97.7792 28.8247C97.8429 28.9168 97.9527 28.9841 98.0979 29.0231C98.2467 29.0656 98.4557 29.0833 98.7284 29.0833H99.3411C99.5996 29.0833 99.844 29.0514 100.078 28.9841C100.312 28.9168 100.538 28.7504 100.765 28.4777C100.988 28.2085 101.147 27.7835 101.236 27.2026H101.76V27.2097Z" fill="black"></path>
<path d="M65.1202 34.1691C64.9325 34.1584 63.445 34.1726 63.445 34.1726L62.0566 39.34H63.2077L63.6929 37.5939H63.7035C64.4756 37.6612 66.1721 37.6789 66.4201 35.7841C66.5936 34.4453 65.6409 34.2045 65.1202 34.1691ZM64.9254 36.3295C64.5359 36.6943 63.9833 36.5668 63.9833 36.5668L64.1356 35.9895L64.3481 35.2245C64.4261 35.2174 64.9857 35.1572 65.145 35.2847C65.3186 35.4228 65.1911 36.0816 64.9254 36.3295ZM69.5439 34.2399C68.5593 33.9282 67.7517 34.6649 67.1851 35.3697C66.6361 36.1206 66.2784 36.9529 66.2642 37.9269C66.289 38.4758 66.4271 39.0885 67.0009 39.3081C67.9147 39.5313 68.5911 38.8158 69.0905 38.1819C69.1189 38.1429 69.2145 38.0048 69.2924 37.8737V37.8702L69.172 37.7923C69.0622 37.9446 68.9595 38.0862 68.8214 38.2314C68.492 38.5396 68.0847 38.7875 67.603 38.6777C67.1213 38.5679 67.0292 37.7037 67.1036 37.3425C67.178 36.9812 67.2488 36.7581 67.2665 36.7545C67.5003 36.7085 69.3384 36.3083 69.8237 35.5928C69.9972 35.3024 70.1389 34.8703 69.9264 34.548C69.8414 34.4064 69.6962 34.2895 69.5439 34.2399ZM68.1945 36.2339C67.6384 36.411 67.4436 36.457 67.3869 36.4606L67.4011 36.4145C67.479 36.1914 68.2476 34.0841 69.0339 34.3462C69.8768 34.626 69.2641 35.8974 68.1945 36.2339ZM74.8742 34.1584L72.4127 39.3435H73.6948L74.0702 38.5183H75.2283V39.3435H76.3546V34.1584H74.8742ZM75.2283 37.4806H74.5412L75.2213 35.9789L75.2248 35.9576V37.4806H75.2283ZM72.5543 35.2706L71.4281 39.34H70.1778L71.2687 35.2706H70.2416L70.5568 34.1584H73.9639L73.6664 35.2706H72.5543Z" fill="black"></path>
<path d="M59.4952 36.6765V37.2609H54.7918H40.469H35.7656V36.6765H40.469H54.7918H59.4952Z" fill="#F6ADCD"></path>
<path d="M102 36.6765V37.2609H97.2967H82.9739H78.2705V36.6765H82.9739H97.2967H102Z" fill="#F6ADCD"></path>
</svg>