<svg width="67" height="71" viewBox="0 0 67 71" fill="none" xmlns="http://www.w3.org/2000/svg">
<path d="M51.3848 69.6288C68.5997 58.4768 66.8982 44.072 63.8956 38.2637H42.3771H19.8576C14.3529 55.6888 25.8628 65.6459 33.8697 69.6288H51.3848Z" fill="#F6E8CA"></path>
<path fill-rule="evenodd" clip-rule="evenodd" d="M19.0268 38.0011C19.1413 37.6387 19.4775 37.3923 19.8576 37.3923H63.8956C64.2214 37.3923 64.5199 37.5741 64.6695 37.8635C66.2605 40.9412 67.4715 46.2066 66.0697 52.1425C64.6611 58.1066 60.6324 64.6761 51.8585 70.36C51.7174 70.4514 51.5529 70.5 51.3848 70.5H33.8697C33.735 70.5 33.6022 70.4688 33.4817 70.4088C29.385 68.371 24.3574 64.7908 21.0555 59.4448C17.7324 54.0644 16.1979 46.956 19.0268 38.0011ZM20.5022 39.1348C18.0842 47.3125 19.5543 53.6982 22.5381 58.5292C25.5692 63.4368 30.2017 66.7985 34.0759 68.7575H51.126C59.4154 63.3235 63.091 57.1737 64.3738 51.742C65.6025 46.5393 64.6518 41.9308 63.3525 39.1348H20.5022Z" fill="#F6E8CA"></path>
<path d="M37.6165 45.6704L34.0306 54.8459C32.4542 61.4726 42.7391 61.9824 41.7146 54.8459L37.6165 45.6704Z" fill="white"></path>
<path fill-rule="evenodd" clip-rule="evenodd" d="M31.6623 1.32243C31.6623 0.841246 32.0523 0.451172 32.5335 0.451172H43.291C43.7722 0.451172 44.1623 0.841246 44.1623 1.32243V7.58765H44.8278C45.6775 7.58765 46.3868 7.89513 46.8804 8.41895C47.3625 8.93061 47.5903 9.59711 47.5903 10.243C47.5903 10.8889 47.3625 11.5554 46.8804 12.0671C46.5671 12.3996 46.1669 12.6449 45.6991 12.7798V22.6474C50.4892 24.5959 58.0853 29.4535 61.476 37.1638C62.7794 40.1276 63.4571 43.5061 63.1124 47.2791C62.4811 54.1896 59.8373 59.7083 56.5458 63.6379C53.2713 67.5471 49.3086 69.9351 45.9958 70.4881C45.9484 70.496 45.9004 70.5 45.8524 70.5H29.4599C29.3322 70.5 29.206 70.4719 29.0903 70.4177C29.0454 70.3967 29 70.3754 28.954 70.3539C26.5193 69.2141 22.6983 67.4253 19.3768 63.9759C15.9705 60.4383 13.1305 55.2017 12.7097 47.2458C12.5078 43.4286 13.0654 40.096 14.129 37.213C17.3641 28.4438 25.2002 24.0035 30.1254 22.5745V12.6748C29.6303 12.4736 29.2245 12.1749 28.9239 11.7969C28.4938 11.2563 28.3214 10.6054 28.3694 9.98472C28.4651 8.74716 29.4539 7.58765 30.9967 7.58765H31.6623V1.32243ZM33.4048 7.58765H42.4198V2.19368H33.4048V7.58765ZM30.2876 10.7122C30.4249 10.8849 30.6853 11.0783 31.1643 11.1722C31.5731 11.2523 31.868 11.6106 31.868 12.0271V23.2416C31.868 23.6418 31.5954 23.9905 31.207 24.0871C26.9187 25.1539 19.6176 28.9711 16.2379 36.6433H59.2928C55.775 29.9249 48.7726 25.6579 44.5208 24.057C44.1813 23.9292 43.9566 23.6044 43.9566 23.2416V12.0271C43.9566 11.546 44.3466 11.1559 44.8278 11.1559C45.239 11.1559 45.4753 11.0173 45.6122 10.8721C45.7605 10.7147 45.8478 10.4892 45.8478 10.243C45.8478 9.99689 45.7605 9.77133 45.6122 9.61394C45.4753 9.46871 45.239 9.33016 44.8278 9.33016H30.9967C30.4509 9.33016 30.1392 9.6999 30.1068 10.119C30.0907 10.3267 30.1474 10.5359 30.2876 10.7122ZM60.1009 38.3858H15.563C14.7143 40.9098 14.2734 43.8187 14.4498 47.1538C14.8486 54.6943 17.5184 59.5337 20.632 62.7673C23.6933 65.9464 27.2232 67.619 29.6538 68.7575H45.7783C48.5633 68.2681 52.1479 66.1747 55.21 62.519C58.2804 58.8534 60.779 53.6674 61.3772 47.1205C61.6732 43.8803 61.1484 40.9699 60.1009 38.3858ZM37.5958 44.7995C37.947 44.7912 38.2688 44.9945 38.412 45.3152L42.5101 54.4907C42.543 54.5644 42.5655 54.6423 42.577 54.7222C42.8638 56.7196 42.3677 58.3051 41.3614 59.3831C40.3715 60.4436 38.977 60.916 37.641 60.8781C36.3069 60.8403 34.9516 60.2912 34.0421 59.2044C33.1132 58.0944 32.7352 56.5271 33.1831 54.6444C33.1924 54.6051 33.2045 54.5665 33.2192 54.5289L36.805 45.3534C36.9329 45.0263 37.2447 44.8079 37.5958 44.7995ZM37.6701 47.927L34.865 55.1048C34.5464 56.5045 34.8613 57.4681 35.3784 58.0861C35.922 58.7356 36.7783 59.1105 37.6904 59.1363C38.6005 59.1622 39.4865 58.8381 40.0876 58.1941C40.6577 57.5834 41.0573 56.5919 40.868 55.0868L37.6701 47.927Z" fill="#1A468D"></path>
<path d="M15.712 10.0384C16.2746 8.99177 17.7756 8.99177 18.3382 10.0384C18.7659 10.8341 19.7975 11.0695 20.5281 10.5382C21.4891 9.83934 22.8415 10.4906 22.8942 11.6777C22.9344 12.5802 23.7616 13.2399 24.6504 13.0782C25.8194 12.8655 26.7553 14.039 26.2878 15.1314C25.9324 15.9619 26.3914 16.9152 27.2624 17.1552C28.4079 17.4708 28.7419 18.9342 27.8468 19.7155C27.1662 20.3096 27.1662 21.3677 27.8468 21.9617C28.7419 22.7431 28.4079 24.2065 27.2624 24.5221C26.3914 24.762 25.9324 25.7153 26.2878 26.5459C26.7553 27.6383 25.8194 28.8118 24.6504 28.5991C23.7616 28.4374 22.9344 29.0971 22.8942 29.9996C22.8415 31.1866 21.4891 31.8379 20.5281 31.1391C19.7975 30.6077 18.7659 30.8432 18.3382 31.6389C17.7756 32.6855 16.2746 32.6855 15.712 31.6389C15.2843 30.8432 14.2527 30.6077 13.5221 31.1391C12.5611 31.8379 11.2088 31.1866 11.156 29.9996C11.1159 29.0971 10.2886 28.4374 9.39982 28.5991C8.23079 28.8118 7.29492 27.6383 7.76241 26.5459C8.11785 25.7153 7.65877 24.762 6.78781 24.5221C5.64228 24.2065 5.30827 22.7431 6.20343 21.9617C6.88402 21.3677 6.88402 20.3096 6.20343 19.7155C5.30827 18.9342 5.64228 17.4708 6.78781 17.1552C7.65877 16.9152 8.11785 15.9619 7.76241 15.1314C7.29492 14.039 8.23079 12.8655 9.39982 13.0782C10.2886 13.2399 11.1159 12.5802 11.156 11.6777C11.2088 10.4906 12.5611 9.83934 13.5221 10.5382C14.2527 11.0695 15.2843 10.8341 15.712 10.0384Z" fill="#F6E8CA"></path>
<path fill-rule="evenodd" clip-rule="evenodd" d="M12.8515 12.1721C12.5725 13.7747 11.129 14.9258 9.50455 14.8412C9.94852 16.4061 9.14746 18.0696 7.64712 18.6982C8.72613 19.9155 8.72614 21.7618 7.64712 22.9791C9.14746 23.6077 9.94852 25.2711 9.50455 26.8361C11.1291 26.7515 12.5725 27.9026 12.8515 29.5052C14.2784 28.7241 16.0784 29.1349 17.0251 30.4578C17.9718 29.1349 19.7718 28.7241 21.1987 29.5052C21.4777 27.9026 22.9212 26.7515 24.5457 26.8361C24.1017 25.2711 24.9028 23.6077 26.4031 22.9791C25.3241 21.7618 25.3241 19.9155 26.4031 18.6982C24.9028 18.0696 24.1017 16.4061 24.5457 14.8412C22.9212 14.9258 21.4777 13.7747 21.1987 12.1721C19.7718 12.9531 17.9718 12.5423 17.0251 11.2195C16.0784 12.5423 14.2784 12.9531 12.8515 12.1721ZM18.3382 10.0384C17.7756 8.99177 16.2746 8.99177 15.712 10.0384C15.2843 10.8341 14.2527 11.0695 13.5221 10.5382C12.5611 9.83934 11.2088 10.4906 11.156 11.6777C11.1159 12.5802 10.2886 13.2399 9.39982 13.0782C8.23079 12.8655 7.29492 14.039 7.76241 15.1314C8.11785 15.9619 7.65877 16.9152 6.78781 17.1552C5.64228 17.4708 5.30827 18.9342 6.20343 19.7155C6.88402 20.3096 6.88402 21.3677 6.20343 21.9617C5.30827 22.7431 5.64228 24.2065 6.78781 24.5221C7.65877 24.762 8.11785 25.7153 7.76241 26.5459C7.29492 27.6383 8.23079 28.8118 9.39982 28.5991C10.2886 28.4374 11.1159 29.0971 11.156 29.9996C11.2088 31.1866 12.5611 31.8379 13.5221 31.1391C14.2527 30.6077 15.2843 30.8432 15.712 31.6389C16.2746 32.6855 17.7756 32.6855 18.3382 31.6389C18.7659 30.8432 19.7975 30.6077 20.5281 31.1391C21.4891 31.8379 22.8415 31.1866 22.8942 29.9996C22.9344 29.0971 23.7616 28.4374 24.6504 28.5991C25.8194 28.8118 26.7553 27.6383 26.2878 26.5459C25.9324 25.7153 26.3914 24.762 27.2624 24.5221C28.4079 24.2065 28.7419 22.7431 27.8468 21.9617C27.1662 21.3677 27.1662 20.3096 27.8468 19.7155C28.7419 18.9342 28.4079 17.4708 27.2624 17.1552C26.3914 16.9152 25.9324 15.9619 26.2878 15.1314C26.7553 14.039 25.8194 12.8655 24.6504 13.0782C23.7616 13.2399 22.9344 12.5802 22.8942 11.6777C22.8415 10.4906 21.4891 9.83934 20.5281 10.5382C19.7975 11.0695 18.7659 10.8341 18.3382 10.0384Z" fill="#F6E8CA"></path>
<path fill-rule="evenodd" clip-rule="evenodd" d="M7.9725 12.1721C7.6935 13.7747 6.25004 14.9258 4.62554 14.8412C5.06951 16.4061 4.26845 18.0696 2.76811 18.6982C3.84712 19.9155 3.84712 21.7618 2.76811 22.9791C4.26845 23.6077 5.06951 25.2711 4.62554 26.8361C6.25004 26.7515 7.6935 27.9026 7.9725 29.5052C9.39941 28.7241 11.1994 29.1349 12.1461 30.4578C13.0928 29.1349 14.8928 28.7241 16.3197 29.5052C16.5987 27.9026 18.0422 26.7515 19.6667 26.8361C19.2227 25.2711 20.0237 23.6077 21.5241 22.9791C20.4451 21.7618 20.4451 19.9155 21.5241 18.6982C20.0237 18.0696 19.2227 16.4061 19.6666 14.8412C18.0421 14.9258 16.5987 13.7747 16.3197 12.1721C14.8928 12.9531 13.0928 12.5423 12.1461 11.2195C11.1994 12.5423 9.39941 12.9531 7.9725 12.1721ZM13.4592 10.0384C12.8966 8.99177 11.3956 8.99177 10.833 10.0384C10.4053 10.8341 9.37372 11.0695 8.64309 10.5382C7.68212 9.83934 6.32974 10.4906 6.27697 11.6777C6.23685 12.5802 5.40962 13.2399 4.5208 13.0782C3.35178 12.8655 2.41591 14.039 2.8834 15.1314C3.23883 15.9619 2.77975 16.9152 1.9088 17.1552C0.763262 17.4708 0.429252 18.9342 1.32441 19.7155C2.00501 20.3096 2.00501 21.3677 1.32441 21.9617C0.429252 22.7431 0.763263 24.2065 1.9088 24.5221C2.77975 24.762 3.23883 25.7153 2.8834 26.5459C2.41591 27.6383 3.35178 28.8118 4.5208 28.5991C5.40962 28.4374 6.23685 29.0971 6.27697 29.9996C6.32974 31.1866 7.68212 31.8379 8.64309 31.1391C9.37372 30.6077 10.4053 30.8432 10.833 31.6389C11.3956 32.6855 12.8966 32.6855 13.4592 31.6389C13.8869 30.8432 14.9185 30.6077 15.6491 31.1391C16.6101 31.8379 17.9624 31.1866 18.0152 29.9996C18.0553 29.0971 18.8826 28.4374 19.7714 28.5991C20.9404 28.8118 21.8763 27.6383 21.4088 26.5459C21.0534 25.7153 21.5124 24.762 22.3834 24.5221C23.5289 24.2065 23.8629 22.7431 22.9678 21.9617C22.2872 21.3677 22.2872 20.3096 22.9678 19.7155C23.8629 18.9342 23.5289 17.4708 22.3834 17.1552C21.5124 16.9152 21.0534 15.9619 21.4088 15.1314C21.8763 14.039 20.9404 12.8655 19.7714 13.0782C18.8826 13.2399 18.0553 12.5802 18.0152 11.6777C17.9624 10.4906 16.6101 9.83934 15.6491 10.5382C14.9185 11.0695 13.8869 10.8341 13.4592 10.0384Z" fill="#1A468D"></path>
<path fill-rule="evenodd" clip-rule="evenodd" d="M17.7833 18.318C18.0204 18.7367 17.8732 19.2684 17.4545 19.5055L10.07 23.6875C9.85643 23.8085 9.60171 23.8337 9.36852 23.7571C9.13533 23.6804 8.94531 23.5089 8.84519 23.2847C8.63947 22.8242 8.27933 22.1188 7.87977 21.5172C7.67935 21.2154 7.48466 20.9637 7.31024 20.7858C7.1442 20.6166 7.06007 20.5801 7.06086 20.5782C7.061 20.5779 7.06379 20.5786 7.06925 20.5799C6.60064 20.4706 6.30934 20.0021 6.41862 19.5335C6.5279 19.0649 6.99636 18.7736 7.46497 18.8829C7.92329 18.9898 8.29407 19.3005 8.55417 19.5656C8.83523 19.8521 9.09878 20.2031 9.33131 20.5532C9.58334 20.9326 9.81735 21.3393 10.0161 21.7155L16.5958 17.9893C17.0145 17.7521 17.5462 17.8993 17.7833 18.318Z" fill="#1A468D"></path>
</svg>