<svg width="54" height="37" viewBox="0 0 54 37" fill="none" xmlns="http://www.w3.org/2000/svg">
<path d="M36.5355 1.81631C36.8702 1.44074 37.6901 0.739816 38.2924 0.940606C38.8948 1.1414 38.5434 2.53026 38.2924 3.19959C39.6613 4.9711 42.2083 10.5402 41.8604 19.0118C42.5117 19.3465 43.6134 20.1664 42.8102 20.7688C41.8063 21.5217 41.8063 20.7688 41.3043 20.7688C40.8117 20.7688 30.8926 29.9535 13.4446 26.2642C13.11 26.6913 12.2901 27.4952 11.6877 27.2945C11.0853 27.0937 11.4367 26.0395 11.6877 25.5375C10.0144 23.446 6.86872 17.1545 7.67189 8.72133C6.83527 8.21935 5.41301 7.1652 6.41696 6.96441C7.4209 6.76362 8.00658 7.03209 8.17393 7.19143C12.9939 4.62593 24.4878 0.433364 36.5355 1.81631Z" fill="#F9DBD2"></path>
<path fill-rule="evenodd" clip-rule="evenodd" d="M36.5069 2.06563C36.5064 2.06557 36.5059 2.06551 36.5053 2.06545C24.5242 0.690638 13.0827 4.86294 8.29186 7.41296C8.11715 7.50595 7.95148 7.59669 7.79513 7.68481C7.67438 7.75287 7.52131 7.71016 7.45325 7.5894C7.38518 7.46865 7.4279 7.31558 7.54866 7.24751C7.57407 7.23319 7.59971 7.21881 7.62558 7.20436C7.37051 7.1392 6.98719 7.1063 6.46619 7.2105C6.38525 7.22669 6.34384 7.24598 6.32524 7.25742C6.32947 7.27349 6.34023 7.30234 6.36655 7.3455C6.40305 7.40537 6.4595 7.47651 6.53597 7.55681C6.84673 7.88311 7.3879 8.2582 7.80103 8.50608C7.88396 8.55584 7.93092 8.64882 7.92175 8.7451C7.12513 17.1096 10.2487 23.337 11.8837 25.3807C11.9449 25.4572 11.956 25.5622 11.9122 25.6498C11.7937 25.8868 11.6558 26.2474 11.6167 26.56C11.5971 26.7172 11.6055 26.8392 11.6348 26.9219C11.66 26.9928 11.6984 27.0334 11.7671 27.0563C11.9436 27.1152 12.2064 27.0343 12.521 26.8103C12.6845 26.6939 12.8401 26.5543 12.9732 26.4189C12.7774 26.3755 12.5806 26.3304 12.383 26.2838C12.2486 26.252 12.1651 26.1178 12.1961 25.9832C12.227 25.8487 12.3608 25.7644 12.4955 25.7946L12.4983 25.7952L13.4965 26.0186C13.497 26.0187 13.4975 26.0188 13.498 26.0189C22.1671 27.8517 28.9587 26.4858 33.6418 24.666C35.9845 23.7557 37.8013 22.7311 39.063 21.934C39.678 21.5455 40.1612 21.211 40.5116 20.9685L40.5386 20.9498C40.7133 20.8288 40.8581 20.7289 40.9669 20.6594C41.021 20.6249 41.0718 20.5943 41.1162 20.5715C41.1384 20.5602 41.1636 20.5484 41.1897 20.5391C41.2122 20.531 41.254 20.5177 41.3043 20.5177C41.5009 20.5177 41.6448 20.5944 41.7516 20.6672C41.785 20.69 41.8217 20.7175 41.8518 20.7401C41.8642 20.7494 41.8755 20.7578 41.885 20.7648C41.9236 20.7931 41.9533 20.8126 41.9813 20.8266C42.0263 20.8491 42.0761 20.863 42.1641 20.8422C42.2651 20.8183 42.4211 20.7469 42.6596 20.5679C42.813 20.4529 42.8415 20.3574 42.8413 20.2879C42.841 20.2021 42.7965 20.087 42.6844 19.9462C42.538 19.7623 42.3157 19.5838 42.0919 19.4372C42.0818 19.6341 42.07 19.8326 42.0567 20.0325C42.0475 20.1702 41.9289 20.2746 41.7912 20.2663C41.6534 20.258 41.5482 20.1401 41.5557 20.0023L41.5558 19.9991L41.6096 19.0015C41.6097 19.001 41.6097 19.0005 41.6097 19C41.9552 10.5772 39.4203 5.06962 38.0938 3.35303C38.0407 3.28424 38.0269 3.19284 38.0574 3.11144C38.1785 2.78848 38.3216 2.29659 38.3626 1.87031C38.3833 1.6554 38.3759 1.47789 38.3404 1.35254C38.3063 1.23222 38.2583 1.19378 38.2131 1.17869C38.0238 1.11559 37.7543 1.18688 37.4446 1.37639C37.3201 1.45254 37.2003 1.54105 37.0917 1.63101C37.2525 1.65162 37.4134 1.67324 37.5744 1.69588C37.7111 1.7151 37.8066 1.84102 37.7882 1.97779C37.7699 2.11456 37.6446 2.21086 37.5077 2.19339L37.5045 2.19297L36.5069 2.06563ZM42.1173 18.8653C42.4371 19.0458 42.8268 19.3192 43.0771 19.6336C43.2214 19.8148 43.3425 20.0386 43.3432 20.2864C43.344 20.5505 43.209 20.7834 42.9608 20.9695C42.6974 21.1671 42.4769 21.2839 42.2798 21.3306C42.0698 21.3804 41.9 21.3472 41.7568 21.2756C41.6907 21.2425 41.6341 21.2032 41.5883 21.1697C41.5689 21.1555 41.5528 21.1434 41.5381 21.1324C41.5136 21.1139 41.4932 21.0986 41.4688 21.082C41.417 21.0466 41.3784 21.0283 41.3377 21.0222C41.3148 21.0344 41.2819 21.0539 41.237 21.0825C41.1379 21.1458 41.0019 21.2396 40.8243 21.3626L40.7964 21.3818C40.4456 21.6247 39.9552 21.9641 39.3311 22.3584C38.0492 23.1682 36.2033 24.2092 33.8236 25.1339C29.0894 26.9735 22.2491 28.3501 13.5421 26.541C13.3604 26.7535 13.1005 27.0139 12.8121 27.2192C12.4826 27.4538 12.0342 27.6745 11.6083 27.5325C11.3759 27.455 11.2323 27.2886 11.1617 27.0897C11.0954 26.9026 11.0944 26.692 11.1186 26.4978C11.1592 26.1731 11.2792 25.8294 11.3947 25.5705C9.67447 23.3317 6.66532 17.1195 7.40758 8.85377C7.00094 8.59999 6.4942 8.24082 6.17247 7.90299C6.08161 7.8076 5.9995 7.70775 5.93796 7.60683C5.87814 7.50873 5.82602 7.39062 5.82106 7.26274C5.81557 7.12115 5.86927 6.98845 5.98227 6.88874C6.08469 6.79837 6.22124 6.74757 6.36774 6.71827C7.25301 6.54122 7.87353 6.70207 8.19514 6.89631C13.1056 4.31901 24.4846 0.21841 36.438 1.55265C36.6215 1.3628 36.8873 1.12886 37.1826 0.948209C37.5171 0.743565 37.9588 0.564794 38.3718 0.702477C38.6277 0.787783 38.7617 0.998247 38.8234 1.21573C38.8835 1.42818 38.8855 1.67736 38.8623 1.91844C38.8211 2.34655 38.6933 2.81469 38.5746 3.15688C39.9917 5.08022 42.4235 10.5983 42.1173 18.8653Z" fill="#F9DBD2"></path>
<path d="M50.7098 16.2922C51.1848 16.1266 52.2421 15.9125 52.6709 16.3808C53.0998 16.849 52.1176 17.892 51.573 18.355C51.9083 20.5685 51.4275 26.6735 47.006 33.9082C47.4126 34.5172 47.9769 35.7692 46.9822 35.9052C45.7389 36.0753 46.1048 35.4173 45.6661 35.1733C45.2356 34.9339 32.1029 38.14 18.6474 26.4356C18.1473 26.6462 17.0401 26.9503 16.6112 26.482C16.1824 26.0138 17.0018 25.2633 17.4651 24.9466C17.0193 22.3054 17.3279 15.2782 22.1286 8.29836C21.6414 7.45304 20.9108 5.84052 21.8858 6.15298C22.8607 6.46544 23.2421 6.98473 23.3109 7.20531C28.7702 7.30582 40.8529 9.22807 50.7098 16.2922Z" fill="#F9DBD2"></path>
<path fill-rule="evenodd" clip-rule="evenodd" d="M50.5637 16.4962C50.5633 16.4959 50.5628 16.4956 50.5624 16.4953C40.7597 9.47064 28.7327 7.5562 23.3064 7.45629C23.1085 7.45265 22.9196 7.45143 22.7401 7.45245C22.6015 7.45325 22.4885 7.34152 22.4877 7.2029C22.4869 7.06429 22.5986 6.95128 22.7372 6.95048C22.7664 6.95032 22.7958 6.95021 22.8254 6.95016C22.6342 6.76924 22.3152 6.55418 21.8092 6.39203C21.7306 6.36684 21.685 6.36357 21.6632 6.36453C21.6591 6.38064 21.6545 6.41107 21.6565 6.46159C21.6593 6.53165 21.6741 6.62126 21.7019 6.7286C21.8149 7.16481 22.1055 7.75564 22.3461 8.17306C22.3944 8.25686 22.3903 8.36094 22.3355 8.44063C17.5739 15.3636 17.2771 22.3241 17.7127 24.9048C17.7289 25.0014 17.6876 25.0986 17.6068 25.1538C17.388 25.3034 17.0923 25.5515 16.9062 25.8058C16.8126 25.9336 16.7607 26.0443 16.7461 26.1308C16.7336 26.205 16.7474 26.2591 16.7964 26.3126C16.922 26.4498 17.191 26.5068 17.5748 26.464C17.7742 26.4417 17.9781 26.3953 18.1603 26.3417C18.0102 26.2085 17.8602 26.0736 17.7101 25.9367C17.6081 25.8437 17.6004 25.6858 17.6928 25.5832C17.7852 25.4807 17.9431 25.472 18.0462 25.5639L18.0484 25.5658L18.8122 26.2462C18.8125 26.2465 18.8129 26.2468 18.8133 26.2472C25.4989 32.0623 32.0982 34.1695 37.0754 34.8552C39.5653 35.1982 41.651 35.1858 43.1411 35.1024C43.8674 35.0618 44.4523 35.0043 44.8763 34.9627L44.909 34.9595C45.1205 34.9387 45.2956 34.9217 45.4244 34.9138C45.4885 34.9099 45.5478 34.9079 45.5977 34.9096C45.6226 34.9105 45.6503 34.9124 45.6777 34.917C45.7012 34.9209 45.7443 34.9296 45.7882 34.954C45.96 35.0495 46.0485 35.1865 46.1064 35.3021C46.1246 35.3382 46.1433 35.3801 46.1586 35.4144C46.1649 35.4286 46.1707 35.4415 46.1756 35.4521C46.1956 35.4956 46.212 35.5271 46.2297 35.553C46.2581 35.5945 46.2949 35.6309 46.382 35.6554C46.4818 35.6836 46.6528 35.697 46.9483 35.6566C47.1382 35.6306 47.2095 35.561 47.2431 35.5002C47.2846 35.4251 47.3016 35.3028 47.2721 35.1253C47.2335 34.8934 47.126 34.6293 47.0017 34.3925C46.8971 34.5596 46.7904 34.7274 46.6816 34.8956C46.6067 35.0115 46.4522 35.0451 46.3359 34.9709C46.2195 34.8967 46.1849 34.7425 46.2584 34.6257L46.2601 34.623L46.7919 33.7773C46.7922 33.7769 46.7925 33.7764 46.7928 33.776C51.1884 26.5829 51.6498 20.5375 51.3249 18.3926C51.3119 18.3067 51.3443 18.2201 51.4105 18.1638C51.6733 17.9404 52.0374 17.58 52.2804 17.2274C52.403 17.0497 52.4827 16.8909 52.5126 16.7641C52.5413 16.6424 52.5181 16.5855 52.4859 16.5503C52.3511 16.4032 52.081 16.3345 51.7182 16.3496C51.5724 16.3557 51.4246 16.3748 51.286 16.4006C51.4165 16.4968 51.5467 16.5939 51.6764 16.6919C51.7865 16.7751 51.8087 16.9316 51.7262 17.0422C51.6437 17.1528 51.4874 17.1761 51.3762 17.0943L51.3737 17.0924L50.5637 16.4962ZM47.3018 33.905C47.4935 34.2182 47.7013 34.6466 47.7672 35.0429C47.8053 35.2715 47.8023 35.5258 47.6825 35.7428C47.5549 35.974 47.3237 36.1119 47.0163 36.154C46.6901 36.1986 46.4406 36.1936 46.2457 36.1385C46.038 36.0799 45.9057 35.9684 45.8153 35.8362C45.7736 35.7752 45.7432 35.7134 45.7195 35.6619C45.7095 35.64 45.7013 35.6215 45.6938 35.6048C45.6813 35.5768 45.671 35.5535 45.6577 35.5271C45.6296 35.471 45.6048 35.4362 45.5722 35.4111C45.5463 35.4106 45.5081 35.4117 45.4549 35.4149C45.3375 35.422 45.1731 35.4379 44.958 35.459L44.9243 35.4623C44.4997 35.5041 43.9061 35.5624 43.1691 35.6036C41.6552 35.6883 39.5361 35.7009 37.0069 35.3525C31.9754 34.6593 25.3282 32.5378 18.598 26.7249C18.336 26.8223 17.9823 26.9236 17.6305 26.9628C17.2285 27.0077 16.7294 26.9826 16.4262 26.6516C16.2607 26.4709 16.2161 26.2556 16.2511 26.0475C16.284 25.8517 16.3855 25.6672 16.5011 25.5093C16.6944 25.2452 16.9663 25.0032 17.1931 24.833C16.7778 22.0404 17.1672 15.1487 21.8333 8.2857C21.6012 7.86627 21.3329 7.30609 21.216 6.85448C21.1829 6.72695 21.1597 6.59977 21.155 6.48167C21.1504 6.36686 21.1622 6.23831 21.22 6.12414C21.284 5.99773 21.3955 5.90785 21.5427 5.87563C21.6761 5.84643 21.8201 5.86841 21.9624 5.914C22.8221 6.18953 23.2863 6.63169 23.4729 6.95776C29.0171 7.09195 40.9547 9.03874 50.7528 16.0144C51.0054 15.9377 51.3515 15.8624 51.6973 15.8481C52.0891 15.8318 52.562 15.8902 52.8561 16.2113C53.0383 16.4102 53.0531 16.6593 53.0012 16.8793C52.9506 17.0942 52.8312 17.313 52.6937 17.5124C52.4496 17.8665 52.1104 18.2135 51.8404 18.4549C52.1441 20.8245 51.5874 26.8289 47.3018 33.905Z" fill="#F9DBD2"></path>
<path fill-rule="evenodd" clip-rule="evenodd" d="M30.9666 1.49594C30.9661 1.49588 30.9656 1.49582 30.9651 1.49577C19.0381 0.16059 7.64837 4.21259 2.87914 6.6891C2.70522 6.77941 2.5403 6.86753 2.38466 6.95311C2.26445 7.01921 2.11207 6.97773 2.04432 6.86045C1.97656 6.74318 2.01909 6.59452 2.1393 6.52842C2.16459 6.51451 2.19012 6.50054 2.21587 6.48652C1.96195 6.42323 1.58036 6.39128 1.06172 6.49248C0.981152 6.50819 0.939923 6.52693 0.92141 6.53804C0.925625 6.55365 0.936329 6.58166 0.96253 6.62358C0.998872 6.68173 1.05506 6.75082 1.13119 6.8288C1.44054 7.14569 1.97926 7.50997 2.39053 7.7507C2.47308 7.79903 2.51983 7.88933 2.51071 7.98283C1.71769 16.1062 4.82718 22.154 6.45474 24.1388C6.51562 24.2131 6.5267 24.3151 6.48311 24.4001C6.3651 24.6303 6.22791 24.9805 6.189 25.2841C6.16944 25.4368 6.17781 25.5552 6.20701 25.6356C6.23205 25.7045 6.27024 25.7439 6.33865 25.7661C6.51434 25.8232 6.77594 25.7447 7.08917 25.5272C7.25187 25.4142 7.40683 25.2785 7.53932 25.147C7.34439 25.1049 7.14854 25.0611 6.95178 25.0158C6.81804 24.985 6.7349 24.8546 6.7657 24.724C6.79649 24.5933 6.92966 24.5114 7.06376 24.5407L7.06661 24.5414L8.0603 24.7583C8.06077 24.7584 8.06123 24.7585 8.0617 24.7586C16.6917 26.5385 23.4525 25.212 28.1145 23.4447C30.4466 22.5606 32.2552 21.5655 33.5112 20.7915C34.1235 20.4141 34.6044 20.0893 34.9532 19.8538L34.9801 19.8357C35.1541 19.7182 35.2981 19.6211 35.4065 19.5536C35.4603 19.5201 35.5109 19.4904 35.5551 19.4683C35.5772 19.4573 35.6022 19.4459 35.6283 19.4368C35.6507 19.429 35.6923 19.4161 35.7424 19.4161C35.938 19.4161 36.0813 19.4905 36.1876 19.5612C36.2209 19.5834 36.2574 19.6101 36.2873 19.632C36.2997 19.641 36.311 19.6492 36.3204 19.656C36.3588 19.6834 36.3884 19.7024 36.4163 19.716C36.4611 19.7379 36.5107 19.7514 36.5983 19.7311C36.6988 19.7079 36.8541 19.6386 37.0916 19.4648C37.2443 19.3531 37.2726 19.2603 37.2724 19.1929C37.2721 19.1096 37.2278 18.9978 37.1162 18.861C36.9705 18.6824 36.7492 18.509 36.5264 18.3667C36.5163 18.5579 36.5046 18.7506 36.4914 18.9448C36.4822 19.0785 36.3642 19.1799 36.227 19.1719C36.0899 19.1638 35.9852 19.0492 35.9926 18.9154L35.9928 18.9123L36.0463 17.9435C36.0463 17.943 36.0463 17.9425 36.0464 17.942C36.3903 9.7621 33.8669 4.41332 32.5464 2.74622C32.4935 2.67941 32.4798 2.59065 32.5102 2.5116C32.6307 2.19795 32.7731 1.72024 32.814 1.30625C32.8346 1.09754 32.8272 0.925144 32.7918 0.803409C32.7579 0.686559 32.7102 0.649227 32.6651 0.634573C32.4766 0.573285 32.2084 0.642527 31.9001 0.826575C31.7762 0.900524 31.6569 0.986485 31.5488 1.07385C31.7089 1.09387 31.8691 1.11486 32.0293 1.13685C32.1654 1.15551 32.2605 1.27781 32.2422 1.41063C32.2239 1.54345 32.0992 1.63698 31.9629 1.62002L31.9598 1.6196L30.9666 1.49594ZM36.5517 17.8112C36.87 17.9866 37.258 18.2521 37.5071 18.5574C37.6508 18.7334 37.7713 18.9507 37.7721 19.1913C37.7729 19.4479 37.6385 19.674 37.3914 19.8548C37.1292 20.0467 36.9097 20.1602 36.7135 20.2055C36.5044 20.2538 36.3354 20.2216 36.1928 20.152C36.127 20.1199 36.0706 20.0818 36.0251 20.0493C36.0058 20.0354 35.9897 20.0237 35.9751 20.0129C35.9507 19.9951 35.9304 19.9802 35.9061 19.964C35.8545 19.9297 35.8161 19.9119 35.7756 19.9059C35.7528 19.9178 35.7201 19.9367 35.6753 19.9646C35.5767 20.026 35.4414 20.1171 35.2645 20.2365L35.2367 20.2552C34.8875 20.4911 34.3993 20.8208 33.7781 21.2036C32.5019 21.9901 30.6644 23.0011 28.2955 23.8991C23.5827 25.6857 16.7733 27.0226 8.10561 25.2657C7.92476 25.4721 7.66604 25.725 7.37896 25.9243C7.05089 26.1521 6.60458 26.3665 6.18062 26.2286C5.94921 26.1533 5.80625 25.9916 5.73604 25.7985C5.66998 25.6168 5.66898 25.4123 5.69315 25.2237C5.73355 24.9083 5.853 24.5745 5.96794 24.3231C4.2555 22.1488 1.25995 16.1158 1.99886 8.08836C1.59405 7.8419 1.08961 7.49309 0.769328 7.165C0.678885 7.07236 0.597137 6.97539 0.535881 6.87738C0.476333 6.78211 0.424442 6.6674 0.419508 6.54321C0.414045 6.4057 0.467496 6.27683 0.579992 6.17999C0.681949 6.09222 0.817876 6.04289 0.96372 6.01444C1.84499 5.84249 2.4627 5.99871 2.78286 6.18734C7.67114 3.68435 18.9987 -0.298023 30.898 0.99775C31.0807 0.813368 31.3454 0.58618 31.6393 0.410734C31.9722 0.21199 32.4119 0.0383737 32.8231 0.172087C33.0779 0.254934 33.2113 0.45933 33.2726 0.670541C33.3325 0.876866 33.3345 1.11886 33.3114 1.35299C33.2703 1.76876 33.1431 2.2234 33.025 2.55573C34.4357 4.42362 36.8565 9.78263 36.5517 17.8112Z" fill="#1A468D"></path>
<path fill-rule="evenodd" clip-rule="evenodd" d="M44.9671 15.5024C44.9667 15.5021 44.9663 15.5018 44.9658 15.5015C35.1632 8.47681 23.1361 6.56236 17.7098 6.46246C17.5119 6.45881 17.323 6.45759 17.1436 6.45862C17.0049 6.45941 16.8919 6.34768 16.8911 6.20907C16.8903 6.07045 17.0021 5.95744 17.1407 5.95665C17.1699 5.95648 17.1993 5.95637 17.2289 5.95632C17.0376 5.7754 16.7186 5.56035 16.2127 5.3982C16.1341 5.37301 16.0885 5.36974 16.0667 5.3707C16.0626 5.3868 16.0579 5.41723 16.06 5.46775C16.0628 5.53782 16.0775 5.62742 16.1053 5.73476C16.2183 6.17097 16.509 6.7618 16.7496 7.17923C16.7978 7.26302 16.7937 7.36711 16.7389 7.44679C11.9773 14.3697 11.6805 21.3303 12.1161 23.911C12.1324 24.0075 12.0911 24.1047 12.0102 24.16C11.7914 24.3096 11.4958 24.5577 11.3096 24.8119C11.2161 24.9397 11.1641 25.0504 11.1496 25.137C11.1371 25.2112 11.1509 25.2653 11.1998 25.3187C11.3255 25.4559 11.5944 25.5129 11.9783 25.4701C12.1777 25.4479 12.3816 25.4015 12.5637 25.3478C12.4137 25.2147 12.2636 25.0797 12.1136 24.9429C12.0116 24.8499 12.0038 24.6919 12.0963 24.5894C12.1887 24.4869 12.3466 24.4782 12.4496 24.57L12.4518 24.572L13.2156 25.2524C13.216 25.2527 13.2163 25.253 13.2167 25.2533C19.9023 31.0685 26.5016 33.1757 31.4789 33.8614C33.9687 34.2044 36.0545 34.1919 37.5445 34.1086C38.2709 34.068 38.8557 34.0105 39.2797 33.9688L39.3124 33.9656C39.524 33.9448 39.699 33.9278 39.8279 33.92C39.892 33.9161 39.9512 33.914 40.0011 33.9158C40.0261 33.9166 40.0537 33.9186 40.0811 33.9231C40.1047 33.927 40.1477 33.9357 40.1916 33.9602C40.3634 34.0557 40.4519 34.1926 40.5099 34.3082C40.528 34.3444 40.5467 34.3862 40.562 34.4205C40.5684 34.4347 40.5741 34.4476 40.579 34.4583C40.599 34.5018 40.6155 34.5333 40.6331 34.5591C40.6615 34.6007 40.6983 34.637 40.7854 34.6616C40.8852 34.6898 41.0563 34.7032 41.3517 34.6628C41.5417 34.6368 41.613 34.5671 41.6465 34.5063C41.688 34.4312 41.705 34.309 41.6755 34.1314C41.6369 33.8996 41.5295 33.6355 41.4051 33.3987C41.3005 33.5658 41.1939 33.7335 41.085 33.9018C41.0101 34.0176 40.8557 34.0513 40.7393 33.9771C40.623 33.9029 40.5884 33.7486 40.6618 33.6318L40.6635 33.6291L41.1954 32.7835C41.1957 32.783 41.1959 32.7826 41.1962 32.7821C45.5918 25.589 46.0533 19.5437 45.7283 17.3988C45.7153 17.3128 45.7477 17.2263 45.8139 17.17C46.0767 16.9466 46.4408 16.5862 46.6839 16.2336C46.8064 16.0559 46.8862 15.8971 46.9161 15.7703C46.9448 15.6486 46.9215 15.5917 46.8893 15.5565C46.7545 15.4093 46.4844 15.3407 46.1216 15.3558C45.9758 15.3618 45.8281 15.3809 45.6894 15.4068C45.82 15.5029 45.9501 15.6 46.0798 15.6981C46.1899 15.7813 46.2122 15.9378 46.1296 16.0484C46.0471 16.159 45.8908 16.1822 45.7797 16.1005L45.7771 16.0985L44.9671 15.5024ZM41.7053 32.9112C41.897 33.2243 42.1047 33.6527 42.1707 34.0491C42.2087 34.2776 42.2058 34.532 42.086 34.7489C41.9583 34.9802 41.7272 35.1181 41.4198 35.1601C41.0935 35.2048 40.8441 35.1997 40.6491 35.1447C40.4414 35.0861 40.3091 34.9746 40.2187 34.8424C40.177 34.7814 40.1467 34.7196 40.123 34.668C40.1129 34.6462 40.1047 34.6277 40.0972 34.6109C40.0848 34.5829 40.0744 34.5597 40.0612 34.5333C40.033 34.4772 40.0082 34.4424 39.9757 34.4172C39.9497 34.4168 39.9115 34.4178 39.8583 34.4211C39.7409 34.4282 39.5765 34.4441 39.3615 34.4652L39.3278 34.4685C38.9031 34.5102 38.3096 34.5685 37.5725 34.6098C36.0586 34.6945 33.9395 34.7071 31.4104 34.3587C26.3788 33.6655 19.7317 31.5439 13.0015 25.7311C12.7394 25.8285 12.3857 25.9298 12.0339 25.969C11.6319 26.0138 11.1328 25.9888 10.8296 25.6578C10.6641 25.477 10.6195 25.2617 10.6545 25.0537C10.6875 24.8579 10.789 24.6734 10.9046 24.5154C11.0978 24.2514 11.3698 24.0093 11.5965 23.8392C11.1812 21.0465 11.5707 14.1549 16.2367 7.29186C16.0047 6.87243 15.7364 6.31225 15.6194 5.86064C15.5864 5.73311 15.5631 5.60594 15.5584 5.48784C15.5538 5.37303 15.5656 5.24447 15.6235 5.1303C15.6875 5.00389 15.7989 4.91402 15.9461 4.8818C16.0796 4.8526 16.2236 4.87457 16.3659 4.92017C17.2256 5.19569 17.6897 5.63786 17.8764 5.96392C23.4205 6.09811 35.3581 8.0449 45.1562 15.0206C45.4088 14.9438 45.7549 14.8686 46.1008 14.8542C46.4925 14.8379 46.9654 14.8964 47.2595 15.2175C47.4417 15.4164 47.4565 15.6655 47.4047 15.8855C47.354 16.1004 47.2346 16.3191 47.0971 16.5185C46.853 16.8726 46.5138 17.2196 46.2438 17.461C46.5475 19.8307 45.9908 25.8351 41.7053 32.9112Z" fill="#1A468D"></path>
</svg>