<svg width="65" height="57" viewBox="0 0 65 57" fill="none" xmlns="http://www.w3.org/2000/svg"><path d="M11.2431 15.3707C12.713 12.9635 13.4269 11.9575 14.8813 11.1266L19.4632 8.44707L20.1805 8.19884L28.7863 6.5185L29.597 6.46838L34.4805 6.92111C35.8868 7.15133 37.4268 6.97684 39.6032 8.31873C41.5504 9.51931 43.9999 10.5733 46.2554 12.3204C46.2628 12.449 46.268 12.5742 46.2707 12.696C46.2691 12.5954 46.8279 13.1341 47.1075 13.4161C47.2804 16.916 44.6469 17.8088 44.3018 18.0024C44.0257 18.1573 43.4576 17.8183 43.208 17.6294C43.024 17.7349 42.8321 17.8413 42.6324 17.9498C40.333 16.6319 39.0625 14.9617 38.6399 16.4577C38.4678 17.0668 38.9985 19.2668 39.7974 22.0147C42.2119 20.5245 50.9699 19.1661 55.0471 18.6732C57.6694 24.6496 63.0288 37.5624 63.4875 41.4023C63.5357 41.8061 63.5186 42.172 63.4479 42.5016C63.8643 43.439 64.0127 44.0286 64.0349 44.2062C62.8341 46.4417 59.5771 46.5319 59.0172 46.4594C58.5692 46.4013 58.2325 45.2359 58.1201 44.6605C57.7616 44.516 57.4677 44.3175 57.2772 44.0703C55.6919 39.057 52.1675 28.8953 50.0512 28.4919C47.9348 28.0886 47.8573 39.9063 48.0831 45.8655C47.9704 46.1265 47.7986 46.3705 47.5819 46.5922C47.591 47.3845 47.3361 48.1285 47.2074 48.4015C44.502 50.3851 42.5827 48.9406 42.1743 48.6565C41.8477 48.4292 41.8329 47.5104 41.8664 47.0794C41.5073 46.7572 41.2243 46.3296 41.0563 45.7822L40.5125 38.3386C32.7651 42.7638 20.9218 41.7204 20.4468 41.5908C20.0154 41.4731 19.8516 40.2858 19.8237 39.7069C19.5121 39.5297 19.2944 39.3151 19.1869 39.0604C18.4005 33.072 16.6065 21.1385 15.7213 21.3113C14.8361 21.4841 14.1578 23.762 13.0946 24.8531L13.036 24.8507C12.8779 24.8445 12.7261 24.8384 12.5799 24.8319C12.5582 25.2437 12.1577 25.5018 11.9601 25.5794C9.40211 26.2051 7.60302 23.5275 7.48433 22.9196C7.38938 22.4333 7.79266 22.0601 8.00616 21.9343C7.90407 21.756 7.79929 21.5664 7.69125 21.3648C8.50636 19.4388 9.77316 17.7779 11.2431 15.3707Z" fill="#F9DBD2"></path><path fill-rule="evenodd" clip-rule="evenodd" d="M20.09 7.93728C20.1022 7.93304 20.1148 7.92967 20.1275 7.92719L28.7333 6.24685C28.7451 6.24453 28.7571 6.24299 28.7692 6.24225L29.5799 6.19213C29.5941 6.19125 29.6083 6.19147 29.6225 6.19278L34.506 6.64551C34.5124 6.6461 34.5188 6.64692 34.5252 6.64796C34.8188 6.69603 35.1261 6.72578 35.4504 6.75717C36.6149 6.86988 37.9977 7.00373 39.7484 8.08312C40.412 8.49227 41.1307 8.88213 41.8879 9.29287C42.2338 9.48049 42.5877 9.67248 42.948 9.87264C44.0901 10.507 45.2806 11.2153 46.4248 12.1016C46.4881 12.1505 46.527 12.2245 46.5316 12.3043C46.5357 12.3757 46.5392 12.4461 46.5419 12.5156C46.6082 12.5653 46.6884 12.6344 46.7689 12.707C46.9488 12.8692 47.1624 13.0784 47.3039 13.2211C47.352 13.2696 47.3804 13.3341 47.3838 13.4023C47.4743 15.2335 46.8273 16.4064 46.0952 17.1439C45.4887 17.755 44.8134 18.0675 44.542 18.1931C44.4929 18.2159 44.4571 18.2325 44.4372 18.2436C44.2953 18.3232 44.1396 18.3273 44.0125 18.3101C43.8828 18.2926 43.7527 18.249 43.636 18.199C43.4751 18.1301 43.3189 18.0399 43.1923 17.9564C43.0536 18.0346 42.9109 18.1132 42.7645 18.1928C42.6801 18.2386 42.5781 18.2374 42.4948 18.1897C41.9081 17.8535 41.3889 17.4958 40.9379 17.1758C40.8491 17.1129 40.7635 17.0518 40.6808 16.9928C40.3378 16.7479 40.0453 16.5391 39.7898 16.3856C39.6328 16.2912 39.5009 16.2248 39.3902 16.1856C39.2785 16.146 39.2063 16.1407 39.1609 16.1477C39.11 16.1556 39.0019 16.1936 38.9061 16.5328C38.8792 16.6279 38.8727 16.8312 38.9107 17.1652C38.9472 17.4869 39.0203 17.8947 39.1248 18.3752C39.3167 19.2567 39.6108 20.3654 39.9663 21.6027C40.606 21.2733 41.5082 20.9601 42.5504 20.6668C43.7847 20.3194 45.2412 19.9928 46.7456 19.6983C49.7547 19.1093 52.9703 18.6455 55.0139 18.3984C55.135 18.3838 55.2514 18.4502 55.3005 18.5619C56.6128 21.5528 58.6099 26.279 60.3367 30.739C61.2 32.9688 61.9967 35.1345 62.6067 36.9847C63.2144 38.8281 63.6439 40.3789 63.7622 41.3694C63.8095 41.7654 63.7985 42.1322 63.7363 42.4698C64.1306 43.3715 64.2831 43.9609 64.3095 44.1717C64.3166 44.2287 64.3058 44.2864 64.2787 44.337C63.6277 45.549 62.4296 46.1618 61.3611 46.4644C60.2939 46.7667 59.3019 46.7752 58.9816 46.7336C58.7583 46.7047 58.5945 46.5476 58.4837 46.4023C58.367 46.2491 58.2687 46.0556 58.1874 45.8601C58.0483 45.5261 57.9431 45.1476 57.8787 44.8576C57.5481 44.7057 57.26 44.5012 57.058 44.2391C57.0383 44.2134 57.0232 44.1845 57.0134 44.1536C56.2217 41.65 54.9471 37.8653 53.608 34.6589C52.9379 33.0546 52.2555 31.6042 51.6129 30.5335C51.2913 29.9976 50.985 29.566 50.7012 29.2594C50.4105 28.9454 50.1747 28.7971 49.9994 28.7636C49.8909 28.743 49.7534 28.7801 49.5775 29.0352C49.4007 29.2916 49.2348 29.7063 49.0866 30.2688C48.7921 31.3871 48.5924 32.9915 48.4649 34.812C48.2101 38.4472 48.2469 42.8805 48.3596 45.8549C48.3612 45.8962 48.3535 45.9373 48.3371 45.9751C48.2233 46.2387 48.0587 46.4821 47.8582 46.7024C47.8444 47.5025 47.5931 48.2319 47.4577 48.5193C47.438 48.561 47.4082 48.5972 47.371 48.6245C45.9608 49.6585 44.7293 49.8139 43.7828 49.652C42.894 49.4999 42.2842 49.0716 42.05 48.9071C42.0377 48.8985 42.0265 48.8906 42.0163 48.8835C41.8674 48.78 41.7796 48.6185 41.7246 48.4718C41.6676 48.3198 41.6326 48.1473 41.6109 47.9797C41.5753 47.7041 41.5724 47.4139 41.5824 47.192C41.2324 46.8477 40.9587 46.407 40.7918 45.8632C40.7857 45.8434 40.7819 45.8229 40.7804 45.8023L40.2682 38.7907C36.4055 40.876 31.6468 41.6804 27.7716 41.9487C25.766 42.0875 23.9891 42.0832 22.683 42.036C22.0298 42.0124 21.4936 41.9781 21.1044 41.9454C20.91 41.9291 20.7513 41.9131 20.6325 41.8989C20.5227 41.8858 20.4271 41.8722 20.374 41.8577C20.1573 41.7986 20.018 41.621 19.9298 41.463C19.8368 41.2965 19.7679 41.0931 19.7159 40.8904C19.6274 40.5449 19.5782 40.1606 19.5565 39.8679C19.2741 39.684 19.0527 39.454 18.932 39.1678C18.9224 39.1449 18.9158 39.1209 18.9126 39.0963C18.5197 36.1043 17.8752 31.6283 17.2187 27.9235C16.8903 26.0701 16.5599 24.4158 16.2577 23.2382C16.106 22.6475 15.9643 22.1881 15.8371 21.8859C15.7809 21.7524 15.7328 21.6627 15.6954 21.6084C15.5879 21.6564 15.4579 21.764 15.3027 21.9573C15.1134 22.1931 14.922 22.5104 14.7153 22.8744C14.6602 22.9715 14.604 23.072 14.5466 23.1746C14.1862 23.8188 13.7789 24.5472 13.2927 25.0461C13.238 25.1023 13.1619 25.1326 13.0836 25.1294L13.025 25.1271C12.949 25.1241 12.8742 25.1211 12.8007 25.1181C12.7394 25.2863 12.6362 25.4234 12.5302 25.5279C12.3728 25.683 12.1904 25.7861 12.0613 25.8368C12.0497 25.8414 12.0379 25.8451 12.0258 25.8481C10.6302 26.1894 9.45223 25.6236 8.62821 24.9227C8.21542 24.5716 7.88361 24.1808 7.64625 23.8366C7.4163 23.5032 7.25385 23.1829 7.21277 22.9725C7.14717 22.6366 7.25695 22.3473 7.40087 22.136C7.4748 22.0274 7.56087 21.9343 7.6457 21.8586C7.58067 21.7418 7.5146 21.6208 7.44737 21.4954C7.40784 21.4216 7.40382 21.3339 7.43644 21.2568C7.8527 20.2733 8.3825 19.3617 8.98745 18.4007C9.22058 18.0303 9.46315 17.6552 9.71496 17.2658C10.1218 16.6367 10.5527 15.9703 11.0069 15.2264C12.4749 12.8223 13.2206 11.7569 14.7428 10.887C14.7432 10.8867 14.7437 10.8865 14.7441 10.8863L19.3235 8.20814C19.3391 8.199 19.3556 8.19143 19.3727 8.18551L20.09 7.93728ZM7.93122 22.3543C7.90566 22.383 7.88092 22.4142 7.85826 22.4474C7.77091 22.5757 7.72652 22.7162 7.75587 22.8665C7.77414 22.9601 7.88108 23.2024 8.10178 23.5225C8.31507 23.8317 8.61516 24.1852 8.98673 24.5012C9.72721 25.1311 10.7206 25.5896 11.8746 25.3153C11.9442 25.2853 12.0511 25.2231 12.1417 25.1338C12.1566 25.1191 12.1706 25.1042 12.1837 25.089C11.2878 25.0374 10.5641 24.9361 9.90452 24.5644C9.20699 24.1713 8.61263 23.4954 7.93122 22.3543ZM15.6546 21.5593C15.6546 21.559 15.6566 21.5604 15.6605 21.5645C15.6566 21.5617 15.6546 21.5597 15.6546 21.5593ZM20.1422 40.1597C20.1672 40.3544 20.2031 40.5623 20.252 40.7531C20.2984 40.9342 20.353 41.0859 20.4129 41.1932C20.475 41.3045 20.5171 41.3227 20.5195 41.3238C20.5196 41.3238 20.5196 41.3238 20.5195 41.3238C20.5192 41.3237 20.5195 41.3238 20.5203 41.3239C20.5236 41.3246 20.5373 41.3275 20.5663 41.3319C20.5987 41.3369 20.6426 41.3428 20.6981 41.3495C20.8087 41.3627 20.9608 41.378 21.1508 41.394C21.5305 41.4259 22.0579 41.4597 22.7029 41.483C23.9931 41.5296 25.7503 41.5339 27.7334 41.3966C31.7068 41.1216 36.5553 40.2802 40.3753 38.0983C41.4069 37.509 42.3615 36.8231 43.2031 36.026C43.224 36.0061 43.2479 35.9897 43.2739 35.9772C43.2775 35.9734 43.3216 35.9344 43.3383 35.7946C43.3523 35.6778 43.3438 35.5026 43.2773 35.2554C42.394 36.1589 40.8739 36.987 39.0569 37.7068C36.9771 38.5307 34.4554 39.2326 31.9172 39.7442C29.3787 40.2558 26.8145 40.5789 24.6481 40.6417C23.5651 40.6731 22.5762 40.6397 21.7369 40.5304C21.1287 40.4512 20.5874 40.3308 20.1422 40.1597ZM43.6949 34.7538C43.8719 35.2214 43.9208 35.584 43.8878 35.8603C43.8549 36.1349 43.7342 36.3505 43.5554 36.4544C42.7262 37.2353 41.7968 37.9095 40.8011 38.4913L41.3299 45.7301C41.4845 46.2166 41.7368 46.5913 42.0512 46.8733C42.7347 47.4866 43.75 47.6918 44.7782 47.5702C45.8062 47.4486 46.7904 47.0059 47.384 46.3987C47.5651 46.2134 47.707 46.0158 47.8042 45.8107C47.693 42.8265 47.6581 38.4094 47.9128 34.7733C48.041 32.9449 48.2433 31.2981 48.5515 30.1278C48.7047 29.546 48.8903 29.0571 49.1219 28.7211C49.3545 28.3838 49.6823 28.1399 50.1029 28.2201C50.4567 28.2875 50.7939 28.545 51.1073 28.8835C51.4275 29.2294 51.7562 29.6969 52.0873 30.2488C52.7503 31.3535 53.4449 32.8325 54.1186 34.4457C55.4583 37.6532 56.7306 41.4273 57.5253 43.9373C57.6783 44.1189 57.9148 44.2794 58.2235 44.4037C59.0043 44.7181 60.1455 44.7595 61.1495 44.441C62.149 44.124 62.957 43.4717 63.1774 42.4435C63.2411 42.1464 63.2577 41.8114 63.2127 41.4351C63.1017 40.5057 62.6892 39.0024 62.0812 37.1579C61.4753 35.3202 60.6823 33.1642 59.8206 30.9388C58.2354 26.8444 56.4211 22.5233 55.1209 19.5333C55.0626 19.6039 54.9966 19.6708 54.9251 19.7342C54.5773 20.0429 54.0398 20.3231 53.3972 20.5775C52.1042 21.0895 50.2837 21.5362 48.4032 21.8838C46.5194 22.232 44.56 22.4836 42.9821 22.6013C42.1935 22.6601 41.4956 22.6859 40.9476 22.6728C40.6882 22.6666 40.458 22.6516 40.2655 22.6262C40.9765 25.0222 41.8525 27.744 42.6328 30.1685C43.1187 31.6783 43.5675 33.0728 43.9163 34.2016C43.9371 34.269 43.9314 34.3418 43.9004 34.4051C43.8423 34.5234 43.7735 34.6397 43.6949 34.7538ZM39.502 21.9896C39.4801 22.0575 39.4736 22.1362 39.4997 22.221C39.5248 22.3029 39.5729 22.364 39.6245 22.4093C40.3551 24.8974 41.2881 27.7964 42.1112 30.3542C42.5804 31.8122 43.0139 33.1592 43.3539 34.256C43.3004 34.3518 43.2363 34.4489 43.1615 34.547C42.462 35.4651 40.9102 36.3774 38.8531 37.1924C36.8114 38.0012 34.323 38.6948 31.8078 39.2017C29.2928 39.7086 26.7604 40.0269 24.632 40.0886C23.5677 40.1195 22.6098 40.086 21.8083 39.9817C21.0019 39.8767 20.376 39.7025 19.9604 39.4662C19.6978 39.3169 19.5373 39.1534 19.456 38.984C19.062 35.9878 18.4191 31.5263 17.7636 27.827C17.4346 25.9702 17.1013 24.2992 16.7936 23.1007C16.6403 22.5034 16.4905 22.0121 16.3471 21.6713C16.2764 21.5032 16.2001 21.3543 16.1156 21.246C16.0457 21.1565 15.892 20.996 15.6683 21.0396C15.3464 21.1025 15.0852 21.3444 14.8712 21.6109C14.6511 21.8849 14.4406 22.2376 14.2341 22.6011C14.1753 22.7048 14.1166 22.8093 14.058 22.914C13.7167 23.5228 13.3743 24.1336 12.9792 24.5715C12.8454 24.5662 12.7167 24.561 12.5922 24.5554C11.5049 24.507 10.7979 24.4327 10.1762 24.0823C9.55646 23.7331 8.98486 23.0868 8.24626 21.7967C8.16553 21.6557 8.08295 21.5073 7.99821 21.351C8.38909 20.454 8.88188 19.6071 9.45575 18.6955C9.68125 18.3373 9.92101 17.9664 10.1718 17.5785C10.5826 16.943 11.0231 16.2617 11.4792 15.5148C12.9506 13.1051 13.6328 12.1584 15.0185 11.3667L19.3799 8.81618C19.8135 9.41432 20.5736 10.1795 21.5461 10.7685C22.6462 11.4349 24.0441 11.891 25.5656 11.5939C27.4836 11.2194 28.5306 10.3115 29.1105 9.28883C29.6114 8.40546 29.751 7.45413 29.8379 6.76849L34.4454 7.19562C34.7769 7.24948 35.1074 7.28186 35.4448 7.31493C36.595 7.42763 37.8266 7.54831 39.458 8.55415C40.135 8.97153 40.8759 9.37348 41.6404 9.78823C41.9832 9.97419 42.3307 10.1627 42.6793 10.3564C43.7786 10.967 44.9049 11.6367 45.9857 12.462C45.9895 12.5436 45.9923 12.6237 45.9941 12.7022C46.0239 14.0048 45.7805 14.8803 45.307 15.569C44.8279 16.2658 44.0926 16.803 43.0703 17.3893C42.9307 17.4693 42.7862 17.5501 42.6366 17.6321C42.1274 17.3321 41.6695 17.0164 41.258 16.7245C41.1743 16.6651 41.0921 16.6064 41.0115 16.5488C40.6668 16.3027 40.351 16.0772 40.0748 15.9113C39.903 15.808 39.7352 15.7207 39.5749 15.664C39.4156 15.6075 39.2455 15.5746 39.0763 15.6008C38.6983 15.6593 38.4891 15.9736 38.3736 16.3824C38.3144 16.5918 38.3227 16.8919 38.3609 17.2276C38.4004 17.5756 38.4777 18.0038 38.5841 18.4929C38.7919 19.4475 39.1151 20.6543 39.502 21.9896ZM40.2717 22.0681C40.2845 22.0701 40.2976 22.0721 40.3113 22.074C40.4811 22.0979 40.6991 22.1133 40.9608 22.1196C41.4838 22.1321 42.1621 22.1076 42.9409 22.0495C44.4975 21.9333 46.4371 21.6845 48.3026 21.3396C50.1713 20.9942 51.9505 20.5552 53.1935 20.063C53.819 19.8154 54.2836 19.5637 54.5578 19.3204C54.6938 19.1996 54.7672 19.0946 54.7991 19.0092C54.8026 18.9997 54.8057 18.9904 54.8084 18.9811C52.7685 19.2341 49.7145 19.681 46.8519 20.2414C45.3553 20.5344 43.9148 20.8576 42.7004 21.1994C41.6893 21.484 40.8524 21.7769 40.2717 22.0681ZM46.5434 13.252C46.5002 14.3488 46.2423 15.1853 45.763 15.8825C45.2823 16.5816 44.5942 17.1174 43.74 17.6368C43.7777 17.656 43.8159 17.6741 43.8539 17.6904C43.9449 17.7294 44.0243 17.7533 44.0865 17.7617C44.1461 17.7698 44.1669 17.7606 44.1669 17.7607C44.1669 17.7608 44.1672 17.7606 44.1669 17.7607C44.208 17.7377 44.2656 17.7106 44.337 17.6769C44.6393 17.5344 45.1819 17.2785 45.7025 16.7541C46.3168 16.1353 46.8887 15.1417 46.8355 13.5352C46.7476 13.4478 46.6442 13.347 46.5434 13.252ZM29.2802 6.76507L28.9846 6.78335C28.5595 7.90176 27.6523 9.27705 26.2097 9.92424C24.6868 10.6074 22.6565 10.4422 20.1296 8.50915L19.9003 8.58849C20.3005 9.11134 20.9751 9.77569 21.8328 10.2952C22.856 10.915 24.1136 11.3136 25.4596 11.0508C27.2298 10.7051 28.1342 9.88878 28.6292 9.0159C29.0603 8.25551 29.1932 7.43433 29.2802 6.76507ZM20.8472 8.35046C23.0787 9.92789 24.7707 9.96331 25.9832 9.41936C27.1265 8.90646 27.9131 7.84941 28.3433 6.88679L20.8472 8.35046ZM42.1354 47.6217C42.1398 47.7172 42.1475 47.8145 42.1597 47.9088C42.1784 48.0532 42.2062 48.18 42.2428 48.2776C42.2814 48.3806 42.3179 48.4192 42.3324 48.4293C42.3421 48.4361 42.3527 48.4435 42.364 48.4514C42.5881 48.6086 43.1119 48.9758 43.8761 49.1066C44.6557 49.2399 45.7159 49.1313 46.985 48.2209C47.0685 48.0243 47.1911 47.6575 47.2578 47.2264C46.5862 47.6994 45.719 48.0161 44.8432 48.1197C43.908 48.2303 42.924 48.1018 42.1354 47.6217ZM58.5033 45.0736C58.5564 45.2635 58.6222 45.4649 58.6982 45.6475C58.7711 45.8225 58.848 45.9673 58.9239 46.0669C58.9614 46.1162 58.9937 46.1477 59.0188 46.1662C59.0432 46.1842 59.0542 46.1851 59.0527 46.1849C59.2924 46.2159 60.2088 46.2156 61.2103 45.932C62.1835 45.6564 63.1857 45.1282 63.7456 44.1571C63.7136 44.0051 63.632 43.7069 63.4679 43.2742C63.0321 44.1385 62.2089 44.6855 61.3168 44.9685C60.3907 45.2623 59.3521 45.2861 58.5033 45.0736Z" fill="#F9DBD2"></path><path fill-rule="evenodd" clip-rule="evenodd" d="M15.3541 8.84731C15.3663 8.84308 15.3789 8.83971 15.3916 8.83722L23.9974 7.15688C24.0092 7.15456 24.0212 7.15303 24.0333 7.15228L24.844 7.10216C24.8582 7.10129 24.8724 7.1015 24.8866 7.10282L29.7701 7.55554C29.7765 7.55614 29.7829 7.55696 29.7893 7.558C30.0829 7.60607 30.3902 7.63581 30.7145 7.6672C31.879 7.77991 33.2618 7.91376 35.0125 8.99315C35.6761 9.4023 36.3948 9.79216 37.152 10.2029C37.4979 10.3905 37.8518 10.5825 38.2121 10.7827C39.3542 11.4171 40.5447 12.1253 41.6889 13.0116C41.7522 13.0606 41.7911 13.1345 41.7957 13.2144C41.7998 13.2857 41.8033 13.3562 41.806 13.4256C41.8723 13.4753 41.9525 13.5444 42.033 13.6171C42.2129 13.7793 42.4265 13.9884 42.568 14.1312C42.6161 14.1796 42.6445 14.2442 42.6479 14.3123C42.7384 16.1436 42.0914 17.3165 41.3593 18.054C40.7528 18.665 40.0775 18.9775 39.8061 19.1032C39.757 19.1259 39.7212 19.1425 39.7013 19.1537C39.5594 19.2332 39.4037 19.2373 39.2766 19.2201C39.1469 19.2026 39.0168 19.1591 38.9001 19.1091C38.7392 19.0401 38.583 18.9499 38.4564 18.8665C38.3177 18.9446 38.175 19.0233 38.0286 19.1028C37.9442 19.1486 37.8422 19.1475 37.7589 19.0998C37.1722 18.7635 36.653 18.4058 36.202 18.0859C36.1132 18.0229 36.0276 17.9618 35.945 17.9028C35.6019 17.6579 35.3094 17.4491 35.0539 17.2956C34.8969 17.2012 34.765 17.1348 34.6543 17.0956C34.5426 17.0561 34.4704 17.0507 34.425 17.0577C34.3741 17.0656 34.266 17.1036 34.1702 17.4428C34.1433 17.5379 34.1368 17.7412 34.1748 18.0752C34.2113 18.3969 34.2844 18.8047 34.3889 19.2852C34.5808 20.1668 34.8749 21.2754 35.2304 22.5127C35.8701 22.1833 36.7723 21.8702 37.8145 21.5768C39.0488 21.2294 40.5053 20.9029 42.0097 20.6084C45.0188 20.0193 48.2344 19.5555 50.278 19.3085C50.3991 19.2938 50.5155 19.3602 50.5646 19.472C51.8769 22.4629 53.874 27.1891 55.6008 31.649C56.4641 33.8788 57.2608 36.0445 57.8708 37.8947C58.4785 39.7381 58.908 41.2889 59.0263 42.2795C59.0736 42.6754 59.0626 43.0422 59.0004 43.3799C59.3947 44.2815 59.5472 44.8709 59.5736 45.0818C59.5807 45.1387 59.5699 45.1965 59.5428 45.247C58.8918 46.459 57.6937 47.0719 56.6252 47.3745C55.558 47.6767 54.566 47.6852 54.2457 47.6437C54.0224 47.6147 53.8586 47.4576 53.7478 47.3123C53.6311 47.1591 53.5328 46.9657 53.4515 46.7702C53.3124 46.4361 53.2072 46.0576 53.1428 45.7676C52.8122 45.6158 52.5241 45.4112 52.3221 45.1491C52.3024 45.1235 52.2873 45.0945 52.2775 45.0637C51.4858 42.56 50.2112 38.7753 48.8721 35.569C48.202 33.9646 47.5196 32.5142 46.877 31.4435C46.5554 30.9077 46.2491 30.476 45.9653 30.1694C45.6746 29.8554 45.4388 29.7071 45.2635 29.6737C45.1551 29.653 45.0175 29.6902 44.8416 29.9452C44.6648 30.2016 44.4989 30.6163 44.3507 31.1788C44.0562 32.2971 43.8565 33.9016 43.729 35.722C43.4742 39.3572 43.511 43.7905 43.6237 46.765C43.6253 46.8062 43.6176 46.8473 43.6012 46.8852C43.4874 47.1487 43.3229 47.3921 43.1223 47.6124C43.1085 48.4125 42.8572 49.142 42.7218 49.4293C42.7021 49.4711 42.6723 49.5072 42.6351 49.5345C41.2249 50.5685 39.9934 50.7239 39.0469 50.562C38.1581 50.41 37.5483 49.9817 37.3141 49.8171C37.3018 49.8085 37.2906 49.8007 37.2804 49.7936C37.1315 49.69 37.0437 49.5285 36.9887 49.3819C36.9317 49.2298 36.8967 49.0573 36.875 48.8898C36.8394 48.6141 36.8365 48.3239 36.8465 48.1021C36.4965 47.7578 36.2228 47.317 36.0559 46.7733C36.0498 46.7534 36.046 46.733 36.0445 46.7123L35.5323 39.7007C31.6696 41.786 26.9109 42.5905 23.0357 42.8587C21.0301 42.9975 19.2532 42.9933 17.9471 42.9461C17.2939 42.9225 16.7577 42.8881 16.3685 42.8555C16.1741 42.8391 16.0154 42.8231 15.8966 42.809C15.7868 42.7959 15.6912 42.7822 15.6381 42.7677C15.4214 42.7086 15.2821 42.5311 15.1939 42.3731C15.1009 42.2065 15.032 42.0032 14.98 41.8004C14.8915 41.4549 14.8423 41.0707 14.8206 40.778C14.5382 40.5941 14.3168 40.3641 14.1961 40.0778C14.1865 40.055 14.1799 40.0309 14.1767 40.0063C13.7838 37.0144 13.1393 32.5383 12.4828 28.8336C12.1544 26.9801 11.824 25.3258 11.5218 24.1483C11.3701 23.5575 11.2284 23.0981 11.1012 22.796C11.045 22.6625 10.9969 22.5727 10.9595 22.5184C10.852 22.5664 10.722 22.6741 10.5668 22.8674C10.3775 23.1031 10.1861 23.4205 9.97939 23.7844C9.92426 23.8815 9.86806 23.982 9.81067 24.0846C9.45033 24.7289 9.04295 25.4573 8.5568 25.9561C8.50205 26.0123 8.42603 26.0426 8.34765 26.0395L8.2891 26.0371C8.21307 26.0341 8.13831 26.0311 8.06482 26.0281C8.00351 26.1964 7.90033 26.3334 7.79427 26.438C7.63695 26.593 7.45455 26.6961 7.32536 26.7469C7.31382 26.7514 7.30198 26.7551 7.28994 26.7581C5.89434 27.0995 4.71633 26.5337 3.8923 25.8328C3.47952 25.4817 3.14771 25.0908 2.91035 24.7466C2.6804 24.4132 2.51795 24.093 2.47687 23.8826C2.41127 23.5466 2.52105 23.2574 2.66497 23.046C2.7389 22.9374 2.82497 22.8443 2.9098 22.7686C2.84477 22.6519 2.7787 22.5309 2.71146 22.4054C2.67194 22.3316 2.66792 22.2439 2.70053 22.1669C3.1168 21.1833 3.6466 20.2718 4.25155 19.3107C4.48468 18.9404 4.72725 18.5653 4.97906 18.1758C5.38587 17.5467 5.8168 16.8803 6.27101 16.1364C7.73901 13.7323 8.48472 12.667 10.0069 11.797C10.0073 11.7968 10.0078 11.7965 10.0082 11.7963L14.5876 9.11817C14.6032 9.10904 14.6197 9.10146 14.6368 9.09554L15.3541 8.84731ZM3.19532 23.2644C3.16976 23.2931 3.14502 23.3242 3.12236 23.3575C3.03501 23.4857 2.99062 23.6262 3.01997 23.7765C3.03824 23.8701 3.14518 24.1125 3.36588 24.4325C3.57917 24.7418 3.87926 25.0952 4.25083 25.4113C4.99131 26.0411 5.98474 26.4997 7.13874 26.2253C7.20832 26.1953 7.31519 26.1332 7.40584 26.0438C7.42073 26.0292 7.43473 26.0142 7.44779 25.999C6.55191 25.9474 5.82823 25.8461 5.16862 25.4744C4.47109 25.0813 3.87673 24.4054 3.19532 23.2644ZM10.9187 22.4694C10.9187 22.4691 10.9207 22.4705 10.9246 22.4745C10.9207 22.4717 10.9187 22.4697 10.9187 22.4694ZM15.4063 41.0697C15.4313 41.2644 15.4672 41.4724 15.5161 41.6631C15.5625 41.8443 15.6171 41.996 15.677 42.1033C15.7391 42.2145 15.7812 42.2328 15.7836 42.2338C15.7837 42.2339 15.7837 42.2338 15.7836 42.2338C15.7833 42.2337 15.7836 42.2338 15.7844 42.234C15.7877 42.2347 15.8014 42.2375 15.8304 42.242C15.8628 42.247 15.9067 42.2529 15.9622 42.2595C16.0728 42.2727 16.2249 42.2881 16.4149 42.304C16.7946 42.3359 17.322 42.3698 17.967 42.3931C19.2572 42.4397 21.0144 42.444 22.9975 42.3067C26.9709 42.0316 31.8194 41.1902 35.6394 39.0083C36.671 38.419 37.6256 37.7332 38.4672 36.936C38.4881 36.9162 38.512 36.8997 38.538 36.8873C38.5416 36.8835 38.5857 36.8444 38.6024 36.7046C38.6164 36.5879 38.6079 36.4127 38.5414 36.1654C37.6581 37.069 36.138 37.8971 34.321 38.6169C32.2412 39.4408 29.7195 40.1426 27.1813 40.6542C24.6428 41.1658 22.0786 41.4889 19.9122 41.5518C18.8292 41.5832 17.8403 41.5497 17.001 41.4404C16.3928 41.3612 15.8515 41.2408 15.4063 41.0697ZM38.959 35.6639C39.136 36.1315 39.1849 36.4941 39.1519 36.7703C39.119 37.0449 38.9983 37.2605 38.8195 37.3644C37.9903 38.1453 37.0609 38.8196 36.0652 39.4014L36.5941 46.6401C36.7486 47.1267 37.0009 47.5013 37.3153 47.7834C37.9988 48.3967 39.0141 48.6019 40.0423 48.4802C41.0703 48.3586 42.0545 47.916 42.6481 47.3087C42.8292 47.1235 42.9711 46.9259 43.0683 46.7208C42.9571 43.7366 42.9222 39.3194 43.1769 35.6834C43.3051 33.8549 43.5074 32.2081 43.8156 31.0379C43.9688 30.456 44.1544 29.9671 44.386 29.6311C44.6186 29.2938 44.9464 29.0499 45.367 29.1301C45.7208 29.1975 46.058 29.455 46.3714 29.7935C46.6916 30.1394 47.0203 30.607 47.3514 31.1588C48.0144 32.2635 48.709 33.7425 49.3827 35.3557C50.7224 38.5632 51.9947 42.3373 52.7894 44.8473C52.9424 45.0289 53.1789 45.1894 53.4876 45.3137C54.2684 45.6282 55.4096 45.6695 56.4136 45.3511C57.4131 45.0341 58.2211 44.3817 58.4415 43.3535C58.5052 43.0564 58.5218 42.7214 58.4768 42.3451C58.3658 41.4157 57.9534 39.9124 57.3453 38.068C56.7394 36.2302 55.9464 34.0742 55.0847 31.8488C53.4995 27.7544 51.6852 23.4333 50.385 20.4433C50.3267 20.5139 50.2607 20.5808 50.1892 20.6442C49.8414 20.953 49.3039 21.2331 48.6613 21.4875C47.3683 21.9995 45.5478 22.4462 43.6673 22.7938C41.7835 23.142 39.8241 23.3936 38.2462 23.5113C37.4576 23.5702 36.7597 23.5959 36.2117 23.5828C35.9523 23.5766 35.7221 23.5616 35.5296 23.5362C36.2406 25.9322 37.1166 28.654 37.8969 31.0786C38.3828 32.5884 38.8316 33.9829 39.1804 35.1116C39.2012 35.179 39.1955 35.2518 39.1645 35.3152C39.1064 35.4335 39.0376 35.5497 38.959 35.6639ZM34.7661 22.8996C34.7442 22.9676 34.7377 23.0463 34.7638 23.1311C34.7889 23.2129 34.837 23.2741 34.8886 23.3193C35.6192 25.8074 36.5522 28.7065 37.3753 31.2642C37.8445 32.7222 38.278 34.0692 38.618 35.1661C38.5645 35.2619 38.5004 35.3589 38.4256 35.457C37.7261 36.3752 36.1743 37.2875 34.1172 38.1024C32.0755 38.9112 29.5871 39.6048 27.0719 40.1117C24.5569 40.6186 22.0245 40.9369 19.8961 40.9986C18.8318 41.0295 17.8739 40.9961 17.0724 40.8917C16.266 40.7867 15.6401 40.6125 15.2245 40.3763C14.9619 40.227 14.8014 40.0634 14.7201 39.8941C14.3261 36.8978 13.6832 32.4364 13.0277 28.737C12.6987 26.8802 12.3654 25.2092 12.0577 24.0107C11.9044 23.4135 11.7546 22.9221 11.6112 22.5813C11.5405 22.4133 11.4642 22.2644 11.3797 22.156C11.3098 22.0666 11.1561 21.906 10.9324 21.9497C10.6105 22.0125 10.3493 22.2544 10.1353 22.5209C9.91524 22.795 9.70465 23.1477 9.49821 23.5112C9.43936 23.6148 9.38074 23.7194 9.32209 23.824C8.9808 24.4328 8.63838 25.0436 8.24331 25.4815C8.10954 25.4762 7.9808 25.471 7.85631 25.4654C6.76904 25.4171 6.062 25.3427 5.4403 24.9923C4.82056 24.6431 4.24896 23.9968 3.51036 22.7068C3.42963 22.5658 3.34705 22.4173 3.2623 22.2611C3.65319 21.364 4.14598 20.5172 4.71985 19.6055C4.94535 19.2473 5.18511 18.8764 5.43591 18.4885C5.84673 17.8531 6.2872 17.1718 6.74329 16.4248C8.2147 14.0151 8.89694 13.0684 10.2826 12.2768L14.644 9.72622C15.0776 10.3244 15.8377 11.0895 16.8102 11.6785C17.9103 12.3449 19.3082 12.801 20.8297 12.5039C22.7477 12.1294 23.7947 11.2216 24.3746 10.1989C24.8755 9.31549 25.0151 8.36416 25.102 7.67852L29.7095 8.10566C30.041 8.15951 30.3715 8.19189 30.7089 8.22496C31.8591 8.33766 33.0907 8.45835 34.7221 9.46418C35.3991 9.88156 36.14 10.2835 36.9045 10.6983C37.2473 10.8842 37.5948 11.0728 37.9434 11.2664C39.0427 11.877 40.169 12.5467 41.2498 13.372C41.2536 13.4537 41.2564 13.5337 41.2582 13.6123C41.288 14.9149 41.0446 15.7903 40.5711 16.479C40.092 17.1758 39.3567 17.7131 38.3344 18.2993C38.1948 18.3794 38.0503 18.4601 37.9007 18.5422C37.3915 18.2421 36.9336 17.9264 36.5221 17.6345C36.4384 17.5752 36.3562 17.5165 36.2756 17.4589C35.9309 17.2127 35.6151 16.9872 35.3389 16.8213C35.1671 16.718 34.9993 16.6308 34.839 16.574C34.6797 16.5176 34.5096 16.4847 34.3404 16.5109C33.9624 16.5694 33.7532 16.8836 33.6377 17.2924C33.5785 17.5018 33.5868 17.8019 33.625 18.1377C33.6645 18.4856 33.7418 18.9138 33.8482 19.4029C34.056 20.3575 34.3792 21.5643 34.7661 22.8996ZM35.5358 22.9781C35.5486 22.9801 35.5617 22.9821 35.5754 22.984C35.7452 23.0079 35.9632 23.0234 36.2249 23.0296C36.7479 23.0421 37.4262 23.0176 38.205 22.9595C39.7616 22.8434 41.7012 22.5945 43.5667 22.2497C45.4355 21.9042 47.2146 21.4653 48.4576 20.973C49.0831 20.7254 49.5477 20.4738 49.8219 20.2304C49.9579 20.1096 50.0313 20.0046 50.0632 19.9192C50.0667 19.9098 50.0698 19.9004 50.0725 19.8911C48.0326 20.1441 44.9786 20.591 42.116 21.1514C40.6194 21.4444 39.1789 21.7677 37.9645 22.1095C36.9534 22.3941 36.1165 22.6869 35.5358 22.9781ZM41.8075 14.162C41.7643 15.2589 41.5064 16.0953 41.0271 16.7925C40.5464 17.4916 39.8583 18.0274 39.0041 18.5468C39.0418 18.566 39.08 18.5841 39.118 18.6004C39.209 18.6394 39.2884 18.6634 39.3506 18.6718C39.4102 18.6798 39.431 18.6707 39.431 18.6708C39.431 18.6708 39.4313 18.6706 39.431 18.6708C39.4721 18.6477 39.5297 18.6206 39.6011 18.5869C39.9034 18.4444 40.4461 18.1885 40.9666 17.6641C41.5809 17.0453 42.1528 16.0517 42.0996 14.4452C42.0117 14.3578 41.9083 14.2571 41.8075 14.162ZM24.5443 7.6751L24.2487 7.69338C23.8236 8.81179 22.9164 10.1871 21.4738 10.8343C19.9509 11.5174 17.9206 11.3522 15.3937 9.41918L15.1644 9.49852C15.5646 10.0214 16.2392 10.6857 17.0969 11.2052C18.1201 11.825 19.3777 12.2236 20.7237 11.9608C22.4939 11.6152 23.3983 10.7988 23.8933 9.92593C24.3244 9.16555 24.4573 8.34436 24.5443 7.6751ZM16.1113 9.2605C18.3428 10.8379 20.0348 10.8733 21.2473 10.3294C22.3906 9.8165 23.1772 8.75944 23.6074 7.79682L16.1113 9.2605ZM37.3995 48.5318C37.4039 48.6272 37.4116 48.7246 37.4238 48.8188C37.4425 48.9633 37.4703 49.09 37.5069 49.1876C37.5455 49.2907 37.582 49.3293 37.5965 49.3393C37.6062 49.3461 37.6168 49.3535 37.6281 49.3615C37.8522 49.5186 38.376 49.8859 39.1402 50.0166C39.9198 50.15 40.98 50.0413 42.2491 49.1309C42.3326 48.9343 42.4552 48.5676 42.5219 48.1365C41.8503 48.6094 40.9831 48.9261 40.1073 49.0298C39.1721 49.1404 38.1881 49.0119 37.3995 48.5318ZM53.7674 45.9836C53.8205 46.1736 53.8863 46.3749 53.9623 46.5575C54.0352 46.7326 54.1121 46.8773 54.188 46.977C54.2255 47.0262 54.2578 47.0577 54.2829 47.0762C54.3073 47.0942 54.3183 47.0951 54.3168 47.0949C54.5565 47.126 55.4729 47.1257 56.4744 46.842C57.4476 46.5664 58.4498 46.0383 59.0097 45.0671C58.9777 44.9151 58.8961 44.617 58.732 44.1843C58.2962 45.0486 57.473 45.5956 56.5809 45.8785C55.6548 46.1723 54.6162 46.1961 53.7674 45.9836Z" fill="#1A468D"></path></svg>