<svg width="48" height="39" viewBox="0 0 48 39" fill="none" xmlns="http://www.w3.org/2000/svg">
<path d="M11.9805 29.0662C10.1942 26.1777 10.7974 15.9424 11.3223 11.1857C11.4077 10.412 11.8883 9.39773 13.1979 9.08919C13.7016 8.90447 14.2428 8.70625 14.8143 8.49722C21.3798 6.09589 31.9461 2.2676 35.5793 1.07963C36.1189 0.903188 36.5056 0.784989 36.7035 0.738363C38.3498 0.350491 39.1569 1.37373 39.3547 1.93383C42.0736 9.8422 46.47 23.7533 44.4025 27.5497C42.8052 30.4825 25.8215 35.7937 22.7653 36.2876C19.9976 36.7348 19.2549 34.7981 18.9595 33.544C18.83 32.8164 18.7042 32.012 18.5801 31.1515C17.1827 31.6461 13.7669 31.9546 11.9805 29.0662Z" fill="#FFF7CE"></path>
<path d="M18.5801 31.1515C17.1827 31.6461 13.7669 31.9546 11.9805 29.0662C10.1942 26.1777 10.7974 15.9424 11.3223 11.1857C11.4077 10.412 11.8883 9.39773 13.1979 9.08919M13.1979 9.08919C13.4605 9.02733 13.7085 9.07521 13.9433 9.21989M13.1979 9.08919C13.7016 8.90447 14.2428 8.70625 14.8143 8.49722M13.9433 9.21989C13.4218 9.55008 12.365 10.5358 12.3093 11.8374C12.2537 13.1389 12.2106 20.5044 12.196 24.0244C12.2476 25.576 12.7583 28.9343 14.3891 29.9546C14.9845 30.3119 16.6277 30.8476 18.437 30.1318M13.9433 9.21989C16.3398 10.6965 17.3593 22.2564 18.437 30.1318M18.437 30.1318C18.6078 31.38 18.78 32.5357 18.9595 33.544C19.2549 34.7981 19.9976 36.7348 22.7653 36.2876C25.8215 35.7937 42.8052 30.4825 44.4025 27.5497C46.47 23.7533 42.0736 9.8422 39.3547 1.93383C39.1569 1.37373 38.3498 0.350491 36.7035 0.738363C36.5056 0.784989 36.1189 0.903188 35.5793 1.07963M14.8143 8.49722C15.6494 9.1165 17.4359 11.1955 17.9011 14.5573C18.778 20.7521 20.5317 33.1417 20.5317 33.1417C20.8711 34.1039 21.5917 35.0523 23.6879 34.9758C26.0757 34.8887 41.2657 28.8116 42.0488 28.2957C42.5736 27.95 43.7778 27.9077 43.7332 24.4981C43.6976 21.7705 39.9069 8.66464 38.016 2.45268C37.8316 1.97209 37.0862 1.02465 35.5793 1.07963M14.8143 8.49722C21.3798 6.09589 31.9461 2.2676 35.5793 1.07963" stroke="#FFF7CE" stroke-width="0.5"></path>
<path d="M12.5801 31.1515C11.1827 31.6461 7.76686 31.9546 5.98054 29.0662C4.19422 26.1777 4.7974 15.9424 5.32228 11.1857C5.40766 10.412 5.88834 9.39773 7.19791 9.08919M7.19791 9.08919C7.4605 9.02733 7.70853 9.07521 7.94333 9.21989M7.19791 9.08919C7.70158 8.90447 8.24278 8.70625 8.8143 8.49722M7.94333 9.21989C7.42184 9.55008 6.36495 10.5358 6.30933 11.8374C6.25371 13.1389 6.2106 20.5044 6.196 24.0244C6.24755 25.576 6.75834 28.9343 8.38909 29.9546C8.98451 30.3119 10.6277 30.8476 12.437 30.1318M7.94333 9.21989C10.3398 10.6965 11.3593 22.2564 12.437 30.1318M12.437 30.1318C12.6078 31.38 12.78 32.5357 12.9595 33.544C13.2549 34.7981 13.9976 36.7348 16.7653 36.2876C19.8215 35.7937 36.8052 30.4825 38.4025 27.5497C40.47 23.7533 36.0736 9.8422 33.3547 1.93383C33.1569 1.37373 32.3498 0.350491 30.7035 0.738363C30.5056 0.784989 30.1189 0.903188 29.5793 1.07963M8.8143 8.49722C9.64941 9.1165 11.4359 11.1955 11.9011 14.5573C12.778 20.7521 14.5317 33.1417 14.5317 33.1417C14.8711 34.1039 15.5917 35.0523 17.6879 34.9758C20.0757 34.8887 35.2657 28.8116 36.0488 28.2957C36.5736 27.95 37.7778 27.9077 37.7332 24.4981C37.6976 21.7705 33.9069 8.66464 32.016 2.45268C31.8316 1.97209 31.0862 1.02465 29.5793 1.07963M8.8143 8.49722C15.3798 6.09589 25.9461 2.2676 29.5793 1.07963" stroke="#1A468D" stroke-width="0.5"></path>
</svg>