<svg width="69" height="62" viewBox="0 0 69 62" fill="none" xmlns="http://www.w3.org/2000/svg"><path d="M35.173 7.99439C35.791 7.64021 40.3602 7.17697 40.3602 7.17697C42.9263 7.79825 48.1967 9.04072 48.7492 9.0404C48.7492 9.0404 53.024 11.6194 53.9343 12.124C54.8445 12.6286 64.7579 30.638 63.3048 32.7187C63.1998 32.869 63.0975 33.0069 62.9978 33.1332L63.0961 34.3328C62.1127 36.4279 60.3103 35.0141 59.9634 34.9209C59.6533 34.8376 59.4931 33.9035 59.4546 33.3546L59.4223 33.3267C59.2985 33.2196 59.173 33.111 59.0446 33.0048C57.2084 26.0522 53.3855 19.5197 52.1494 20.228C50.6043 21.1135 50.1071 23.4509 48.6733 28.7881C47.2627 34.0391 45.9864 43.4573 44.7172 54.9946C44.5199 55.2233 44.3175 55.4156 44.1123 55.5757C44.322 56.227 44.1147 56.8158 43.9848 57.0288C42.3983 58.09 40.4572 57.0108 40.1104 56.9176C39.833 56.8431 39.8908 55.8898 39.9543 55.4225C39.6292 55.1512 39.4288 54.872 39.409 54.6841C39.1476 52.1969 41.3831 33.462 39.3103 32.9051C39.1594 32.8646 39.0047 32.8869 38.8454 32.9662C36.8162 33.976 34.0596 44.233 29.4447 51.6355C29.2198 51.7644 29.0039 51.8757 28.7969 51.9707C28.5091 52.4884 27.992 53.3523 27.7987 53.6102C25.045 54.1719 24.0459 52.2302 23.7994 51.7922C23.6022 51.4418 24.2232 50.6666 24.5583 50.3228C24.4818 50.0575 24.432 49.7907 24.405 49.5379C25.6748 46.7578 27.8006 38.7038 29.3538 34.5226C31.2427 29.4378 30.9853 29.9092 32.6523 23.7039C34.249 17.7603 33.9255 15.8526 33.4859 15.7345C32.8762 15.5707 27.1859 18.998 25.6382 20.129C24.3369 21.08 22.7592 22.0867 19.9369 24.3198C19.8488 24.3197 19.7631 24.3175 19.68 24.3133C19.3324 24.8374 19.0067 25.1146 18.8874 25.1878C17.9862 25.5034 16.1811 23.4967 16.1854 22.7886C16.1888 22.2222 16.6486 21.7935 16.9047 21.4945C16.8895 21.2652 17.0086 21.2656 17.0201 21.0652C19.9355 17.9988 34.5549 8.34856 35.173 7.99439Z" fill="#F6E8CA"></path><path fill-rule="evenodd" clip-rule="evenodd" d="M48.8299 8.74988L48.8992 8.79169L48.7492 9.04044C48.8992 8.79169 48.8992 8.79167 48.8992 8.79169L49.0846 8.90341C49.2032 8.97488 49.3737 9.07756 49.5811 9.20235C49.996 9.45195 50.5586 9.78997 51.1496 10.1437C52.3344 10.8529 53.6253 11.6206 54.0751 11.87C54.1465 11.9095 54.2099 11.9718 54.2583 12.024C54.3125 12.0824 54.3723 12.1554 54.4364 12.2394C54.5649 12.4077 54.7218 12.6348 54.9012 12.9098C55.2606 13.4608 55.7197 14.2188 56.2384 15.117C57.2761 16.9141 58.5579 19.2828 59.7657 21.7006C60.9728 24.117 62.1094 26.5897 62.854 28.5928C63.2258 29.5931 63.5037 30.4865 63.6419 31.202C63.711 31.5595 63.7472 31.8828 63.7394 32.1583C63.7317 32.428 63.6811 32.6872 63.5429 32.8851C63.4595 33.0045 63.3774 33.1168 63.2966 33.2223L63.392 34.3863L63.3591 34.4563C63.0932 35.0227 62.7567 35.3832 62.3733 35.5801C61.9903 35.7769 61.5947 35.7929 61.2431 35.734C60.8945 35.6757 60.5769 35.542 60.3343 35.4245C60.2412 35.3794 60.1552 35.3346 60.0839 35.2976C60.0626 35.2865 60.0427 35.2761 60.0242 35.2666C59.9826 35.2452 59.9498 35.2287 59.9235 35.2166C59.9016 35.2065 59.8909 35.2026 59.8883 35.2017C59.8875 35.2014 59.8877 35.2015 59.8883 35.2017C59.6907 35.1486 59.5718 34.9819 59.5039 34.8581C59.4286 34.721 59.3711 34.5541 59.3265 34.3875C59.2489 34.0973 59.1997 33.7664 59.1748 33.4967C59.07 33.4062 58.9656 33.3165 58.8595 33.2288L58.7875 33.1693L58.7637 33.0791C57.8518 29.6262 56.4461 26.2773 55.1179 23.8846C54.4528 22.6863 53.8141 21.7405 53.2744 21.1426C53.0029 20.8418 52.7704 20.6448 52.5854 20.5432C52.3966 20.4395 52.3196 20.4654 52.2938 20.4801C51.614 20.8697 51.1334 21.5918 50.6425 22.9382C50.2376 24.0488 49.8415 25.5355 49.3113 27.5256C49.1987 27.9484 49.08 28.394 48.9539 28.8635C47.5501 34.0891 46.2757 43.4843 45.006 55.0264L44.9961 55.1161L44.9372 55.1844C44.7759 55.3713 44.6104 55.5365 44.4416 55.6815C44.5896 56.3508 44.3821 56.9354 44.2329 57.1801L44.1996 57.2348L44.1464 57.2704C43.2631 57.8611 42.2911 57.8477 41.5245 57.6907C41.1397 57.612 40.7988 57.4957 40.5353 57.3949C40.4235 57.3522 40.3242 57.3117 40.2431 57.2786C40.2288 57.2727 40.2151 57.2671 40.2019 57.2618C40.1058 57.2227 40.0569 57.2041 40.0351 57.1982C39.807 57.1369 39.7184 56.922 39.6821 56.8029C39.6389 56.6608 39.6207 56.4913 39.6142 56.329C39.6036 56.0645 39.6224 55.7712 39.6475 55.5398C39.5233 55.4253 39.4167 55.3083 39.3328 55.1938C39.2279 55.0506 39.1379 54.8838 39.1201 54.7145C39.0848 54.3788 39.0926 53.7927 39.1245 53.0447C39.1567 52.2896 39.2147 51.3486 39.2849 50.2909C39.3194 49.7708 39.357 49.2222 39.3959 48.6531C39.5154 46.9053 39.6482 44.9636 39.7488 43.0555C39.8823 40.5246 39.9585 38.0649 39.8732 36.2066C39.8305 35.2754 39.7477 34.5102 39.6165 33.967C39.5507 33.6946 39.4764 33.4939 39.3987 33.3598C39.3193 33.2227 39.2585 33.1921 39.2349 33.1857C39.1655 33.1671 39.0838 33.1721 38.9748 33.2263C38.7872 33.3197 38.5563 33.5417 38.2849 33.9231C38.0185 34.2975 37.7339 34.7953 37.4288 35.3993C36.8184 36.6076 36.1436 38.2053 35.3825 40.0162L35.3048 40.2011C33.8018 43.7778 31.9738 48.1279 29.6913 51.7892L29.6526 51.8512L29.5892 51.8876C29.3882 52.0027 29.1934 52.1048 29.0047 52.1944C28.7105 52.7172 28.2273 53.5228 28.0312 53.7844L27.965 53.8728L27.8568 53.8949C26.398 54.1925 25.3751 53.828 24.6842 53.3083C24.042 52.8253 23.7058 52.2213 23.568 51.9737C23.5601 51.9595 23.5528 51.9464 23.5462 51.9347C23.4415 51.7486 23.4637 51.5425 23.508 51.3847C23.554 51.2207 23.6387 51.0542 23.7318 50.9029C23.8814 50.6594 24.074 50.4209 24.2357 50.2421C24.1785 50.0135 24.1394 49.7862 24.1161 49.5688L24.1077 49.4897L24.1407 49.4173C24.7657 48.0488 25.6083 45.3629 26.4953 42.4705C26.5891 42.1647 26.6833 41.8568 26.7778 41.5481C27.5726 38.9508 28.384 36.2991 29.0814 34.4215C30.5968 30.3422 30.7242 29.8587 31.5847 26.5923C31.7936 25.799 32.0459 24.8416 32.3717 23.6286C33.1676 20.6659 33.4803 18.7253 33.5426 17.5197C33.5738 16.9151 33.5411 16.5104 33.4827 16.2597C33.4537 16.1352 33.4213 16.0622 33.3973 16.0241C33.3911 16.0253 33.384 16.0267 33.3758 16.0284C33.319 16.0407 33.24 16.0647 33.1379 16.1024C32.9345 16.1777 32.6664 16.2976 32.3482 16.4538C31.7133 16.7656 30.9029 17.2103 30.0592 17.6978C28.3695 18.674 26.5707 19.8074 25.8096 20.3636C25.439 20.6345 25.0488 20.908 24.6166 21.211C23.5153 21.983 22.1405 22.9467 20.1172 24.5476L20.0379 24.6104L19.9367 24.6103C19.9005 24.6103 19.8647 24.6099 19.8293 24.6092C19.4997 25.0735 19.1907 25.3427 19.0392 25.4355L19.0127 25.4517L18.9834 25.462C18.6419 25.5816 18.2672 25.4692 17.9497 25.3031C17.6207 25.1309 17.288 24.8675 16.9937 24.5799C16.6984 24.2912 16.4308 23.9673 16.235 23.6643C16.1371 23.5128 16.0542 23.3619 15.995 23.2195C15.9375 23.0812 15.894 22.931 15.8949 22.7869C15.8971 22.4232 16.046 22.1176 16.2105 21.8772C16.3311 21.701 16.4773 21.5378 16.5893 21.4128C16.5986 21.4024 16.6076 21.3923 16.6164 21.3825C16.6197 21.3491 16.6254 21.317 16.6336 21.2857C16.6517 21.2159 16.679 21.1636 16.6975 21.1297C16.719 21.0903 16.7256 21.0795 16.7282 21.0677C16.7293 21.0624 16.7296 21.057 16.7301 21.0486L16.7362 20.9422L16.8096 20.8651C17.5577 20.0782 19.0374 18.8864 20.8253 17.5466C22.6196 16.2021 24.7429 14.695 26.7925 13.274C30.8857 10.4362 34.7064 7.927 35.0285 7.74236C35.1441 7.67614 35.3186 7.62238 35.5021 7.57597C35.6953 7.5271 35.9317 7.4786 36.1925 7.43141C36.7146 7.33694 37.3491 7.24513 37.9606 7.16486C38.5728 7.0845 39.1652 7.0153 39.6044 6.96621C39.824 6.94166 40.0055 6.92212 40.1321 6.90871C40.1954 6.90201 40.245 6.89683 40.2789 6.89333L40.3307 6.88801C40.3307 6.888 40.3309 6.88798 40.3602 7.17701L40.3307 6.88801L40.3803 6.88297L40.4286 6.89466C41.7109 7.2051 43.6686 7.6707 45.3742 8.05854C46.2273 8.25251 47.0158 8.42669 47.6248 8.55225C47.9296 8.61507 48.1874 8.66532 48.3851 8.69973C48.593 8.7359 48.7098 8.74995 48.749 8.74992L48.8299 8.74988ZM40.8465 7.59317C42.1005 7.89467 43.767 8.28894 45.2454 8.62511C46.0998 8.81938 46.8928 8.99458 47.5075 9.12131C47.7715 9.17573 48.004 9.2215 48.1951 9.25609C47.4037 10.0352 45.9969 10.4099 44.5467 10.1976C43.0564 9.97932 41.5984 9.14823 40.8465 7.59317ZM40.1667 7.48933C40.0427 7.5025 39.8723 7.52091 39.6689 7.54364C39.232 7.59248 38.6435 7.66123 38.0362 7.74094C37.4281 7.82076 36.8044 7.91116 36.296 8.00316C36.0415 8.04921 35.8195 8.095 35.6446 8.13926C35.4599 8.18597 35.3564 8.22417 35.3174 8.24648C35.0216 8.41603 31.2235 10.909 27.1236 13.7515C25.0767 15.1706 22.9599 16.6731 21.1737 18.0116C19.4327 19.3162 18.0231 20.4522 17.2935 21.2002C17.2721 21.2927 17.2367 21.3559 17.2147 21.3951C17.212 21.3999 17.2095 21.4043 17.2073 21.4084C17.197 21.4272 17.1961 21.4309 17.1959 21.432C17.1957 21.4328 17.1926 21.4444 17.1946 21.4752C17.2289 21.9901 17.3942 22.6082 17.7761 23.1033C18.1501 23.5881 18.7463 23.9752 19.6947 24.0232C19.7413 24.0256 19.7888 24.0272 19.8373 24.0282C21.8312 22.4539 23.2067 21.4896 24.2959 20.726C24.7236 20.4262 25.1072 20.1572 25.4668 19.8945C26.2535 19.3196 28.0737 18.1739 29.7685 17.1947C30.617 16.7045 31.4402 16.2524 32.0921 15.9323C32.4172 15.7726 32.7058 15.6428 32.9363 15.5575C33.0512 15.515 33.1585 15.481 33.2527 15.4606C33.3351 15.4427 33.4517 15.4246 33.5612 15.454C33.7101 15.494 33.8156 15.5993 33.8868 15.7111C33.9584 15.8235 34.0106 15.9651 34.0486 16.1278C34.1245 16.4538 34.1554 16.9196 34.1228 17.5497C34.0575 18.8133 33.7336 20.7984 32.9328 23.7793C32.6081 24.988 32.3564 25.9437 32.1474 26.737C31.2839 30.0149 31.1514 30.5178 29.6261 34.6238C28.935 36.4841 28.1291 39.1179 27.3329 41.7198C27.2387 42.0277 27.1446 42.3352 27.0508 42.6409C26.1844 45.4661 25.3436 48.1526 24.7028 49.5844C24.7296 49.7982 24.7737 50.0211 24.8374 50.2424C25.0346 50.9268 25.4076 51.5564 25.996 51.8856C26.5711 52.2075 27.424 52.2812 28.6757 51.7067C28.8549 51.6245 29.0419 51.5291 29.2371 51.4193C31.4767 47.8109 33.2774 43.5259 34.7765 39.9585L34.8469 39.7911C35.6055 37.9862 36.2887 36.3676 36.9101 35.1374C37.2209 34.5221 37.5206 33.995 37.8114 33.5863C38.0972 33.1847 38.3963 32.8652 38.716 32.7061C38.9255 32.6018 39.1534 32.5622 39.3857 32.6246C39.6212 32.6879 39.7858 32.8689 39.9015 33.0686C40.0189 33.2713 40.1094 33.5327 40.1813 33.8307C40.3257 34.4284 40.4104 35.2376 40.4536 36.18C40.5403 38.0688 40.4626 40.5527 40.329 43.0861C40.2281 44.9992 40.0949 46.9476 39.9753 48.6963C39.9365 49.2644 39.8991 49.8115 39.8647 50.3294C39.7945 51.3867 39.7369 52.3218 39.705 53.0694C39.6728 53.8243 39.6679 54.3677 39.6979 54.6538C39.6999 54.6724 39.72 54.7391 39.8015 54.8504C39.8779 54.9547 39.9919 55.0755 40.1404 55.1994C40.9442 55.8699 42.5163 56.4528 43.9336 55.3468C44.1028 55.2146 44.2718 55.0574 44.4385 54.8716C45.7038 43.3807 46.979 33.9753 48.3927 28.7128C48.5174 28.2489 48.6351 27.8069 48.7472 27.3859C49.2774 25.3955 49.682 23.8765 50.0966 22.7392C50.5991 21.3613 51.1397 20.4719 52.005 19.976C52.2882 19.8137 52.6011 19.8888 52.8652 20.0339C53.1329 20.1811 53.4163 20.4326 53.7057 20.7533C54.2878 21.3982 54.9513 22.3872 55.626 23.6026C56.9658 26.0164 58.3768 29.373 59.3017 32.8409C59.4073 32.9296 59.5106 33.0189 59.6109 33.1057L59.6447 33.1349C59.9147 33.3683 60.1605 33.5783 60.4052 33.7399C60.6487 33.9006 60.8721 34 61.0913 34.0276C61.5002 34.079 62.0288 33.8912 62.7698 32.9532C62.8657 32.8318 62.9646 32.6985 63.0666 32.5524C63.11 32.4902 63.1523 32.3648 63.1586 32.1419C63.1648 31.9248 63.1362 31.6473 63.0714 31.3122C62.9421 30.6427 62.6768 29.7838 62.3094 28.7952C61.5754 26.8206 60.4493 24.3693 59.2459 21.9602C58.0432 19.5525 56.7668 17.1942 55.7352 15.4075C55.2192 14.5139 54.7658 13.7659 54.4145 13.2272C54.2386 12.9575 54.0906 12.7439 53.9746 12.5919C53.9164 12.5158 53.8691 12.4587 53.8324 12.4192C53.8024 12.3869 53.7881 12.3757 53.7874 12.3748C53.3218 12.1162 52.0263 11.3457 50.8512 10.6423C50.2597 10.2882 49.6967 9.94996 49.2816 9.70022C49.0969 9.58911 48.9414 9.49551 48.8258 9.42583C47.9102 10.5518 46.1463 11.019 44.4625 10.7724C42.7121 10.5161 40.9562 9.47998 40.1667 7.48933ZM16.7151 22.1696C16.7067 22.1814 16.6983 22.1933 16.69 22.2054C16.5598 22.3957 16.4771 22.5877 16.4759 22.7904C16.4757 22.8234 16.4876 22.8908 16.5315 22.9965C16.5738 23.0981 16.6382 23.2177 16.723 23.349C16.8927 23.6115 17.1318 23.9023 17.3999 24.1644C17.6691 24.4275 17.9563 24.6508 18.2191 24.7883C18.4705 24.9198 18.6501 24.9476 18.7623 24.9219C18.8303 24.8725 18.9717 24.7508 19.1462 24.5439C18.3102 24.3898 17.7168 23.9777 17.3161 23.4582C17.0075 23.0581 16.8193 22.603 16.7151 22.1696ZM33.3796 16.0006C33.3796 16.0005 33.3798 16.0008 33.3803 16.0012L33.3796 16.0006ZM24.4499 50.8894C24.3704 50.9912 24.2928 51.0997 24.2267 51.2072C24.1473 51.3364 24.0929 51.4509 24.0674 51.5416C24.0454 51.6199 24.0533 51.6494 24.0539 51.6521C24.0599 51.6627 24.0662 51.674 24.0729 51.6861C24.2069 51.926 24.492 52.4367 25.0335 52.844C25.576 53.252 26.3966 53.5708 27.6293 53.3471C27.7514 53.168 27.9444 52.8558 28.1361 52.5338C27.1438 52.8322 26.3413 52.7446 25.7123 52.3927C25.103 52.0518 24.7007 51.4868 24.4499 50.8894ZM40.1977 55.9535C40.192 56.0724 40.1903 56.1933 40.1948 56.3057C40.2006 56.4495 40.216 56.5615 40.238 56.6337C40.2406 56.6423 40.243 56.6495 40.2452 56.6556C40.2995 56.6743 40.3615 56.6995 40.4209 56.7236C40.4348 56.7293 40.4491 56.7351 40.4638 56.7411C40.5449 56.7742 40.6376 56.812 40.7428 56.8522C40.9903 56.9468 41.2988 57.0515 41.641 57.1215C42.3095 57.2584 43.0769 57.2579 43.7655 56.8249C43.8364 56.6812 43.9259 56.4016 43.9092 56.0681C42.5371 56.8947 41.1133 56.5196 40.1977 55.9535ZM40.2579 56.683C40.2578 56.6832 40.2567 56.6818 40.2547 56.678C40.257 56.6809 40.2579 56.6828 40.2579 56.683ZM59.8441 34.0534C59.8574 34.1164 59.872 34.1782 59.8878 34.2373C59.9268 34.3832 59.9699 34.4997 60.0131 34.5784C60.036 34.6201 60.0522 34.6391 60.0591 34.6463C60.1347 34.67 60.2217 34.7147 60.2904 34.7501C60.312 34.7613 60.334 34.7727 60.3567 34.7845C60.4269 34.821 60.5027 34.8604 60.5876 34.9015C60.8112 35.0098 61.0707 35.1161 61.339 35.161C61.6043 35.2054 61.8654 35.1878 62.1078 35.0633C62.338 34.945 62.5824 34.7143 62.8001 34.2777L62.764 33.8371C62.1573 34.4431 61.5899 34.6758 61.0189 34.6041C60.677 34.5611 60.3678 34.4113 60.0851 34.2248C60.0042 34.1713 59.9238 34.1138 59.8441 34.0534Z" fill="#F6E8CA"></path><path fill-rule="evenodd" clip-rule="evenodd" d="M40.7998 7.98877L40.8691 8.03058L40.719 8.27933C40.8691 8.03058 40.869 8.03056 40.8691 8.03058L41.0544 8.1423C41.173 8.21377 41.3435 8.31645 41.5509 8.44124C41.9658 8.69084 42.5284 9.02886 43.1194 9.38263C44.3042 10.0918 45.5952 10.8595 46.045 11.1089C46.1163 11.1484 46.1797 11.2107 46.2282 11.2629C46.2823 11.3213 46.3421 11.3943 46.4062 11.4782C46.5347 11.6466 46.6916 11.8737 46.871 12.1487C47.2304 12.6997 47.6895 13.4577 48.2082 14.3559C49.2459 16.153 50.5277 18.5216 51.7355 20.9395C52.9426 23.3559 54.0793 25.8286 54.8238 27.8317C55.1956 28.832 55.4735 29.7254 55.6117 30.4409C55.6808 30.7984 55.717 31.1217 55.7092 31.3972C55.7016 31.6669 55.651 31.9261 55.5128 32.124C55.4294 32.2434 55.3473 32.3557 55.2664 32.4612L55.3618 33.6252L55.3289 33.6952C55.0631 34.2616 54.7265 34.6221 54.3431 34.819C53.9601 35.0158 53.5645 35.0317 53.2129 34.9729C52.8643 34.9146 52.5468 34.7809 52.3041 34.6633C52.2111 34.6183 52.125 34.5735 52.0537 34.5365C52.0325 34.5254 52.0125 34.515 51.9941 34.5055C51.9524 34.4841 51.9196 34.4676 51.8933 34.4555C51.8714 34.4454 51.8607 34.4415 51.8581 34.4406C51.8573 34.4403 51.8575 34.4404 51.8581 34.4406C51.6605 34.3875 51.5417 34.2208 51.4737 34.097C51.3984 33.9599 51.3409 33.7929 51.2963 33.6263C51.2187 33.3362 51.1695 33.0052 51.1446 32.7356C51.0398 32.645 50.9354 32.5554 50.8293 32.4677L50.7574 32.4082L50.7335 32.3179C49.8216 28.8651 48.4159 25.5162 47.0878 23.1235C46.4227 21.9252 45.7839 20.9794 45.2442 20.3815C44.9727 20.0806 44.7403 19.8837 44.5552 19.782C44.3665 19.6783 44.2895 19.7043 44.2637 19.719C43.5838 20.1086 43.1033 20.8307 42.6124 22.1771C42.2074 23.2877 41.8114 24.7744 41.2812 26.7645C41.1685 27.1873 41.0498 27.6329 40.9237 28.1024C39.5199 33.328 38.2455 42.7232 36.9758 54.2653L36.966 54.355L36.907 54.4233C36.7457 54.6102 36.5802 54.7754 36.4114 54.9204C36.5594 55.5897 36.3519 56.1743 36.2027 56.419L36.1694 56.4737L36.1162 56.5093C35.233 57.1 34.2609 57.0866 33.4943 56.9296C33.1096 56.8509 32.7686 56.7346 32.5051 56.6338C32.3933 56.5911 32.2941 56.5506 32.2129 56.5175C32.1986 56.5116 32.1849 56.506 32.1718 56.5007C32.0756 56.4616 32.0268 56.443 32.0049 56.4371C31.7768 56.3758 31.6882 56.1609 31.652 56.0418C31.6087 55.8997 31.5906 55.7302 31.5841 55.5679C31.5734 55.3034 31.5923 55.01 31.6173 54.7787C31.4931 54.6642 31.3866 54.5472 31.3027 54.4327C31.1977 54.2895 31.1077 54.1227 31.0899 53.9534C31.0546 53.6177 31.0624 53.0316 31.0943 52.2836C31.1265 51.5285 31.1845 50.5875 31.2547 49.5298C31.2893 49.0097 31.3268 48.4611 31.3657 47.892C31.4852 46.1442 31.618 44.2025 31.7186 42.2944C31.8521 39.7635 31.9283 37.3038 31.843 35.4455C31.8003 34.5143 31.7175 33.7491 31.5864 33.2059C31.5206 32.9335 31.4462 32.7328 31.3686 32.5987C31.2891 32.4616 31.2284 32.431 31.2048 32.4246C31.1354 32.406 31.0536 32.411 30.9447 32.4652C30.757 32.5586 30.5261 32.7805 30.2547 33.162C29.9883 33.5364 29.7037 34.0342 29.3986 34.6382C28.7883 35.8465 28.1135 37.4442 27.3524 39.2551L27.2747 39.44C25.7716 43.0167 23.9436 47.3668 21.6611 51.0281L21.6224 51.0901L21.559 51.1265C21.358 51.2416 21.1633 51.3437 20.9745 51.4333C20.6804 51.956 20.1971 52.7617 20.0011 53.0233L19.9349 53.1117L19.8266 53.1338C18.3678 53.4314 17.345 53.0669 16.654 52.5472C16.0118 52.0642 15.6757 51.4602 15.5378 51.2126C15.5299 51.1984 15.5227 51.1853 15.516 51.1736C15.4113 50.9875 15.4335 50.7814 15.4778 50.6235C15.5238 50.4596 15.6085 50.2931 15.7016 50.1418C15.8512 49.8983 16.0438 49.6598 16.2056 49.481C16.1483 49.2524 16.1092 49.0251 16.0859 48.8077L16.0775 48.7286L16.1106 48.6562C16.7356 47.2877 17.5782 44.6018 18.4652 41.7094C18.5589 41.4036 18.6532 41.0957 18.7476 40.787C19.5424 38.1897 20.3538 35.538 21.0513 33.6604C22.5666 29.5811 22.694 29.0976 23.5545 25.8312C23.7635 25.0379 24.0157 24.0805 24.3415 22.8675C25.1374 19.9048 25.4501 17.9642 25.5124 16.7586C25.5436 16.154 25.5109 15.7493 25.4525 15.4986C25.4235 15.3741 25.3911 15.3011 25.3672 15.263C25.3609 15.2641 25.3538 15.2655 25.3457 15.2673C25.2888 15.2796 25.2098 15.3036 25.1077 15.3413C24.9044 15.4166 24.6362 15.5364 24.318 15.6927C23.6831 16.0045 22.8727 16.4492 22.029 16.9367C20.3393 17.9129 18.5405 19.0463 17.7795 19.6025C17.4088 19.8734 17.0187 20.1468 16.5864 20.4498C15.4851 21.2219 14.1104 22.1856 12.087 23.7865L12.0077 23.8493L11.9065 23.8492C11.8704 23.8492 11.8346 23.8488 11.7991 23.8481C11.4695 24.3124 11.1605 24.5816 11.009 24.6744L10.9825 24.6906L10.9533 24.7009C10.6118 24.8205 10.2371 24.7081 9.91957 24.542C9.59052 24.3698 9.25781 24.1064 8.96358 23.8188C8.66826 23.5301 8.4006 23.2062 8.20484 22.9032C8.10698 22.7517 8.02403 22.6008 7.96484 22.4584C7.90736 22.3201 7.86382 22.1699 7.8647 22.0258C7.86691 21.6621 8.01584 21.3565 8.18038 21.1161C8.30097 20.9399 8.44717 20.7767 8.5591 20.6517C8.5684 20.6413 8.57746 20.6312 8.58625 20.6214C8.58957 20.588 8.59527 20.5559 8.6034 20.5246C8.62158 20.4548 8.6488 20.4025 8.66732 20.3686C8.68886 20.3292 8.69546 20.3184 8.69799 20.3066C8.69913 20.3013 8.69944 20.2958 8.69992 20.2875L8.70603 20.1811L8.77942 20.1039C9.52756 19.3171 11.0072 18.1253 12.7952 16.7855C14.5894 15.441 16.7127 13.9339 18.7624 12.5129C22.8555 9.67512 26.6762 7.16589 26.9984 6.98126C27.1139 6.91503 27.2884 6.86127 27.4719 6.81486C27.6651 6.76599 27.9016 6.71749 28.1623 6.6703C28.6844 6.57584 29.3189 6.48402 29.9304 6.40375C30.5426 6.32339 31.1351 6.25419 31.5742 6.2051C31.7939 6.18055 31.9753 6.16101 32.1019 6.1476C32.1653 6.1409 32.2149 6.13572 32.2487 6.13222L32.3005 6.1269C32.3006 6.12689 32.3008 6.12687 32.3301 6.4159L32.3005 6.1269L32.3502 6.12186L32.3984 6.13355C33.6807 6.44399 35.6384 6.90959 37.3441 7.29743C38.1971 7.4914 38.9856 7.66559 39.5947 7.79114C39.8994 7.85396 40.1573 7.90421 40.355 7.93862C40.5628 7.97479 40.6797 7.98884 40.7188 7.98881L40.7998 7.98877ZM32.8164 6.83207C34.0703 7.13356 35.7368 7.52783 37.2152 7.864C38.0696 8.05827 38.8626 8.23347 39.4774 8.3602C39.7413 8.41462 39.9738 8.4604 40.1649 8.49498C39.3735 9.27409 37.9667 9.6488 36.5165 9.43644C35.0263 9.21821 33.5682 8.38712 32.8164 6.83207ZM32.1365 6.72822C32.0126 6.74139 31.8422 6.7598 31.6387 6.78253C31.2019 6.83137 30.6134 6.90012 30.006 6.97984C29.398 7.05965 28.7743 7.15005 28.2658 7.24205C28.0113 7.2881 27.7894 7.33389 27.6144 7.37815C27.4297 7.42486 27.3262 7.46306 27.2873 7.48538C26.9914 7.65492 23.1933 10.1479 19.0934 12.9904C17.0465 14.4095 14.9297 15.912 13.1436 17.2505C11.4025 18.5551 9.99294 19.6911 9.2633 20.4391C9.24196 20.5316 9.2065 20.5948 9.18456 20.634C9.18186 20.6388 9.17936 20.6432 9.17712 20.6473C9.16687 20.6661 9.16597 20.6698 9.16572 20.6709C9.16549 20.6717 9.1624 20.6833 9.16445 20.7141C9.19876 21.229 9.36401 21.8471 9.74597 22.3422C10.1199 22.827 10.7161 23.2141 11.6646 23.2621C11.7111 23.2645 11.7587 23.2661 11.8071 23.2671C13.801 21.6928 15.1765 20.7285 16.2657 19.9649C16.6935 19.6651 17.0771 19.3961 17.4366 19.1334C18.2233 18.5585 20.0435 17.4128 21.7383 16.4336C22.5868 15.9434 23.41 15.4913 24.0619 15.1712C24.3871 15.0115 24.6756 14.8817 24.9062 14.7964C25.021 14.7539 25.1283 14.7199 25.2225 14.6995C25.3049 14.6816 25.4215 14.6634 25.5311 14.6929C25.68 14.7329 25.7855 14.8382 25.8567 14.95C25.9282 15.0624 25.9805 15.204 26.0184 15.3667C26.0944 15.6927 26.1252 16.1585 26.0926 16.7886C26.0274 18.0522 25.7035 20.0373 24.9027 23.0182C24.578 24.2269 24.3262 25.1826 24.1172 25.9759C23.2537 29.2538 23.1212 29.7567 21.5959 33.8627C20.9049 35.723 20.0989 38.3568 19.3027 40.9587C19.2085 41.2666 19.1144 41.5741 19.0207 41.8798C18.1542 44.705 17.3134 47.3915 16.6727 48.8233C16.6994 49.0371 16.7435 49.26 16.8073 49.4813C17.0045 50.1657 17.3774 50.7953 17.9658 51.1245C18.541 51.4464 19.3938 51.5201 20.6456 50.9456C20.8247 50.8634 21.0118 50.768 21.2069 50.6582C23.4465 47.0498 25.2472 42.7648 26.7464 39.1974L26.8167 39.03C27.5753 37.2251 28.2585 35.6065 28.88 34.3762C29.1907 33.761 29.4905 33.2339 29.7813 32.8252C30.067 32.4235 30.3662 32.1041 30.6858 31.945C30.8954 31.8407 31.1232 31.8011 31.3555 31.8635C31.591 31.9268 31.7557 32.1078 31.8713 32.3075C31.9888 32.5102 32.0792 32.7716 32.1512 33.0695C32.2955 33.6673 32.3802 34.4765 32.4235 35.4189C32.5101 37.3077 32.4325 39.7916 32.2989 42.325C32.1979 44.2381 32.0647 46.1865 31.9451 47.9352C31.9063 48.5033 31.8689 49.0504 31.8345 49.5683C31.7643 50.6256 31.7067 51.5607 31.6748 52.3083C31.6426 53.0632 31.6377 53.6066 31.6678 53.8927C31.6697 53.9113 31.6898 53.978 31.7713 54.0892C31.8478 54.1936 31.9617 54.3144 32.1103 54.4383C32.914 55.1088 34.4861 55.6917 35.9034 54.5856C36.0727 54.4535 36.2416 54.2963 36.4083 54.1105C37.6737 42.6195 38.9488 33.2142 40.3626 27.9517C40.4872 27.4877 40.6049 27.0457 40.717 26.6248C41.2472 24.6344 41.6518 23.1154 42.0665 21.9781C42.5689 20.6001 43.1095 19.7108 43.9748 19.2149C44.258 19.0526 44.5709 19.1277 44.835 19.2728C45.1028 19.42 45.3861 19.6715 45.6755 19.9921C46.2576 20.6371 46.9212 21.6261 47.5958 22.8415C48.9356 25.2553 50.3466 28.6119 51.2715 32.0798C51.3771 32.1685 51.4804 32.2578 51.5807 32.3446L51.6145 32.3738C51.8845 32.6072 52.1303 32.8172 52.375 32.9787C52.6185 33.1395 52.8419 33.2389 53.0612 33.2665C53.47 33.3178 53.9987 33.13 54.7396 32.1921C54.8355 32.0707 54.9344 31.9374 55.0364 31.7913C55.0799 31.7291 55.1221 31.6037 55.1284 31.3808C55.1346 31.1637 55.106 30.8862 55.0412 30.5511C54.9119 29.8816 54.6466 29.0227 54.2792 28.0341C53.5452 26.0595 52.4191 23.6081 51.2157 21.1991C50.013 18.7914 48.7367 16.4331 47.705 14.6464C47.189 13.7528 46.7357 13.0048 46.3844 12.4661C46.2084 12.1964 46.0604 11.9828 45.9444 11.8308C45.8862 11.7546 45.8389 11.6976 45.8022 11.6581C45.7722 11.6258 45.7579 11.6146 45.7573 11.6137C45.2916 11.3551 43.9961 10.5846 42.821 9.88116C42.2295 9.52711 41.6665 9.18885 41.2514 8.93911C41.0667 8.828 40.9113 8.7344 40.7956 8.66472C39.88 9.79072 38.1162 10.2579 36.4324 10.0113C34.682 9.75501 32.9261 8.71887 32.1365 6.72822ZM8.6849 21.4085C8.67648 21.4203 8.66813 21.4322 8.65985 21.4443C8.52961 21.6346 8.44695 21.8266 8.44571 22.0293C8.44551 22.0623 8.45744 22.1297 8.50138 22.2354C8.5436 22.337 8.60802 22.4566 8.69286 22.5879C8.86251 22.8504 9.10166 23.1412 9.36973 23.4033C9.6389 23.6664 9.92617 23.8897 10.1889 24.0272C10.4403 24.1587 10.6199 24.1865 10.7322 24.1608C10.8001 24.1114 10.9415 23.9897 11.1161 23.7828C10.28 23.6287 9.68667 23.2166 9.28592 22.6971C8.97728 22.297 8.78912 21.8419 8.6849 21.4085ZM25.3494 15.2395C25.3494 15.2394 25.3496 15.2396 25.3501 15.2401L25.3494 15.2395ZM16.4197 50.1283C16.3402 50.2301 16.2626 50.3386 16.1966 50.4461C16.1171 50.5753 16.0627 50.6898 16.0372 50.7805C16.0153 50.8588 16.0231 50.8883 16.0237 50.891C16.0297 50.9016 16.036 50.9129 16.0427 50.9249C16.1767 51.1649 16.4618 51.6756 17.0033 52.0829C17.5458 52.4909 18.3664 52.8097 19.5991 52.586C19.7212 52.4069 19.9142 52.0947 20.1059 51.7727C19.1136 52.0711 18.3111 51.9835 17.6821 51.6316C17.0728 51.2907 16.6705 50.7257 16.4197 50.1283ZM32.1675 55.1924C32.1618 55.3113 32.1601 55.4322 32.1646 55.5446C32.1704 55.6884 32.1859 55.8004 32.2078 55.8726C32.2104 55.8812 32.2129 55.8884 32.2151 55.8945C32.2693 55.9132 32.3313 55.9383 32.3907 55.9625C32.4046 55.9682 32.4189 55.974 32.4336 55.98C32.5148 56.0131 32.6075 56.0509 32.7126 56.0911C32.9601 56.1857 33.2687 56.2904 33.6108 56.3604C34.2793 56.4973 35.0467 56.4968 35.7353 56.0638C35.8062 55.9201 35.8958 55.6405 35.879 55.307C34.5069 56.1336 33.0831 55.7585 32.1675 55.1924ZM32.2277 55.9219C32.2277 55.9221 32.2265 55.9207 32.2245 55.9169C32.2268 55.9198 32.2278 55.9216 32.2277 55.9219ZM51.8139 33.2923C51.8272 33.3553 51.8418 33.417 51.8576 33.4762C51.8967 33.6221 51.9398 33.7386 51.983 33.8173C52.0059 33.859 52.022 33.878 52.0289 33.8852C52.1045 33.9089 52.1915 33.9536 52.2602 33.989C52.2818 34.0001 52.3039 34.0116 52.3265 34.0234C52.3968 34.0599 52.4726 34.0993 52.5574 34.1404C52.781 34.2487 53.0406 34.355 53.3088 34.3999C53.5741 34.4442 53.8352 34.4267 54.0776 34.3022C54.3079 34.1839 54.5522 33.9532 54.7699 33.5166L54.7338 33.076C54.1271 33.6819 53.5598 33.9147 52.9887 33.8429C52.6469 33.8 52.3376 33.6502 52.055 33.4637C51.974 33.4102 51.8936 33.3527 51.8139 33.2923Z" fill="#1A468D"></path><path fill-rule="evenodd" clip-rule="evenodd" d="M31.646 7.57299C31.6743 7.73092 31.5693 7.8819 31.4113 7.91022C30.8561 8.00976 30.0055 8.15447 29.2579 8.26509C28.8845 8.32034 28.5337 8.36754 28.2571 8.39627C28.1192 8.41059 27.996 8.42072 27.896 8.42467C27.8104 8.42805 27.7011 8.42948 27.6173 8.40699C27.4624 8.36536 27.3705 8.206 27.4121 8.05105C27.4538 7.8961 27.6131 7.80423 27.7681 7.84585C27.7624 7.84432 27.7625 7.84433 27.7708 7.84465C27.7833 7.84515 27.8147 7.8464 27.8731 7.84409C27.9553 7.84085 28.0647 7.8321 28.1971 7.81835C28.4613 7.79091 28.8025 7.74512 29.1728 7.69032C29.9128 7.58084 30.7572 7.4372 31.3088 7.33831C31.4667 7.30999 31.6177 7.41507 31.646 7.57299Z" fill="#1A468D"></path><path fill-rule="evenodd" clip-rule="evenodd" d="M40.8632 9.91822C40.9411 9.77799 41.118 9.72752 41.2582 9.80548L44.4934 11.6042C44.6336 11.6821 44.6841 11.859 44.6061 11.9992C44.5282 12.1395 44.3513 12.1899 44.2111 12.112L40.9759 10.3133C40.8357 10.2353 40.7852 10.0585 40.8632 9.91822Z" fill="#1A468D"></path></svg>