<svg width="41" height="59" viewBox="0 0 41 59" fill="none" xmlns="http://www.w3.org/2000/svg">
<path d="M19.6346 19.1813C18.4022 19.7881 17.2881 20.6324 16.2872 21.6571C14.3893 23.6001 12.8984 26.1913 11.7792 29.0403C10.9304 31.2012 10.2955 33.5102 9.8592 35.7972C8.57306 42.5388 9.01298 49.0878 10.7875 51.0787C15.7129 56.6044 17.9703 56.6635 23.332 55.0874C23.9553 54.9041 24.6053 54.4313 25.2585 53.7267C26.8228 52.0393 28.406 49.0228 29.6883 45.4721C31.4087 40.7084 32.5874 34.9831 32.4522 30.2159C32.3899 28.0187 32.0485 26.025 31.3524 24.4227C30.838 23.2389 30.0484 22.2232 29.1163 21.5425C25.5251 23.3602 21.717 21.7269 19.6346 19.1813Z" fill="#E8FEDA"></path>
<path d="M18.4517 11.7955C16.5013 10.1342 14.8361 14.2201 18.1292 15.0488C18.0061 16.4242 18.5952 17.9107 19.6346 19.1813C21.717 21.7269 25.5251 23.3602 29.1163 21.5425C30.2705 20.9583 31.4755 20.0586 32.4981 18.6649C35.4247 19.6829 35.9588 15.0308 33.5725 15.6008C34.2306 11.7803 32.1192 8.61134 28.3317 7.38947C27.6267 7.16203 26.8951 7.00662 26.1618 6.93413C22.9143 6.61317 19.6305 7.91812 18.4517 11.7955Z" fill="#E8FEDA"></path>
<path fill-rule="evenodd" clip-rule="evenodd" d="M27.6345 3.39702C27.7775 3.37204 27.9137 3.46773 27.9387 3.61073L28.5636 7.18947C32.2524 8.44342 34.3739 11.5387 33.8851 15.291C34.0762 15.2826 34.2538 15.3066 34.416 15.3617C34.681 15.4518 34.8885 15.6193 35.0377 15.8309C35.3311 16.247 35.3956 16.8235 35.2849 17.3546C35.1734 17.8898 34.8751 18.4241 34.3824 18.7539C33.9197 19.0637 33.3142 19.1737 32.597 18.9716C31.6792 20.176 30.6272 21.0083 29.5961 21.5849C30.4268 22.2826 31.1228 23.2347 31.5934 24.318C32.3076 25.9618 32.6521 27.9919 32.7149 30.2085C32.8513 35.0175 31.6636 40.7763 29.9355 45.5614C28.6492 49.1235 27.0514 52.1794 25.4512 53.9055C24.7835 54.6258 24.0946 55.1373 23.4061 55.3396C20.7267 56.1273 18.756 56.53 16.8265 55.9998C14.8984 55.4699 13.0597 54.0229 10.5913 51.2537C10.1083 50.7118 9.7345 49.8839 9.45929 48.8679C9.1827 47.8468 8.99956 46.6124 8.91329 45.236C8.74072 42.4827 8.95431 39.1379 9.60102 35.748C10.0399 33.4475 10.679 31.1224 11.5346 28.9443C12.662 26.0743 14.1693 23.4492 16.0992 21.4735C17.0397 20.5107 18.0819 19.7007 19.2305 19.0927C18.3359 17.9093 17.8034 16.5488 17.8535 15.2444C17.091 15.0076 16.5804 14.589 16.289 14.0898C15.9739 13.5499 15.9295 12.94 16.0704 12.4197C16.21 11.9043 16.5413 11.4465 17.0119 11.2449C17.4092 11.0746 17.8631 11.1047 18.3133 11.3727C18.9457 9.56125 20.051 8.31928 21.4024 7.56126C22.7116 6.82697 24.237 6.55473 25.7622 6.63972L25.1729 5.1544C25.1193 5.01946 25.1853 4.86668 25.3203 4.81315C25.4552 4.75961 25.608 4.8256 25.6615 4.96054L26.3475 6.68972C26.9041 6.75363 27.4581 6.86363 27.9995 7.01508L27.4208 3.70116C27.3958 3.55815 27.4915 3.42199 27.6345 3.39702ZM19.5314 19.5284C18.4716 20.0815 17.5002 20.8179 16.6141 21.7006C17.848 23.8478 20.0583 26.7579 22.7978 28.7241C25.5668 30.7116 28.8318 31.7083 32.1842 30.0567C32.1145 28.0683 31.8104 26.2694 31.2231 24.7961C28.5731 26.2132 26.061 25.6228 24.0143 24.3128C22.0086 23.0292 20.4267 21.0446 19.5314 19.5284ZM31.0135 24.3118C30.5416 23.3126 29.8678 22.4551 29.0875 21.8498C26.2625 23.2066 23.3369 22.5287 21.1752 20.9797C22.0109 22.0265 23.0756 23.0879 24.2977 23.8701C26.2424 25.1147 28.561 25.6415 31.0135 24.3118ZM32.1978 30.6326C28.6838 32.2533 25.2893 31.1595 22.4912 29.1512C19.7296 27.169 17.5072 24.2714 16.2342 22.0935C14.5011 23.9532 13.1171 26.3776 12.0589 29.0476C13.3418 32.8504 15.7472 38.1719 18.8285 41.9105C20.3819 43.7954 22.0894 45.2559 23.8906 45.9317C25.6536 46.5932 27.5236 46.5103 29.4717 45.2979C31.1187 40.7092 32.2555 35.2463 32.1978 30.6326ZM29.1884 46.0654C27.2962 47.0547 25.4488 47.0778 23.7059 46.4239C21.7821 45.7021 20.0038 44.1631 18.4228 42.2449C15.4446 38.6313 13.1035 33.5938 11.767 29.8126C11.0555 31.7498 10.5108 33.7919 10.1227 35.8188C10.223 39.7253 11.1076 45.2687 13.4148 49.2693C14.5693 51.2711 16.0683 52.8667 17.9835 53.6926C19.8802 54.5105 22.2212 54.5891 25.1072 53.503C26.5232 51.9541 27.9711 49.2722 29.1884 46.0654ZM24.1511 54.3745C21.6658 55.0891 19.5544 54.9425 17.7754 54.1754C15.7225 53.2901 14.1489 51.5945 12.9595 49.5319C11.0288 46.1842 10.0794 41.8174 9.73912 38.1793C9.40078 40.7072 9.30803 43.1302 9.43795 45.2031C9.52271 46.5554 9.70189 47.7529 9.96669 48.7304C10.2329 49.713 10.5795 50.4503 10.9838 50.9039C13.4407 53.6604 15.1934 55.0058 16.9658 55.4929C18.7368 55.9796 20.5757 55.6237 23.2579 54.8353C23.543 54.7515 23.8418 54.5972 24.1511 54.3745ZM28.251 7.63969C27.5631 7.41777 26.8499 7.26634 26.1359 7.19578C24.5534 7.03937 22.9771 7.28078 21.6596 8.01976C20.3471 8.75593 19.2737 9.99532 18.7032 11.872C18.6774 11.9568 18.6107 12.0229 18.5256 12.0478C18.4406 12.0727 18.3487 12.0531 18.2813 11.9957C17.8537 11.6314 17.4882 11.6127 17.2189 11.7281C16.9316 11.8512 16.6867 12.1552 16.5778 12.5572C16.4703 12.9543 16.5052 13.4174 16.743 13.8248C16.9785 14.2281 17.4274 14.6012 18.1934 14.794C18.3187 14.8255 18.4025 14.9436 18.391 15.0723C18.2759 16.3587 18.8271 17.7792 19.8381 19.015C21.8673 21.4956 25.5482 23.0539 28.9976 21.308C30.1197 20.7401 31.2909 19.8659 32.2861 18.5095C32.3544 18.4164 32.4754 18.3788 32.5844 18.4167C33.2492 18.6479 33.7434 18.5491 34.09 18.3171C34.446 18.0788 34.6808 17.6766 34.7703 17.2473C34.8607 16.8139 34.7942 16.3979 34.6081 16.1338C34.5175 16.0053 34.398 15.9108 34.2469 15.8595C34.0946 15.8077 33.8935 15.7944 33.6335 15.8565C33.5476 15.877 33.4571 15.853 33.3927 15.7925C33.3282 15.7321 33.2985 15.6433 33.3135 15.5562C33.9471 11.878 31.9272 8.82566 28.251 7.63969ZM24.9144 12.7536C23.838 11.4865 22.2702 11.6687 21.6184 11.9242C21.4833 11.9771 21.3308 11.9105 21.2778 11.7754C21.2249 11.6402 21.2915 11.4877 21.4266 11.4347C22.1874 11.1366 24.0341 10.9054 25.3151 12.4133C25.4091 12.5239 25.3956 12.6898 25.2849 12.7838C25.1743 12.8778 25.0084 12.8643 24.9144 12.7536ZM31.2008 14.3357C30.1243 13.0685 28.5566 13.2508 27.9048 13.5062C27.7696 13.5592 27.6171 13.4925 27.5642 13.3574C27.5112 13.2222 27.5778 13.0697 27.713 13.0167C28.4738 12.7186 30.3205 12.4874 31.6014 13.9953C31.6954 14.1059 31.6819 14.2718 31.5713 14.3658C31.4607 14.4598 31.2948 14.4463 31.2008 14.3357ZM20.8998 16.6092C20.9868 16.4929 21.1515 16.4692 21.2678 16.5562C21.9152 17.0407 23.0591 17.7182 24.3669 18.1607C25.6783 18.6044 27.119 18.8 28.3832 18.3695C28.5206 18.3227 28.6699 18.3961 28.7167 18.5335C28.7635 18.6709 28.6901 18.8203 28.5527 18.8671C27.1322 19.3509 25.5611 19.1197 24.1984 18.6586C22.832 18.1963 21.6394 17.4908 20.9528 16.9771C20.8366 16.8901 20.8129 16.7254 20.8998 16.6092Z" fill="#E8FEDA"></path>
<path fill-rule="evenodd" clip-rule="evenodd" d="M22.6596 2.82719C22.8026 2.80222 22.9388 2.8979 22.9637 3.04091L23.5887 6.61964C27.2775 7.8736 29.399 10.9688 28.9102 14.7212C29.1012 14.7128 29.2788 14.7368 29.4411 14.7919C29.7061 14.8819 29.9136 15.0495 30.0628 15.2611C30.3561 15.6771 30.4207 16.2537 30.31 16.7848C30.1984 17.3199 29.9002 17.8543 29.4075 18.1841C28.9447 18.4939 28.3392 18.6039 27.622 18.4017C26.7043 19.6062 25.6523 20.4385 24.6211 21.0151C25.4519 21.7128 26.1479 22.6649 26.6185 23.7482C27.3326 25.3919 27.6772 27.422 27.74 29.6387C27.8764 34.4477 26.6887 40.2065 24.9606 44.9916C23.6742 48.5536 22.0765 51.6096 20.4763 53.3357C19.8085 54.056 19.1197 54.5674 18.4312 54.7698C15.7517 55.5575 13.7811 55.9602 11.8516 55.43C9.92348 54.9001 8.08476 53.4531 5.6164 50.6838C5.13342 50.142 4.75957 49.314 4.48435 48.2981C4.20777 47.277 4.02463 46.0426 3.93836 44.6661C3.76579 41.9129 3.97938 38.568 4.62609 35.1782C5.06497 32.8776 5.70404 30.5526 6.55964 28.3745C7.68703 25.5045 9.19439 22.8794 11.1242 20.9037C12.0648 19.9408 13.107 19.1309 14.2555 18.5229C13.361 17.3394 12.8285 15.979 12.8785 14.6746C12.1161 14.4378 11.6055 14.0191 11.3141 13.52C10.9989 12.9801 10.9546 12.3702 11.0955 11.8499C11.2351 11.3344 11.5664 10.8767 12.037 10.6751C12.4343 10.5048 12.8882 10.5349 13.3383 10.8028C13.9708 8.99142 15.076 7.74945 16.4275 6.99144C17.7367 6.25714 19.2621 5.98491 20.7872 6.0699L20.1979 4.58458C20.1444 4.44964 20.2104 4.29686 20.3453 4.24332C20.4803 4.18979 20.633 4.25578 20.6866 4.39071L21.3726 6.1199C21.9292 6.18381 22.4832 6.29381 23.0246 6.44526L22.4459 3.13133C22.4209 2.98833 22.5166 2.85216 22.6596 2.82719ZM14.5565 18.9586C13.4967 19.5117 12.5252 20.2481 11.6392 21.1308C12.873 23.2779 15.0834 26.188 17.8228 28.1543C20.5919 30.1417 23.8569 31.1385 27.2092 29.4869C27.1395 27.4985 26.8355 25.6995 26.2482 24.2263C23.5982 25.6434 21.0861 25.053 19.0394 23.743C17.0337 22.4594 15.4517 20.4747 14.5565 18.9586ZM26.0386 23.742C25.5667 22.7428 24.8929 21.8853 24.1126 21.28C21.2875 22.6367 18.362 21.9588 16.2003 20.4099C17.036 21.4567 18.1007 22.5181 19.3227 23.3003C21.2675 24.5449 23.5861 25.0716 26.0386 23.742ZM27.2229 30.0628C23.7089 31.6834 20.3144 30.5897 17.5163 28.5813C14.7547 26.5992 12.5323 23.7016 11.2593 21.5237C9.52621 23.3834 8.14221 25.8077 7.08401 28.4778C8.36691 32.2805 10.7723 37.6021 13.8536 41.3407C15.407 43.2256 17.1145 44.6861 18.9157 45.3619C20.6787 46.0234 22.5487 45.9405 24.4968 44.7281C26.1437 40.1394 27.2806 34.6765 27.2229 30.0628ZM24.2135 45.4956C22.3212 46.4849 20.4738 46.508 18.731 45.8541C16.8072 45.1323 15.0289 43.5933 13.4479 41.675C10.4696 38.0615 8.12853 33.024 6.79211 29.2427C6.0806 31.18 5.53583 33.2221 5.14775 35.249C5.24806 39.1554 6.13272 44.6988 8.43992 48.6995C9.59437 50.7013 11.0933 52.2969 13.0086 53.1228C14.9053 53.9407 17.2463 54.0192 20.1323 52.9332C21.5483 51.3843 22.9962 48.7023 24.2135 45.4956ZM19.1762 53.8047C16.6908 54.5193 14.5794 54.3726 12.8005 53.6055C10.7476 52.7203 9.17401 51.0247 7.98453 48.9621C6.05386 45.6143 5.10445 41.2475 4.76419 37.6094C4.42585 40.1373 4.3331 42.5604 4.46302 44.6333C4.54778 45.9856 4.72696 47.1831 4.99176 48.1606C5.25793 49.1432 5.60453 49.8805 6.00882 50.334C8.46578 53.0905 10.2185 54.436 11.9909 54.923C13.7619 55.4097 15.6008 55.0539 18.283 54.2655C18.568 54.1817 18.8669 54.0274 19.1762 53.8047ZM23.2761 7.06987C22.5881 6.84794 21.875 6.69652 21.161 6.62595C19.5785 6.46955 18.0022 6.71096 16.6847 7.44993C15.3721 8.1861 14.2988 9.4255 13.7283 11.3022C13.7025 11.387 13.6358 11.4531 13.5507 11.478C13.4657 11.5029 13.3738 11.4833 13.3064 11.4258C12.8787 11.0616 12.5133 11.0429 12.244 11.1583C11.9567 11.2814 11.7118 11.5854 11.6029 11.9873C11.4954 12.3845 11.5303 12.8476 11.7681 13.255C12.0035 13.6583 12.4525 14.0314 13.2184 14.2242C13.3438 14.2557 13.4276 14.3737 13.4161 14.5025C13.3009 15.7889 13.8522 17.2094 14.8631 18.4452C16.8924 20.9258 20.5733 22.4841 24.0227 20.7382C25.1447 20.1703 26.316 19.296 27.3112 17.9396C27.3795 17.8466 27.5005 17.8089 27.6095 17.8469C28.2743 18.0781 28.7684 17.9793 29.115 17.7473C29.471 17.509 29.7059 17.1068 29.7954 16.6775C29.8857 16.244 29.8193 15.828 29.6331 15.564C29.5425 15.4355 29.4231 15.341 29.272 15.2897C29.1196 15.2379 28.9186 15.2246 28.6586 15.2867C28.5727 15.3072 28.4822 15.2832 28.4177 15.2227C28.3533 15.1623 28.3235 15.0735 28.3385 14.9864C28.9722 11.3082 26.9523 8.25584 23.2761 7.06987ZM19.9395 12.1838C18.8631 10.9167 17.2953 11.0989 16.6435 11.3544C16.5084 11.4073 16.3559 11.3407 16.3029 11.2055C16.2499 11.0704 16.3166 10.9179 16.4517 10.8649C17.2125 10.5668 19.0592 10.3356 20.3401 11.8435C20.4341 11.9541 20.4206 12.12 20.31 12.214C20.1994 12.3079 20.0335 12.2945 19.9395 12.1838ZM26.2259 13.7658C25.1494 12.4987 23.5817 12.6809 22.9299 12.9364C22.7947 12.9893 22.6422 12.9227 22.5892 12.7876C22.5363 12.6524 22.6029 12.4999 22.7381 12.4469C23.4988 12.1488 25.3455 11.9176 26.6265 13.4255C26.7205 13.5361 26.707 13.702 26.5964 13.796C26.4857 13.89 26.3198 13.8765 26.2259 13.7658ZM15.9249 16.0394C16.0119 15.9231 16.1766 15.8994 16.2928 15.9864C16.9403 16.4708 18.0841 17.1483 19.3919 17.5909C20.7034 18.0346 22.1441 18.2302 23.4082 17.7996C23.5457 17.7528 23.695 17.8263 23.7418 17.9637C23.7886 18.1011 23.7151 18.2504 23.5777 18.2973C22.1573 18.781 20.5862 18.5499 19.2235 18.0888C17.8571 17.6265 16.6644 16.921 15.9779 16.4073C15.8617 16.3203 15.8379 16.1556 15.9249 16.0394Z" fill="#1A468D"></path>
</svg>