<svg width="58" height="68" viewBox="0 0 58 68" fill="none" xmlns="http://www.w3.org/2000/svg">
<path d="M15.4438 34.6284C14.8781 28.6237 14.9197 21.4946 16.184 18.8818C17.8868 17.0553 24.4386 15.5056 28.2954 16.0255C35.8315 14.5242 44.3297 14.5259 44.7729 17.3494C45.6059 22.6568 44.5465 33.7142 45.4743 42.1512C45.4461 44.7887 45.5692 45.4865 44.9689 47.3426C44.1686 49.8174 42.9481 51.099 42.1739 50.855C41.9054 49.6723 39.5377 46.651 38.168 44.3152C32.0777 43.2625 17.8036 48.5917 16.806 48.6899C14.617 48.9053 15.3148 44.0233 15.4438 34.6284Z" fill="#FFEEF5"></path>
<path d="M15.4438 34.6284C14.8781 28.6237 14.9197 21.4946 16.184 18.8818C17.8868 17.0553 24.4386 15.5056 28.2954 16.0255M15.4438 34.6284C15.3148 44.0233 14.617 48.9053 16.806 48.6899C17.8036 48.5917 32.0777 43.2625 38.168 44.3152M15.4438 34.6284C18.0964 23.1797 25.6555 17.0049 28.2954 16.0255M28.2954 16.0255C35.8315 14.5242 44.3297 14.5259 44.7729 17.3494C45.6059 22.6568 44.5465 33.7142 45.4743 42.1512M45.4743 42.1512C44.452 36.928 41.4604 34.6589 40.2108 33.8206M45.4743 42.1512C45.4461 44.7887 45.5692 45.4865 44.9689 47.3426M44.9689 47.3426C44.9716 45.6269 44.3462 44.8742 41.6272 45.2852C40.2866 45.4878 39.0557 44.4686 38.168 44.3152M44.9689 47.3426C44.1686 49.8174 42.9481 51.099 42.1739 50.855C41.9054 49.6723 39.5377 46.651 38.168 44.3152" stroke="#1A468D" stroke-width="0.5"></path>
<path d="M15.4438 34.6284C14.8781 28.6237 14.9197 21.4946 16.184 18.8818C17.8868 17.0553 24.4386 15.5056 28.2954 16.0255M15.4438 34.6284C15.3148 44.0233 14.617 48.9053 16.806 48.6899C17.8036 48.5917 32.0777 43.2625 38.168 44.3152M15.4438 34.6284C18.0964 23.1797 25.6555 17.0049 28.2954 16.0255M28.2954 16.0255C35.8315 14.5242 44.3297 14.5259 44.7729 17.3494C45.6059 22.6568 44.5465 33.7142 45.4743 42.1512M45.4743 42.1512C44.452 36.928 41.4604 34.6589 40.2108 33.8206M45.4743 42.1512C45.4461 44.7887 45.5692 45.4865 44.9689 47.3426M44.9689 47.3426C44.9716 45.6269 44.3462 44.8742 41.6272 45.2852C40.2866 45.4878 39.0557 44.4686 38.168 44.3152M44.9689 47.3426C44.1686 49.8174 42.9481 51.099 42.1739 50.855C41.9054 49.6723 39.5377 46.651 38.168 44.3152" stroke="#FFEEF5" stroke-width="0.5"></path>
<path d="M12.318 48.9997C14.3181 44.5 11.0224 44.5488 11.1513 35.1539M12.318 48.9997C11.8181 49.5 12.418 50.4999 14.818 50.4999C14.7978 49.6178 14.9134 47.8003 15.5377 47.5865M12.318 48.9997C12.318 48.9997 13.8615 48.1853 15.5377 47.5865M37.3348 45.8107C40.0538 45.3997 40.6792 46.1524 40.6765 47.8681M37.3348 45.8107C35.9941 46.0133 34.7633 44.9941 33.8755 44.8406M37.3348 45.8107C37.9417 45.7071 39.2881 45.3 39.818 44.5M11.1513 35.1539C10.5856 29.1491 10.6273 22.0201 11.8915 19.4073C13.5943 17.5808 17.818 17 24.003 16.5509M11.1513 35.1539C13.818 23.5 22.318 25 24.003 16.5509M24.003 16.5509C31.5391 15.0496 40.0373 15.0514 40.4804 17.8749C41.3135 23.1823 40.2541 34.2397 41.1819 42.6767M41.1819 42.6767C40.1596 37.4535 37.168 35.1844 35.9184 34.3461M41.1819 42.6767C41.1537 45.3142 41.2767 46.012 40.6765 47.8681M40.6765 47.8681C39.8762 50.3429 38.6557 51.6245 37.8815 51.3805C37.613 50.1978 35.2452 47.1765 33.8755 44.8406M33.8755 44.8406C29.373 44.0624 20.2915 45.8884 15.5377 47.5865" stroke="#1A468D" stroke-width="0.5" stroke-linecap="round" stroke-linejoin="round"></path>
<path d="M12.318 48.9997C14.3181 44.5 11.0224 44.5488 11.1513 35.1539M12.318 48.9997C11.8181 49.5 12.418 50.4999 14.818 50.4999C14.7978 49.6178 14.9134 47.8003 15.5377 47.5865M12.318 48.9997C12.318 48.9997 13.8615 48.1853 15.5377 47.5865M37.3348 45.8107C40.0538 45.3997 40.6792 46.1524 40.6765 47.8681M37.3348 45.8107C35.9941 46.0133 34.7633 44.9941 33.8755 44.8406M37.3348 45.8107C37.9417 45.7071 39.2881 45.3 39.818 44.5M11.1513 35.1539C10.5856 29.1491 10.6273 22.0201 11.8915 19.4073C13.5943 17.5808 17.818 17 24.003 16.5509M11.1513 35.1539C13.818 23.5 22.318 25 24.003 16.5509M24.003 16.5509C31.5391 15.0496 40.0373 15.0514 40.4804 17.8749C41.3135 23.1823 40.2541 34.2397 41.1819 42.6767M41.1819 42.6767C40.1596 37.4535 37.168 35.1844 35.9184 34.3461M41.1819 42.6767C41.1537 45.3142 41.2767 46.012 40.6765 47.8681M40.6765 47.8681C39.8762 50.3429 38.6557 51.6245 37.8815 51.3805C37.613 50.1978 35.2452 47.1765 33.8755 44.8406M33.8755 44.8406C29.373 44.0624 20.2915 45.8884 15.5377 47.5865" stroke="#1A468D" stroke-width="0.5" stroke-linecap="round" stroke-linejoin="round"></path>
</svg>