<svg width="33" height="55" viewBox="0 0 33 55" fill="none" xmlns="http://www.w3.org/2000/svg">
<path d="M16.6346 17.2426C15.4022 17.8494 14.2881 18.6937 13.2872 19.7184C11.3893 21.6614 9.89834 24.2526 8.7792 27.1016C7.93038 29.2624 7.29547 31.5715 6.85918 33.8584C5.57305 40.6 6.01296 47.1491 7.78752 49.14C12.7128 54.6657 14.9703 54.7248 20.332 53.1487C20.9553 52.9654 21.6052 52.4926 22.2585 51.788C23.8228 50.1006 25.406 47.0841 26.6883 43.5334C28.4086 38.7697 29.5874 33.0444 29.4522 28.2772C29.3899 26.08 29.0485 24.0862 28.3523 22.484C27.838 21.3001 27.0484 20.2844 26.1163 19.6038C22.5251 21.4214 18.717 19.7881 16.6346 17.2426Z" fill="#F6E8CA"></path>
<path d="M15.4517 9.85677C13.5013 8.19547 11.836 12.2813 15.1292 13.1101C15.0061 14.4855 15.5952 15.972 16.6346 17.2426C18.717 19.7881 22.5251 21.4214 26.1163 19.6038C27.2705 19.0196 28.4755 18.1199 29.498 16.7261C32.4246 17.7442 32.9588 13.0921 30.5725 13.662C31.2306 9.84161 29.1192 6.67261 25.3317 5.45075C24.6267 5.22331 23.8951 5.0679 23.1617 4.99541C19.9143 4.67445 16.6305 5.9794 15.4517 9.85677Z" fill="#F6E8CA"></path>
<path fill-rule="evenodd" clip-rule="evenodd" d="M24.6345 1.45829C24.7775 1.43332 24.9137 1.52901 24.9387 1.67201L25.5636 5.25075C29.2525 6.5047 31.374 9.59994 30.8852 13.3523C31.0762 13.3439 31.2538 13.3679 31.416 13.423C31.6811 13.513 31.8885 13.6806 32.0377 13.8922C32.3311 14.3082 32.3957 14.8848 32.2849 15.4159C32.1734 15.951 31.8751 16.4854 31.3824 16.8152C30.9197 17.125 30.3142 17.235 29.597 17.0328C28.6792 18.2373 27.6272 19.0696 26.5961 19.6462C27.4268 20.3439 28.1228 21.296 28.5935 22.3793C29.3076 24.023 29.6521 26.0531 29.715 28.2698C29.8513 33.0788 28.6636 38.8376 26.9356 43.6227C25.6492 47.1847 24.0515 50.2407 22.4512 51.9668C21.7835 52.6871 21.0946 53.1985 20.4062 53.4009C17.7267 54.1886 15.756 54.5913 13.8265 54.0611C11.8984 53.5312 10.0597 52.0842 7.59134 49.3149C7.10836 48.7731 6.73452 47.9451 6.4593 46.9292C6.18271 45.9081 5.99957 44.6737 5.9133 43.2972C5.74074 40.544 5.95433 37.1992 6.60103 33.8093C7.03991 31.5087 7.67899 29.1837 8.53459 27.0056C9.66198 24.1356 11.1693 21.5105 13.0992 19.5348C14.0397 18.572 15.0819 17.762 16.2305 17.154C15.3359 15.9705 14.8034 14.6101 14.8535 13.3057C14.091 13.0689 13.5805 12.6502 13.2891 12.1511C12.9739 11.6112 12.9295 11.0013 13.0704 10.481C13.2101 9.96555 13.5414 9.5078 14.0119 9.30617C14.4092 9.1359 14.8631 9.16596 15.3133 9.43395C15.9457 7.62253 17.051 6.38056 18.4024 5.62254C19.7116 4.88825 21.237 4.61601 22.7622 4.701L22.1729 3.21568C22.1194 3.08074 22.1853 2.92796 22.3203 2.87443C22.4552 2.82089 22.608 2.88688 22.6615 3.02182L23.3476 4.751C23.9041 4.81491 24.4581 4.92491 24.9995 5.07636L24.4208 1.76244C24.3959 1.61943 24.4915 1.48327 24.6345 1.45829ZM16.5315 17.5897C15.4716 18.1428 14.5002 18.8792 13.6141 19.7619C14.848 21.909 17.0583 24.8191 19.7978 26.7854C22.5668 28.7728 25.8318 29.7696 29.1842 28.118C29.1145 26.1296 28.8104 24.3306 28.2231 22.8574C25.5731 24.2745 23.061 23.6841 21.0143 22.3741C19.0086 21.0905 17.4267 19.1058 16.5315 17.5897ZM28.0136 22.3731C27.5417 21.3739 26.8678 20.5164 26.0875 19.9111C23.2625 21.2678 20.337 20.5899 18.1752 19.041C19.0109 20.0878 20.0756 21.1492 21.2977 21.9314C23.2424 23.176 25.5611 23.7027 28.0136 22.3731ZM29.1978 28.6939C25.6838 30.3145 22.2893 29.2208 19.4912 27.2124C16.7296 25.2303 14.5073 22.3327 13.2343 20.1548C11.5012 22.0145 10.1172 24.4388 9.05896 27.1089C10.3419 30.9116 12.7472 36.2332 15.8285 39.9718C17.382 41.8567 19.0894 43.3172 20.8906 43.993C22.6536 44.6545 24.5236 44.5716 26.4717 43.3592C28.1187 38.7705 29.2555 33.3076 29.1978 28.6939ZM26.1884 44.1267C24.2962 45.116 22.4488 45.1391 20.7059 44.4852C18.7821 43.7634 17.0038 42.2244 15.4228 40.3061C12.4446 36.6925 10.1035 31.6551 8.76706 27.8738C8.05554 29.8111 7.51078 31.8532 7.1227 33.8801C7.22301 37.7865 8.10766 43.3299 10.4149 47.3306C11.5693 49.3324 13.0683 50.928 14.9836 51.7539C16.8802 52.5718 19.2213 52.6503 22.1073 51.5643C23.5232 50.0154 24.9711 47.3334 26.1884 44.1267ZM21.1511 52.4358C18.6658 53.1504 16.5544 53.0037 14.7754 52.2366C12.7225 51.3514 11.149 49.6558 9.95947 47.5932C8.0288 44.2454 7.07939 39.8786 6.73914 36.2405C6.4008 38.7685 6.30805 41.1915 6.43796 43.2644C6.52272 44.6167 6.70191 45.8142 6.96671 46.7917C7.23287 47.7743 7.57947 48.5116 7.98377 48.9652C10.4407 51.7216 12.1934 53.0671 13.9658 53.5541C15.7368 54.0408 17.5757 53.685 20.2579 52.8966C20.543 52.8128 20.8418 52.6585 21.1511 52.4358ZM25.251 5.70097C24.5631 5.47905 23.8499 5.32762 23.1359 5.25705C21.5535 5.10065 19.9771 5.34206 18.6596 6.08104C17.3471 6.81721 16.2738 8.0566 15.7032 9.9333C15.6775 10.0181 15.6107 10.0842 15.5257 10.1091C15.4406 10.134 15.3488 10.1144 15.2813 10.0569C14.8537 9.6927 14.4882 9.67399 14.219 9.78937C13.9316 9.9125 13.6867 10.2165 13.5779 10.6184C13.4703 11.0156 13.5052 11.4787 13.743 11.8861C13.9785 12.2894 14.4274 12.6625 15.1934 12.8553C15.3187 12.8868 15.4026 13.0048 15.391 13.1336C15.2759 14.42 15.8272 15.8405 16.8381 17.0763C18.8674 19.5569 22.5482 21.1152 25.9977 19.3693C27.1197 18.8014 28.2909 17.9271 29.2862 16.5707C29.3544 16.4777 29.4754 16.44 29.5844 16.478C30.2492 16.7092 30.7434 16.6104 31.09 16.3784C31.446 16.1401 31.6808 15.7379 31.7703 15.3086C31.8607 14.8751 31.7943 14.4591 31.6081 14.1951C31.5175 14.0666 31.3981 13.9721 31.247 13.9208C31.0946 13.869 30.8935 13.8557 30.6336 13.9178C30.5476 13.9383 30.4571 13.9143 30.3927 13.8538C30.3282 13.7934 30.2985 13.7046 30.3135 13.6175C30.9471 9.93928 28.9272 6.88694 25.251 5.70097ZM21.9144 10.8149C20.838 9.54781 19.2702 9.73003 18.6185 9.98546C18.4833 10.0384 18.3308 9.9718 18.2778 9.83664C18.2249 9.70148 18.2915 9.54898 18.4267 9.49601C19.1874 9.19787 21.0341 8.9667 22.3151 10.4746C22.4091 10.5852 22.3956 10.7511 22.2849 10.8451C22.1743 10.9391 22.0084 10.9256 21.9144 10.8149ZM28.2008 12.3969C27.1244 11.1298 25.5566 11.312 24.9048 11.5675C24.7697 11.6204 24.6172 11.5538 24.5642 11.4187C24.5112 11.2835 24.5779 11.131 24.713 11.078C25.4738 10.7799 27.3205 10.5487 28.6014 12.0566C28.6954 12.1672 28.6819 12.3331 28.5713 12.4271C28.4607 12.5211 28.2948 12.5076 28.2008 12.3969ZM17.8999 14.6705C17.9868 14.5542 18.1516 14.5305 18.2678 14.6175C18.9152 15.1019 20.0591 15.7794 21.3669 16.222C22.6783 16.6657 24.119 16.8613 25.3832 16.4307C25.5206 16.3839 25.6699 16.4574 25.7167 16.5948C25.7635 16.7322 25.6901 16.8815 25.5527 16.9284C24.1323 17.4121 22.5611 17.181 21.1984 16.7199C19.832 16.2576 18.6394 15.5521 17.9528 15.0384C17.8366 14.9514 17.8129 14.7867 17.8999 14.6705Z" fill="#F6E8CA"></path>
<path fill-rule="evenodd" clip-rule="evenodd" d="M19.6596 0.888471C19.8026 0.8635 19.9387 0.959183 19.9637 1.10219L20.5886 4.68092C24.2775 5.93488 26.399 9.03012 25.9102 12.7825C26.1012 12.7741 26.2788 12.7981 26.4411 12.8532C26.7061 12.9432 26.9136 13.1107 27.0627 13.3223C27.3561 13.7384 27.4207 14.315 27.31 14.846C27.1984 15.3812 26.9001 15.9156 26.4074 16.2454C25.9447 16.5552 25.3392 16.6652 24.622 16.463C23.7042 17.6675 22.6522 18.4998 21.6211 19.0764C22.4518 19.7741 23.1478 20.7262 23.6185 21.8095C24.3326 23.4532 24.6771 25.4833 24.74 27.7C24.8763 32.509 23.6887 38.2678 21.9606 43.0529C20.6742 46.6149 19.0765 49.6708 17.4763 51.3969C16.8085 52.1172 16.1197 52.6287 15.4312 52.8311C12.7517 53.6188 10.781 54.0215 8.85154 53.4912C6.92345 52.9614 5.08473 51.5144 2.61637 48.7451C2.13339 48.2033 1.75954 47.3753 1.48432 46.3593C1.20773 45.3383 1.0246 44.1039 0.938325 42.7274C0.765762 39.9742 0.979349 36.6293 1.62605 33.2394C2.06494 30.9389 2.70401 28.6139 3.55961 26.4358C4.687 23.5658 6.19436 20.9407 8.12422 18.965C9.06475 18.0021 10.107 17.1922 11.2555 16.5842C10.3609 15.4007 9.82844 14.0402 9.8785 12.7359C9.11602 12.4991 8.60548 12.0804 8.31408 11.5813C7.99889 11.0414 7.95456 10.4315 8.09547 9.9112C8.23509 9.39572 8.56638 8.93798 9.03692 8.73635C9.43427 8.56608 9.88814 8.59613 10.3383 8.86413C10.9708 7.0527 12.076 5.81073 13.4275 5.05272C14.7366 4.31842 16.262 4.04618 17.7872 4.13118L17.1979 2.64585C17.1444 2.51092 17.2104 2.35814 17.3453 2.3046C17.4802 2.25107 17.633 2.31706 17.6866 2.45199L18.3726 4.18118C18.9291 4.24509 19.4832 4.35509 20.0245 4.50653L19.4459 1.19261C19.4209 1.04961 19.5166 0.913441 19.6596 0.888471ZM11.5565 17.0199C10.4966 17.5729 9.5252 18.3094 8.63916 19.1921C9.87302 21.3392 12.0833 24.2493 14.8228 26.2155C17.5918 28.203 20.8569 29.1997 24.2092 27.5482C24.1395 25.5597 23.8354 23.7608 23.2481 22.2875C20.5981 23.7047 18.086 23.1142 16.0393 21.8043C14.0337 20.5206 12.4517 18.536 11.5565 17.0199ZM23.0386 21.8033C22.5667 20.8041 21.8929 19.9466 21.1126 19.3413C18.2875 20.698 15.362 20.0201 13.2002 18.4712C14.036 19.518 15.1006 20.5794 16.3227 21.3615C18.2674 22.6062 20.5861 23.1329 23.0386 21.8033ZM24.2228 28.1241C20.7089 29.7447 17.3144 28.6509 14.5163 26.6426C11.7547 24.6605 9.53228 21.7629 8.25928 19.585C6.52618 21.4446 5.14218 23.869 4.08398 26.5391C5.36688 30.3418 7.77223 35.6633 10.8535 39.402C12.407 41.2868 14.1145 42.7474 15.9156 43.4232C17.6787 44.0847 19.5486 44.0017 21.4967 42.7894C23.1437 38.2006 24.2805 32.7378 24.2228 28.1241ZM21.2134 43.5569C19.3212 44.5462 17.4738 44.5693 15.731 43.9154C13.8072 43.1936 12.0289 41.6546 10.4479 39.7363C7.46961 36.1227 5.12849 31.0853 3.79208 27.304C3.08057 29.2413 2.5358 31.2834 2.14772 33.3103C2.24803 37.2167 3.13269 42.7601 5.43989 46.7608C6.59434 48.7626 8.09331 50.3582 10.0086 51.1841C11.9052 52.0019 14.2463 52.0805 17.1323 50.9944C18.5483 49.4456 19.9962 46.7636 21.2134 43.5569ZM16.1762 51.866C13.6908 52.5806 11.5794 52.4339 9.80043 51.6668C7.74757 50.7816 6.17398 49.0859 4.9845 47.0234C3.05383 43.6756 2.10442 39.3088 1.76416 35.6707C1.42582 38.1986 1.33307 40.6217 1.46299 42.6945C1.54775 44.0469 1.72693 45.2444 1.99173 46.2219C2.2579 47.2045 2.6045 47.9417 3.00879 48.3953C5.46575 51.1518 7.21844 52.4973 8.99084 52.9843C10.7618 53.471 12.6008 53.1152 15.2829 52.3267C15.568 52.2429 15.8669 52.0887 16.1762 51.866ZM20.276 5.13115C19.5881 4.90922 18.8749 4.7578 18.1609 4.68723C16.5785 4.53083 15.0021 4.77224 13.6846 5.51121C12.3721 6.24738 11.2988 7.48678 10.7283 9.36347C10.7025 9.44825 10.6357 9.51434 10.5507 9.53926C10.4657 9.56418 10.3738 9.54458 10.3063 9.48712C9.87871 9.12288 9.51323 9.10417 9.24398 9.21955C8.95664 9.34267 8.71174 9.6467 8.60288 10.0486C8.49533 10.4457 8.53025 10.9089 8.76807 11.3162C9.00351 11.7195 9.45243 12.0927 10.2184 12.2854C10.3438 12.317 10.4276 12.435 10.4161 12.5638C10.3009 13.8502 10.8522 15.2707 11.8631 16.5064C13.8924 18.9871 17.5733 20.5454 21.0227 18.7995C22.1447 18.2316 23.316 17.3573 24.3112 16.0009C24.3795 15.9079 24.5005 15.8702 24.6095 15.9081C25.2743 16.1394 25.7684 16.0406 26.115 15.8086C26.471 15.5703 26.7058 15.1681 26.7953 14.7388C26.8857 14.3053 26.8193 13.8893 26.6331 13.6252C26.5425 13.4968 26.4231 13.4023 26.272 13.351C26.1196 13.2992 25.9185 13.2859 25.6586 13.348C25.5726 13.3685 25.4821 13.3444 25.4177 13.284C25.3532 13.2235 25.3235 13.1348 25.3385 13.0477C25.9721 9.36945 23.9523 6.31711 20.276 5.13115ZM16.9395 10.2451C15.863 8.97799 14.2953 9.1602 13.6435 9.41564C13.5083 9.4686 13.3558 9.40197 13.3029 9.26682C13.2499 9.13166 13.3165 8.97915 13.4517 8.92619C14.2124 8.62805 16.0591 8.39688 17.3401 9.90475C17.4341 10.0154 17.4206 10.1813 17.31 10.2752C17.1993 10.3692 17.0335 10.3557 16.9395 10.2451ZM23.2258 11.8271C22.1494 10.56 20.5816 10.7422 19.9298 10.9977C19.7947 11.0506 19.6422 10.984 19.5892 10.8488C19.5362 10.7137 19.6029 10.5612 19.738 10.5082C20.4988 10.2101 22.3455 9.9789 23.6265 11.4868C23.7205 11.5974 23.707 11.7633 23.5963 11.8573C23.4857 11.9512 23.3198 11.9378 23.2258 11.8271ZM12.9249 14.1006C13.0119 13.9844 13.1766 13.9607 13.2928 14.0477C13.9402 14.5321 15.0841 15.2096 16.3919 15.6521C17.7034 16.0959 19.1441 16.2915 20.4082 15.8609C20.5456 15.8141 20.695 15.8876 20.7418 16.025C20.7886 16.1624 20.7151 16.3117 20.5777 16.3585C19.1573 16.8423 17.5861 16.6112 16.2234 16.1501C14.8571 15.6878 13.6644 14.9823 12.9779 14.4686C12.8616 14.3816 12.8379 14.2169 12.9249 14.1006Z" fill="#1A468D"></path>
</svg>