<svg width="59" height="43" viewBox="0 0 59 43" fill="none" xmlns="http://www.w3.org/2000/svg">
<path d="M33.5385 11.1578C34.4672 10.861 36.0554 10.6604 37.2151 13.0533C39.019 16.7756 17.3517 33.5277 14.8443 34.3292C11.2117 35.4904 10.7703 32.1513 11.8368 30.6845C9.58114 28.3185 8.92394 20.7293 11.8451 15.3398C3.97481 15.6951 12.8265 3.03991 15.2082 11.4514C21.1074 7.10697 31.0631 7.77072 33.5385 11.1578Z" fill="#DBE9FF"></path>
<path fill-rule="evenodd" clip-rule="evenodd" d="M15.3687 10.978C15.0772 10.1011 14.7028 9.45501 14.265 9.01233C13.758 8.49972 13.174 8.26896 12.5717 8.26781C11.3933 8.26557 10.2332 9.13579 9.44684 10.2008C8.65918 11.2676 8.16259 12.6423 8.43084 13.7671C8.5682 14.3431 8.90557 14.8443 9.48481 15.1823C9.95926 15.4592 10.5807 15.6181 11.3609 15.6376C10.0393 18.2951 9.52933 21.4007 9.60725 24.1542C9.6484 25.6087 9.85375 26.9731 10.1952 28.1294C10.5056 29.1809 10.9339 30.0784 11.4691 30.7123C10.9847 31.5308 10.871 32.7205 11.3161 33.6218C11.5634 34.1227 11.9846 34.5351 12.6021 34.7342C13.2133 34.9313 13.9874 34.9102 14.9333 34.6078C15.1207 34.5479 15.3744 34.4225 15.6727 34.2536C15.976 34.0818 16.3421 33.8553 16.7595 33.5824C17.5946 33.0362 18.6445 32.2981 19.8251 31.4254C22.1865 29.6798 25.0794 27.3897 27.8376 25.0079C30.594 22.6278 33.2241 20.1489 35.0548 18.0263C35.9689 16.9665 36.694 15.9837 37.134 15.1384C37.3541 14.7156 37.509 14.3158 37.5763 13.9498C37.6437 13.5833 37.6266 13.2317 37.4783 12.9257C36.8731 11.6771 36.1325 11.0608 35.3798 10.8185C34.732 10.6099 34.1175 10.6926 33.6472 10.8205C32.9655 9.98611 31.8717 9.33845 30.5544 8.88711C29.1463 8.40463 27.4539 8.13627 25.6611 8.1128C22.2108 8.06765 18.3424 8.92959 15.3687 10.978ZM33.1385 11.1242C32.5469 10.4362 31.589 9.85995 30.3648 9.4405C29.0257 8.98167 27.3963 8.72054 25.6534 8.69773C22.1629 8.65205 18.2668 9.56212 15.3816 11.6869C15.2948 11.7508 15.2119 11.8703 15.134 12.0641C15.0571 12.2554 14.9982 12.485 14.9377 12.7388C14.9295 12.7732 14.9212 12.8081 14.9129 12.8434C14.8618 13.0598 14.8076 13.2896 14.7402 13.4974C14.6626 13.7365 14.5566 13.9838 14.3867 14.1689C14.0287 14.5593 13.5389 14.7157 13.1432 14.8421C13.1034 14.8548 13.0645 14.8672 13.0268 14.8795C12.5832 15.0245 12.2759 15.1587 12.1022 15.4792C10.6714 18.119 10.112 21.3102 10.192 24.1377C10.232 25.5499 10.4313 26.8633 10.7562 27.9638C11.0427 28.934 11.4218 29.7221 11.8616 30.2687L33.1385 11.1242ZM12.0561 30.8806C11.5958 31.5352 11.4659 32.604 11.8406 33.3628C12.0244 33.735 12.328 34.0312 12.7816 34.1775C13.2415 34.3258 13.8848 34.3288 14.7552 34.0506C14.8813 34.0103 15.0906 33.9109 15.3844 33.7446C15.673 33.5811 16.0278 33.3619 16.4393 33.0928C17.262 32.5548 18.3022 31.8237 19.4773 30.955C21.8273 29.2178 24.7087 26.937 27.4553 24.5652C30.2037 22.1919 32.8088 19.7347 34.6118 17.6443C35.5145 16.5977 36.2058 15.6547 36.6151 14.8683C36.8198 14.4752 36.9479 14.1326 37.001 13.8439C37.054 13.5557 37.029 13.3402 36.9518 13.1809C36.3973 12.0365 35.7639 11.5567 35.2005 11.3753C34.6527 11.1989 34.1176 11.2869 33.6866 11.418L12.0561 30.8806ZM11.6792 15.0529C10.8109 15.0732 10.1974 14.9209 9.77968 14.6771C9.34589 14.4239 9.10219 14.0605 8.99986 13.6314C8.78873 12.7461 9.17826 11.5494 9.91745 10.5482C10.658 9.54528 11.6654 8.85107 12.5706 8.85279C13.0102 8.85363 13.4469 9.01697 13.8491 9.42367C14.2342 9.81309 14.594 10.4329 14.8767 11.3606C14.7496 11.503 14.6597 11.6754 14.5912 11.846C14.4961 12.0826 14.4286 12.3516 14.3686 12.6032C14.3599 12.64 14.3512 12.6765 14.3427 12.7125C14.2912 12.9307 14.2431 13.1339 14.1838 13.3168C14.1138 13.5325 14.0391 13.6826 13.9557 13.7735C13.7078 14.0437 13.3672 14.1541 12.9455 14.2908C12.9125 14.3015 12.879 14.3124 12.845 14.3235C12.4502 14.4526 11.9832 14.6199 11.6792 15.0529Z" fill="#DBE9FF"></path>
<path d="M47.6719 26.2925C48.6469 29.3149 50.4213 35.5936 49.7194 36.5296C48.8419 37.6996 44.563 41.1713 38.0198 41.7944C31.8775 42.3794 32.17 36.5296 34.5099 35.0672C36.8499 33.6047 38.6047 33.8972 38.6047 32.7272C38.6047 31.7913 37.4349 29.1199 37.1424 28.0474C36.4599 28.7299 35.9139 28.8079 35.6799 27.1699C35.3874 25.1225 34.5099 25.1225 35.6799 24.5375C36.6159 24.0695 44.0646 23.2701 47.6719 23.0751C48.1594 23.7575 49.076 25.5905 48.842 26.2925C48.5495 27.1699 48.2568 26.2393 47.6719 26.2925Z" fill="#DBE9FF"></path>
<path fill-rule="evenodd" clip-rule="evenodd" d="M47.8166 22.7743L47.9099 22.905C48.1689 23.2675 48.5301 23.9167 48.7978 24.5647C48.9321 24.8896 49.0467 25.2235 49.1123 25.5279C49.1756 25.8214 49.2037 26.1322 49.1194 26.3849C49.0789 26.5064 49.0335 26.6123 48.9788 26.6987C48.9243 26.7847 48.8495 26.8689 48.7437 26.9192C48.5119 27.0295 48.3022 26.9072 48.2096 26.8483C48.1868 26.8338 48.1634 26.8179 48.1406 26.8019C48.6071 28.2931 49.1888 30.3095 49.6095 32.1275C49.8493 33.164 50.0388 34.1442 50.1235 34.9288C50.1658 35.3204 50.1831 35.6727 50.1648 35.9632C50.1475 36.2397 50.0957 36.5153 49.9534 36.7051C49.4807 37.3353 48.1529 38.5201 46.1346 39.6237C44.1078 40.7318 41.3643 41.7697 38.0475 42.0856C36.4678 42.236 35.2664 41.976 34.3985 41.4452C33.5273 40.9126 33.0187 40.1233 32.8007 39.271C32.5838 38.4234 32.6539 37.5144 32.9314 36.7209C33.2081 35.9296 33.7004 35.2282 34.3549 34.8191C35.3943 34.1695 36.3269 33.8543 37.0246 33.6186C37.1352 33.5812 37.2399 33.5458 37.3382 33.5114C37.7077 33.3821 37.9547 33.2769 38.1119 33.1518C38.2459 33.0453 38.3122 32.9272 38.3122 32.7272C38.3122 32.538 38.2502 32.2303 38.1362 31.8325C38.0246 31.443 37.8718 30.995 37.7079 30.5371C37.6141 30.2752 37.516 30.0085 37.4203 29.7482C37.262 29.3178 37.1102 28.9052 36.9956 28.5622C36.9286 28.6108 36.8609 28.6534 36.7928 28.6885C36.6007 28.7875 36.3686 28.8436 36.1348 28.7505C35.9079 28.6602 35.7532 28.4579 35.6441 28.2132C35.5335 27.9654 35.4506 27.6328 35.3904 27.2113C35.284 26.4665 35.1051 26.0289 34.9695 25.6975C34.9249 25.5885 34.8851 25.491 34.854 25.3978C34.7903 25.2067 34.747 24.9731 34.9033 24.7432C35.0297 24.5574 35.2635 24.4187 35.5491 24.2759C35.7022 24.1993 35.9539 24.1294 36.2522 24.0628C36.5604 23.994 36.9485 23.9226 37.3944 23.8502C38.2868 23.7055 39.4231 23.555 40.6403 23.4134C43.0744 23.1301 45.8447 22.8809 47.6561 22.783L47.8166 22.7743ZM37.5186 28.2812C37.6289 28.6203 37.7864 29.0485 37.9574 29.5134C38.0555 29.7801 38.158 30.0589 38.2586 30.3399C38.4237 30.8009 38.5816 31.2632 38.6986 31.6714C38.8131 32.0712 38.8972 32.4484 38.8972 32.7272C38.8972 33.1122 38.7442 33.3963 38.4761 33.6096C38.2311 33.8045 37.8931 33.9369 37.5314 34.0635C37.4277 34.0999 37.3193 34.1366 37.2064 34.1748C36.5094 34.4107 35.6424 34.7042 34.665 35.3152C34.1495 35.6373 33.7278 36.2155 33.4835 36.914C33.24 37.6105 33.1821 38.4016 33.3674 39.1261C33.5516 39.8459 33.9752 40.5008 34.7036 40.9462C35.4352 41.3935 36.5006 41.6453 37.992 41.5032C41.2185 41.1959 43.886 40.1864 45.8539 39.1104C47.8302 38.0299 49.0805 36.8939 49.4854 36.3541C49.5185 36.3099 49.5648 36.1845 49.581 35.9266C49.5963 35.6829 49.5825 35.3674 49.5419 34.9916C49.4609 34.2412 49.2774 33.2873 49.0395 32.2593C48.5889 30.3118 47.9498 28.1277 47.4706 26.6225L37.5186 28.2812ZM36.3797 24.6337C36.0774 24.7012 35.8916 24.7586 35.8107 24.7991C35.5113 24.9488 35.4161 25.0294 35.3871 25.0721C35.3814 25.0805 35.3812 25.0822 35.3811 25.0902C35.381 25.1071 35.3854 25.1421 35.409 25.2128C35.4293 25.2739 35.4602 25.3489 35.4975 25.4398C35.6321 25.7674 35.8512 26.3005 35.9695 27.1285C36.0262 27.5259 36.0993 27.7979 36.1783 27.9748C36.2586 28.1548 36.327 28.1974 36.3511 28.207C36.3684 28.2139 36.4153 28.2249 36.5249 28.1685C36.6361 28.1112 36.7731 28.003 36.9355 27.8405L37.0018 27.7743L47.6346 26.0021L47.6455 26.0011C47.8754 25.9802 48.0653 26.0584 48.2068 26.1402C48.2771 26.1808 48.3406 26.2254 48.3926 26.2628C48.4037 26.2708 48.4141 26.2783 48.4239 26.2853C48.4566 26.3089 48.4828 26.3278 48.5074 26.3442C48.5237 26.311 48.543 26.2643 48.5645 26.1999C48.5972 26.1017 48.5985 25.9201 48.5405 25.6512C48.4848 25.3931 48.3838 25.0945 48.2572 24.7881C48.0346 24.2495 47.7453 23.7154 47.5234 23.3762C45.7264 23.4791 43.0612 23.7206 40.708 23.9944C39.4951 24.1355 38.3683 24.2849 37.4881 24.4277C37.0477 24.4991 36.6721 24.5685 36.3797 24.6337Z" fill="#DBE9FF"></path>
<path d="M55.9435 20.1503C56.9184 23.1727 58.6929 29.4514 57.9909 30.3874C57.1134 31.5574 52.8346 35.0291 46.2913 35.6522C40.1491 36.2372 40.4416 30.3874 42.7815 28.925C45.1214 27.4625 46.8763 27.755 46.8763 26.585C46.8763 25.6491 45.7064 22.9777 45.4139 21.9052C44.7315 22.5877 44.1855 22.6657 43.9515 21.0277C43.659 18.9803 42.7815 18.9803 43.9515 18.3953C44.8874 17.9273 52.3361 17.1279 55.9435 16.9329C56.431 17.6153 57.3475 19.4483 57.1135 20.1503C56.821 21.0277 56.5284 20.0971 55.9435 20.1503Z" fill="#DBE9FF"></path>
<path fill-rule="evenodd" clip-rule="evenodd" d="M56.0881 16.6321L56.1815 16.7628C56.4404 17.1253 56.8016 17.7744 57.0694 18.4225C57.2036 18.7474 57.3183 19.0813 57.3839 19.3857C57.4472 19.6792 57.4752 19.99 57.391 20.2427C57.3505 20.3642 57.305 20.4701 57.2503 20.5565C57.1959 20.6425 57.1211 20.7267 57.0152 20.777C56.7834 20.8873 56.5738 20.765 56.4811 20.7061C56.4583 20.6916 56.4349 20.6757 56.4121 20.6597C56.8787 22.1509 57.4603 24.1673 57.881 25.9853C58.1209 27.0218 58.3103 28.0019 58.3951 28.7866C58.4373 29.1782 58.4546 29.5305 58.4364 29.821C58.419 30.0975 58.3673 30.3731 58.2249 30.5629C57.7523 31.193 56.4245 32.3779 54.4061 33.4814C52.3794 34.5896 49.6359 35.6275 46.319 35.9434C44.7393 36.0938 43.538 35.8337 42.67 35.303C41.7989 34.7704 41.2902 33.9811 41.0722 33.1288C40.8554 32.2812 40.9254 31.3722 41.2029 30.5787C41.4796 29.7874 41.9719 29.086 42.6265 28.6769C43.6659 28.0273 44.5984 27.7121 45.2962 27.4763C45.4068 27.439 45.5115 27.4036 45.6097 27.3692C45.9792 27.2399 46.2263 27.1347 46.3834 27.0096C46.5174 26.903 46.5838 26.785 46.5838 26.585C46.5838 26.3958 46.5217 26.0881 46.4077 25.6903C46.2962 25.3008 46.1434 24.8527 45.9794 24.3949C45.8857 24.133 45.7875 23.8662 45.6918 23.606C45.5335 23.1755 45.3818 22.7629 45.2672 22.42C45.2001 22.4686 45.1324 22.5112 45.0643 22.5463C44.8723 22.6452 44.6401 22.7014 44.4063 22.6083C44.1794 22.518 44.0248 22.3157 43.9156 22.0709C43.805 21.8231 43.7221 21.4906 43.6619 21.069C43.5555 20.3243 43.3766 19.8867 43.2411 19.5553C43.1965 19.4463 43.1566 19.3487 43.1256 19.2555C43.0619 19.0645 43.0186 18.8309 43.1749 18.601C43.3012 18.4152 43.5351 18.2764 43.8206 18.1337C43.9737 18.0571 44.2255 17.9872 44.5238 17.9206C44.8319 17.8518 45.22 17.7804 45.6659 17.708C46.5583 17.5632 47.6947 17.4128 48.9119 17.2711C51.346 16.9879 54.1163 16.7387 55.9277 16.6408L56.0881 16.6321ZM45.7902 22.139C45.9004 22.4781 46.0579 22.9063 46.2289 23.3712C46.327 23.6379 46.4295 23.9167 46.5302 24.1977C46.6952 24.6587 46.8532 25.121 46.9701 25.5292C47.0846 25.9289 47.1688 26.3062 47.1688 26.585C47.1688 26.97 47.0158 27.2541 46.7476 27.4674C46.5026 27.6623 46.1647 27.7947 45.803 27.9213C45.6993 27.9576 45.5908 27.9943 45.478 28.0326C44.781 28.2685 43.914 28.562 42.9365 29.1729C42.4211 29.4951 41.9994 30.0733 41.7551 30.7718C41.5116 31.4683 41.4536 32.2594 41.639 32.9838C41.8231 33.7037 42.2468 34.3586 42.9752 34.8039C43.7067 35.2512 44.7722 35.503 46.2636 35.361C49.4901 35.0537 52.1576 34.0442 54.1255 32.9682C56.1017 31.8876 57.3521 30.7516 57.7569 30.2119C57.7901 30.1677 57.8364 30.0423 57.8526 29.7844C57.8678 29.5407 57.854 29.2252 57.8135 28.8494C57.7324 28.099 57.549 27.1451 57.3111 26.1171C56.8604 24.1696 56.2214 21.9855 55.7421 20.4803L45.7902 22.139ZM44.6512 18.4915C44.3489 18.559 44.1632 18.6164 44.0823 18.6569C43.7829 18.8066 43.6877 18.8872 43.6586 18.9299C43.6529 18.9383 43.6527 18.94 43.6527 18.948C43.6525 18.9649 43.657 18.9999 43.6805 19.0706C43.7009 19.1317 43.7317 19.2067 43.7691 19.2976C43.9037 19.6251 44.1227 20.1583 44.241 20.9863C44.2978 21.3837 44.3709 21.6557 44.4498 21.8326C44.5301 22.0126 44.5985 22.0552 44.6227 22.0648C44.64 22.0717 44.6869 22.0827 44.7964 22.0263C44.9077 21.969 45.0446 21.8608 45.2071 21.6983L45.2734 21.632L55.9061 19.8599L55.917 19.8589C56.147 19.838 56.3369 19.9162 56.4783 19.998C56.5487 20.0386 56.6121 20.0832 56.6642 20.1206C56.6753 20.1286 56.6857 20.1361 56.6955 20.1431C56.7282 20.1667 56.7544 20.1856 56.779 20.202C56.7952 20.1688 56.8146 20.1221 56.836 20.0577C56.8688 19.9595 56.87 19.7778 56.812 19.509C56.7564 19.2509 56.6553 18.9523 56.5287 18.6459C56.3062 18.1072 56.0169 17.5732 55.7949 17.234C53.998 17.3369 51.3327 17.5784 48.9795 17.8522C47.7666 17.9933 46.6399 18.1426 45.7596 18.2855C45.3192 18.3569 44.9437 18.4263 44.6512 18.4915Z" fill="#DBE9FF"></path>
<path fill-rule="evenodd" clip-rule="evenodd" d="M11.9754 10.477C11.6838 9.60013 11.3095 8.95404 10.8717 8.51135C10.3647 7.99874 9.78063 7.76799 9.17839 7.76684C7.99999 7.76459 6.83984 8.63482 6.05352 9.6998C5.26585 10.7666 4.76927 12.1414 5.03752 13.2661C5.17488 13.8421 5.51225 14.3433 6.09149 14.6814C6.56594 14.9583 7.18734 15.1171 7.96754 15.1366C6.64597 17.7941 6.13601 20.8997 6.21392 23.6532C6.25508 25.1077 6.46042 26.4721 6.80184 27.6285C7.1123 28.6799 7.54061 29.5774 8.07579 30.2113C7.59136 31.0299 7.4777 32.2196 7.92279 33.1209C8.17012 33.6217 8.5913 34.0342 9.20879 34.2332C9.81997 34.4303 10.5941 34.4092 11.54 34.1068C11.7274 34.0469 11.9811 33.9215 12.2793 33.7526C12.5827 33.5808 12.9487 33.3543 13.3662 33.0814C14.2013 32.5353 15.2512 31.7971 16.4317 30.9244C18.7932 29.1788 21.6861 26.8887 24.4443 24.507C27.2006 22.1268 29.8308 19.6479 31.6614 17.5254C32.5755 16.4655 33.3006 15.4828 33.7407 14.6374C33.9608 14.2147 34.1157 13.8149 34.183 13.4488C34.2504 13.0823 34.2332 12.7308 34.0849 12.4248C33.4798 11.1762 32.7392 10.5598 31.9864 10.3175C31.3387 10.1089 30.7242 10.1916 30.2539 10.3196C29.5722 9.48513 28.4784 8.83748 27.1611 8.38613C25.753 7.90366 24.0606 7.63529 22.2678 7.61183C18.8175 7.56667 14.9491 8.42861 11.9754 10.477ZM29.7452 10.6232C29.1536 9.93527 28.1956 9.35897 26.9715 8.93953C25.6324 8.48069 24.003 8.21957 22.2601 8.19676C18.7696 8.15108 14.8735 9.06115 11.9883 11.1859C11.9015 11.2498 11.8185 11.3693 11.7407 11.5631C11.6638 11.7544 11.6048 11.9841 11.5443 12.2378C11.5361 12.2722 11.5279 12.3072 11.5196 12.3424C11.4685 12.5588 11.4143 12.7887 11.3469 12.9964C11.2693 13.2355 11.1632 13.4828 10.9934 13.668C10.6354 14.0583 10.1456 14.2147 9.74992 14.3411C9.71007 14.3538 9.67117 14.3662 9.63346 14.3786C9.18986 14.5235 8.88259 14.6577 8.70886 14.9782C7.27807 17.618 6.71866 20.8092 6.79867 23.6367C6.83863 25.049 7.03795 26.3623 7.36288 27.4628C7.64933 28.433 8.02848 29.2211 8.46823 29.7677L29.7452 10.6232ZM8.6628 30.3796C8.20251 31.0342 8.07256 32.103 8.4473 32.8618C8.63107 33.234 8.93468 33.5302 9.3883 33.6765C9.84821 33.8248 10.4915 33.8278 11.3619 33.5496C11.4879 33.5093 11.6973 33.41 11.9911 33.2436C12.2797 33.0801 12.6345 32.8609 13.046 32.5918C13.8687 32.0538 14.9089 31.3227 16.084 30.454C18.434 28.7169 21.3153 26.436 24.0619 24.0642C26.8103 21.6909 29.4155 19.2338 31.2185 17.1433C32.1212 16.0967 32.8124 15.1537 33.2218 14.3673C33.4265 13.9742 33.5546 13.6316 33.6077 13.343C33.6607 13.0547 33.6357 12.8392 33.5585 12.6799C33.0039 11.5356 32.3706 11.0557 31.8072 10.8743C31.2594 10.698 30.7243 10.7859 30.2933 10.917L8.6628 30.3796ZM8.28584 14.5519C7.41753 14.5723 6.80408 14.4199 6.38635 14.1761C5.95256 13.923 5.70887 13.5595 5.60654 13.1304C5.3954 12.2451 5.78493 11.0484 6.52412 10.0473C7.26465 9.0443 8.2721 8.35009 9.17728 8.35182C9.61683 8.35266 10.0535 8.51599 10.4558 8.9227C10.8409 9.31212 11.2007 9.93197 11.4833 10.8596C11.3563 11.002 11.2664 11.1745 11.1978 11.345C11.1028 11.5816 11.0353 11.8507 10.9753 12.1022C10.9665 12.1391 10.9579 12.1755 10.9494 12.2115C10.8978 12.4297 10.8498 12.6329 10.7904 12.8158C10.7205 13.0315 10.6458 13.1816 10.5623 13.2725C10.3144 13.5428 9.97388 13.6532 9.55215 13.7899C9.51917 13.8006 9.48569 13.8114 9.45172 13.8225C9.05683 13.9516 8.58991 14.1189 8.28584 14.5519Z" fill="#1A468D"></path>
<path fill-rule="evenodd" clip-rule="evenodd" d="M44.5771 23L44.6731 23.1283C44.9395 23.4842 45.311 24.1215 45.5864 24.7577C45.7245 25.0767 45.8424 25.4045 45.9099 25.7033C45.9751 25.9915 46.0039 26.2965 45.9173 26.5447C45.8756 26.664 45.8288 26.7679 45.7726 26.8527C45.7166 26.9371 45.6396 27.0198 45.5307 27.0692C45.2923 27.1775 45.0766 27.0575 44.9814 26.9996C44.9579 26.9853 44.9338 26.9697 44.9104 26.954C45.3903 28.418 45.9886 30.3976 46.4213 32.1823C46.668 33.1999 46.8629 34.1622 46.9501 34.9325C46.9936 35.317 47.0113 35.6628 46.9926 35.948C46.9747 36.2194 46.9215 36.49 46.775 36.6763C46.2889 37.295 44.9231 38.4582 42.8469 39.5416C40.7622 40.6295 37.9401 41.6484 34.5283 41.9585C32.9033 42.1062 31.6676 41.8509 30.7748 41.3299C29.8787 40.807 29.3555 40.0321 29.1312 39.1954C28.9082 38.3632 28.9802 37.4708 29.2657 36.6919C29.5503 35.915 30.0567 35.2264 30.73 34.8248C31.7991 34.187 32.7584 33.8776 33.4761 33.6462C33.5899 33.6095 33.6976 33.5747 33.7987 33.541C34.1787 33.414 34.4328 33.3107 34.5945 33.188C34.7323 33.0833 34.8006 32.9675 34.8006 32.7711C34.8006 32.5854 34.7368 32.2833 34.6195 31.8927C34.5048 31.5103 34.3476 31.0705 34.1789 30.621C34.0825 30.3639 33.9816 30.102 33.8831 29.8465C33.7203 29.4239 33.5642 29.0189 33.4463 28.6822C33.3773 28.7299 33.3077 28.7718 33.2377 28.8062C33.0401 28.9033 32.8013 28.9584 32.5608 28.8671C32.3274 28.7784 32.1683 28.5798 32.056 28.3395C31.9423 28.0962 31.857 27.7698 31.7951 27.3559C31.6856 26.6248 31.5016 26.1952 31.3622 25.8698C31.3163 25.7628 31.2753 25.667 31.2434 25.5755C31.1778 25.3879 31.1333 25.1586 31.2941 24.9329C31.424 24.7505 31.6646 24.6143 31.9584 24.4741C32.1158 24.399 32.3748 24.3303 32.6816 24.265C32.9986 24.1975 33.3978 24.1273 33.8565 24.0563C34.7744 23.9142 35.9433 23.7664 37.1954 23.6274C39.6992 23.3494 42.5488 23.1046 44.4121 23.0085L44.5771 23ZM33.9843 28.4063C34.0977 28.7392 34.2597 29.1596 34.4356 29.616C34.5365 29.8778 34.642 30.1515 34.7454 30.4274C34.9152 30.88 35.0777 31.3339 35.198 31.7346C35.3158 32.127 35.4024 32.4974 35.4024 32.7711C35.4024 33.149 35.245 33.428 34.9691 33.6374C34.7171 33.8287 34.3695 33.9587 33.9975 34.083C33.8908 34.1187 33.7792 34.1547 33.6631 34.1922C32.9462 34.4239 32.0544 34.712 31.0489 35.3118C30.5187 35.628 30.0849 36.1957 29.8337 36.8815C29.5831 37.5652 29.5236 38.3418 29.7142 39.0531C29.9036 39.7598 30.3394 40.4027 31.0887 40.8399C31.8412 41.2791 32.9371 41.5263 34.4712 41.3868C37.7901 41.0851 40.534 40.094 42.5582 39.0377C44.5911 37.9769 45.8772 36.8616 46.2937 36.3317C46.3278 36.2883 46.3754 36.1652 46.392 35.9121C46.4078 35.6728 46.3936 35.3631 46.3518 34.9941C46.2685 34.2575 46.0798 33.321 45.8351 32.3118C45.3715 30.3998 44.7141 28.2556 44.2212 26.7779L33.9843 28.4063ZM32.8127 24.8255C32.5018 24.8917 32.3107 24.9481 32.2275 24.9878C31.9195 25.1348 31.8216 25.2139 31.7917 25.2559C31.7858 25.2641 31.7856 25.2657 31.7856 25.2736C31.7854 25.2902 31.79 25.3246 31.8142 25.3939C31.8352 25.4539 31.8669 25.5276 31.9053 25.6168C32.0437 25.9384 32.2691 26.4618 32.3907 27.2747C32.4491 27.6648 32.5243 27.9318 32.6055 28.1055C32.6882 28.2822 32.7585 28.3241 32.7833 28.3335C32.8011 28.3402 32.8494 28.3511 32.9621 28.2957C33.0765 28.2394 33.2174 28.1332 33.3845 27.9737L33.4527 27.9086L44.3899 26.1689L44.4011 26.1679C44.6376 26.1474 44.833 26.2241 44.9785 26.3044C45.0508 26.3443 45.1161 26.3881 45.1697 26.4248C45.1811 26.4326 45.1917 26.44 45.2018 26.4469C45.2355 26.4701 45.2624 26.4886 45.2877 26.5047C45.3045 26.4721 45.3243 26.4263 45.3464 26.3631C45.3801 26.2666 45.3814 26.0883 45.3217 25.8243C45.2645 25.571 45.1605 25.2778 45.0303 24.977C44.8014 24.4482 44.5038 23.9239 44.2755 23.591C42.4271 23.6919 39.6855 23.929 37.2649 24.1978C36.0173 24.3364 34.8583 24.483 33.9529 24.6232C33.4999 24.6933 33.1135 24.7614 32.8127 24.8255Z" fill="#1A468D"></path>
<path fill-rule="evenodd" clip-rule="evenodd" d="M52.7117 16L52.8024 16.1351C53.0539 16.5097 53.4049 17.1805 53.665 17.8502C53.7954 18.186 53.9068 18.531 53.9705 18.8456C54.032 19.1489 54.0593 19.47 53.9774 19.7312C53.9381 19.8568 53.8939 19.9662 53.8408 20.0555C53.7879 20.1443 53.7152 20.2313 53.6124 20.2834C53.3872 20.3974 53.1835 20.271 53.0935 20.2101C53.0713 20.1951 53.0486 20.1786 53.0265 20.1621C53.4797 21.7032 54.0448 23.7869 54.4535 25.6656C54.6865 26.7367 54.8705 27.7497 54.9528 28.5605C54.9939 28.9652 55.0107 29.3292 54.993 29.6295C54.9762 29.9152 54.9258 30.2 54.7875 30.3961C54.3284 31.0473 53.0385 32.2717 51.0776 33.4122C49.1087 34.5573 46.4434 35.6299 43.2212 35.9563C41.6865 36.1118 40.5194 35.8431 39.6762 35.2946C38.8299 34.7442 38.3358 33.9285 38.1239 33.0478C37.9133 32.1718 37.9813 31.2325 38.2509 30.4125C38.5197 29.5947 38.998 28.8699 39.6339 28.4471C40.6436 27.7758 41.5496 27.4501 42.2275 27.2065C42.3349 27.1679 42.4366 27.1313 42.5321 27.0958C42.891 26.9621 43.131 26.8534 43.2837 26.7242C43.4139 26.614 43.4784 26.4921 43.4784 26.2854C43.4784 26.0899 43.4181 25.7719 43.3073 25.3608C43.1989 24.9583 43.0505 24.4953 42.8912 24.0221C42.8001 23.7515 42.7048 23.4758 42.6118 23.2068C42.458 22.762 42.3106 22.3356 42.1993 21.9813C42.1341 22.0314 42.0684 22.0755 42.0022 22.1118C41.8157 22.214 41.5901 22.272 41.363 22.1759C41.1426 22.0825 40.9923 21.8734 40.8862 21.6205C40.7788 21.3645 40.6983 21.0208 40.6398 20.5852C40.5364 19.8155 40.3626 19.3634 40.2309 19.0208C40.1876 18.9082 40.1489 18.8074 40.1187 18.7111C40.0568 18.5136 40.0148 18.2722 40.1666 18.0347C40.2894 17.8427 40.5166 17.6993 40.794 17.5517C40.9427 17.4726 41.1873 17.4004 41.4771 17.3316C41.7765 17.2605 42.1535 17.1867 42.5867 17.1119C43.4536 16.9623 44.5576 16.8068 45.7401 16.6604C48.1048 16.3677 50.7961 16.1101 52.5558 16.009L52.7117 16ZM42.7074 21.6908C42.8145 22.0412 42.9675 22.4838 43.1336 22.9643C43.2289 23.2398 43.3285 23.5279 43.4263 23.8183C43.5866 24.2947 43.7401 24.7725 43.8537 25.1943C43.9649 25.6074 44.0467 25.9973 44.0467 26.2854C44.0467 26.6832 43.898 26.9768 43.6375 27.1973C43.3995 27.3987 43.0712 27.5355 42.7198 27.6663C42.6191 27.7039 42.5137 27.7418 42.4041 27.7813C41.727 28.0251 40.8847 28.3284 39.9351 28.9598C39.4343 29.2927 39.0246 29.8902 38.7873 30.6121C38.5507 31.3317 38.4945 32.1493 38.6745 32.898C38.8534 33.6419 39.265 34.3186 39.9726 34.7789C40.6833 35.2411 41.7184 35.5013 43.1673 35.3545C46.3018 35.037 48.8932 33.9937 50.805 32.8818C52.7249 31.7651 53.9396 30.5912 54.3329 30.0334C54.3651 29.9877 54.4101 29.8581 54.4258 29.5917C54.4407 29.3398 54.4272 29.0138 54.3878 28.6254C54.3091 27.85 54.1309 26.8642 53.8998 25.8019C53.462 23.7893 52.8411 21.5322 52.3756 19.9768L42.7074 21.6908ZM41.6009 17.9216C41.3072 17.9913 41.1267 18.0506 41.0482 18.0924C40.7573 18.2471 40.6648 18.3304 40.6366 18.3746C40.6311 18.3832 40.6309 18.385 40.6308 18.3933C40.6307 18.4108 40.635 18.4469 40.6579 18.5199C40.6777 18.5831 40.7076 18.6607 40.7439 18.7546C40.8746 19.093 41.0875 19.644 41.2024 20.4997C41.2575 20.9103 41.3285 21.1914 41.4052 21.3742C41.4833 21.5602 41.5497 21.6043 41.5732 21.6142C41.5899 21.6213 41.6355 21.6327 41.742 21.5744C41.85 21.5152 41.9831 21.4034 42.1409 21.2355L42.2053 21.167L52.5349 19.3356L52.5454 19.3346C52.7689 19.313 52.9533 19.3938 53.0908 19.4783C53.1591 19.5203 53.2207 19.5664 53.2713 19.6051C53.2821 19.6133 53.2922 19.621 53.3017 19.6283C53.3335 19.6527 53.359 19.6723 53.3828 19.6892C53.3987 19.6548 53.4174 19.6066 53.4383 19.5401C53.4701 19.4385 53.4713 19.2508 53.415 18.973C53.3609 18.7063 53.2627 18.3977 53.1397 18.0811C52.9235 17.5244 52.6425 16.9726 52.4268 16.6221C50.6811 16.7283 48.0919 16.9779 45.8058 17.2609C44.6275 17.4067 43.5328 17.561 42.6777 17.7086C42.2499 17.7825 41.885 17.8541 41.6009 17.9216Z" fill="#1A468D"></path>
</svg>