<svg width="44" height="48" viewBox="0 0 44 48" fill="none" xmlns="http://www.w3.org/2000/svg">
<path d="M16.1915 2.78157C21.5141 -2.38952 23.0851 8.69117 25.383 17.5557C26.4042 9.92238 26.3021 -0.470396 33.0426 1.30251C38.5992 2.76405 33.4421 9.42835 28.4468 14.6009L32.2766 15.3396L36.1064 16.0783L43 17.5557V22.2342L42.1436 22.725L42.234 35.2831L25.383 47.1025L17.9397 43.9815L13.8936 42.285L7.76596 39.7156V26.6665L7 26.4203V20.5106L21.482 15.351C17.0017 12.2757 11.8904 6.96018 16.1915 2.78157Z" fill="#FFDBEA"></path>
<path d="M25.383 17.5557C23.0851 8.69117 21.5141 -2.38952 16.1915 2.78157C10.4553 8.35449 21.4608 15.9496 25.383 17.5557ZM25.383 17.5557C26.4042 9.92238 26.3021 -0.470396 33.0426 1.30251C38.5992 2.76405 33.4421 9.42835 28.4468 14.6009M25.383 17.5557C24.9151 17.4354 25.9288 17.7792 25.383 17.5557ZM25.383 17.5557L13.1277 22.2342M25.383 17.5557C26.1233 16.8369 27.6635 15.4119 28.4468 14.6009M25.383 17.5557C24.8518 18.0715 25.87 17.1041 25.383 17.5557ZM25.383 17.5557L32.2766 15.3396M21.5141 15.3396L7 20.5106M7 20.5106L13.1277 22.2342M7 20.5106V26.4203L7.76596 26.6665M25.383 25.6816L43 17.5557M25.383 25.6816L17.5045 23.4654M25.383 25.6816L25.383 32.3283M43 17.5557L36.1064 16.0783M43 17.5557V22.2342L42.1436 22.725M28.4468 14.6009L32.2766 15.3396M13.1277 22.2342L17.5045 23.4654M13.1277 22.2342V28.3902M32.2766 15.3396L36.1064 16.0783M36.1064 16.0783L17.5045 23.4654M17.5045 23.4654V29.7972M13.1277 28.3902L7.76596 26.6665M13.1277 28.3902L13.8936 28.6364M17.5045 29.7972L13.8936 28.6364M17.5045 29.7972L17.9397 29.9371M7.76596 26.6665V39.7156L13.8936 42.2849M25.383 47.1025L42.234 35.2831L42.1436 22.725M25.383 47.1025L25.383 32.3283M25.383 47.1025L17.9397 43.9815M42.1436 22.725L25.383 32.3283M25.383 32.3283L25.383 32.33L17.9397 29.9371M13.8936 28.6364V42.2849M13.8936 42.2849L17.9397 43.9815M17.9397 29.9371V43.9815" stroke="#FFDBEA" stroke-width="0.5" stroke-linejoin="round"></path>
<path d="M19.383 17.5558C17.0851 8.69123 17.3226 -0.0684923 12 5.10259C6.2638 10.6755 15.4608 15.9497 19.383 17.5558ZM19.383 17.5558C20.4042 9.92244 19.7596 1.82963 26.5 3.60254C32.0566 5.06408 27.4421 9.42841 22.4468 14.6009M19.383 17.5558C18.9151 17.4354 19.9288 17.7793 19.383 17.5558ZM19.383 17.5558L7.12766 22.2343M19.383 17.5558C20.1233 16.8369 21.6635 15.412 22.4468 14.6009M19.383 17.5558C18.8518 18.0715 19.87 17.1041 19.383 17.5558ZM19.383 17.5558L26.2766 15.3396M15.3863 15.4786L1 20.5106M1 20.5106L7.12766 22.2343M1 20.5106V26.4203L1.76596 26.6666M19.383 25.6816L37 17.5558M19.383 25.6816L11.5045 23.4655M19.383 25.6816L19.383 32.3283M37 17.5558L30.1064 16.0784M37 17.5558V22.2343L36.1436 22.7251M22.4468 14.6009L26.2766 15.3396M7.12766 22.2343L11.5045 23.4655M7.12766 22.2343V28.3902M26.2766 15.3396L30.1064 16.0784M30.1064 16.0784L11.5045 23.4655M11.5045 23.4655V29.7973M7.12766 28.3902L1.76596 26.6666M7.12766 28.3902L7.89362 28.6365M11.5045 29.7973L7.89362 28.6365M11.5045 29.7973L11.9397 29.9372M1.76596 26.6666V39.7156L7.89362 42.285M19.383 47.1026L36.234 35.2832L36.1436 22.7251M19.383 47.1026L19.383 32.3283M19.383 47.1026L11.9397 43.9816M36.1436 22.7251L19.383 32.3283M19.383 32.3283L19.383 32.33L11.9397 29.9372M7.89362 28.6365V42.285M7.89362 42.285L11.9397 43.9816M11.9397 29.9372V43.9816" stroke="#1A468D" stroke-width="0.5" stroke-linejoin="round"></path>
</svg>