<svg width="39" height="41" viewBox="0 0 39 41" fill="none" xmlns="http://www.w3.org/2000/svg">
<path d="M16.1203 2.04619C16.9853 0.651272 19.0147 0.651272 19.8797 2.04618C20.4485 2.96326 21.5958 3.3361 22.5949 2.92851C24.1146 2.30855 25.7563 3.5015 25.6364 5.13855C25.5575 6.21481 26.2666 7.19093 27.3144 7.44851C28.9082 7.84029 29.5353 9.77053 28.4762 11.0244C27.7798 11.8488 27.7798 13.0553 28.4762 13.8797C29.5353 15.1336 28.9082 17.0638 27.3144 17.4556C26.2666 17.7132 25.5575 18.6893 25.6364 19.7656C25.7563 21.4026 24.1146 22.5956 22.5949 21.9756C21.5958 21.568 20.4485 21.9409 19.8797 22.8579C19.1421 24.0474 17.5579 24.2226 16.5709 23.3836C16.4004 23.2386 16.2477 23.0634 16.1203 22.8579C15.5515 21.9409 14.4042 21.568 13.4051 21.9756C13.1914 22.0628 12.9752 22.1141 12.7619 22.1334C11.4585 22.2512 10.2606 21.1724 10.3636 19.7656C10.4425 18.6893 9.7334 17.7132 8.68557 17.4556C7.09178 17.0638 6.46469 15.1336 7.52383 13.8797C8.22016 13.0553 8.22016 11.8488 7.52383 11.0244C6.46469 9.77053 7.09178 7.84029 8.68557 7.44851C9.7334 7.19093 10.4425 6.21481 10.3636 5.13855C10.2437 3.5015 11.8854 2.30855 13.4051 2.92851C14.4042 3.3361 15.5515 2.96326 16.1203 2.04619Z" fill="#E7DFFF"></path>
<path d="M25.2934 12.4521C25.2934 16.4806 22.028 19.7464 18 19.7464C13.972 19.7464 10.7066 16.4806 10.7066 12.4521C10.7066 8.42352 13.972 5.15774 18 5.15774C22.028 5.15774 25.2934 8.42352 25.2934 12.4521Z" fill="#E7DFFF"></path>
<path d="M16.1203 22.8579C15.5515 21.9409 14.4042 21.568 13.4051 21.9756C13.1914 22.0628 12.9752 22.1141 12.7619 22.1334L8.57143 37.4384L11.1905 35.8767L12.7619 39L16.5709 23.3836C16.4004 23.2386 16.2477 23.0634 16.1203 22.8579Z" fill="#E7DFFF"></path>
<path d="M22.5949 21.9756C21.5958 21.568 20.4485 21.9409 19.8797 22.8579C19.7523 23.0634 19.5996 23.2386 19.4291 23.3836L23.2381 39L24.8095 36.3544L27.4286 37.149L23.2381 22.1334C23.0248 22.1141 22.8086 22.0628 22.5949 21.9756Z" fill="#E7DFFF"></path>
<path fill-rule="evenodd" clip-rule="evenodd" d="M15.8016 1.84854C16.8133 0.217152 19.1867 0.217152 20.1984 1.84854C20.6708 2.61016 21.6236 2.91977 22.4533 2.58129C24.2306 1.85619 26.1507 3.25147 26.0104 5.16595C25.9449 6.05981 26.5338 6.87044 27.404 7.08435C29.268 7.54257 30.0013 9.8 28.7627 11.2664C28.1844 11.951 28.1844 12.9531 28.7627 13.6377C30.0013 15.1041 29.268 17.3615 27.404 17.8198C26.5338 18.0337 25.9449 18.8443 26.0104 19.7382C26.1169 21.1922 25.035 22.3467 23.7298 22.5003L27.9734 37.7062L24.9819 36.7985L23.0915 39.9812L19.1915 23.992C18.4487 24.375 17.5513 24.3742 16.8087 23.9913L12.8848 40.0786L11.0366 36.4051L7.96392 38.2372L12.2727 22.5001C10.9669 22.3475 9.88295 21.1946 9.98966 19.7382C10.0552 18.8443 9.46623 18.0337 8.59607 17.8198C6.73204 17.3615 5.99872 15.1041 7.23738 13.6377C7.81568 12.9531 7.81568 11.951 7.23738 11.2664C5.99872 9.8 6.73204 7.54257 8.59607 7.08435C9.46623 6.87044 10.0552 6.05981 9.98966 5.16595C9.84939 3.25147 11.7694 1.85619 13.5468 2.58129C14.3765 2.91977 15.3293 2.61016 15.8016 1.84854ZM13.0588 22.4692L9.17898 36.6395L11.3444 35.3483L12.639 37.9214L16.1547 23.5075C16.024 23.3737 15.9054 23.2229 15.8016 23.0556C15.3293 22.2939 14.3765 21.9843 13.5468 22.3228C13.3853 22.3887 13.2221 22.4372 13.0588 22.4692ZM20.1984 23.0556C20.1821 23.0819 20.1654 23.1079 20.1483 23.1334C20.0567 23.2706 19.9551 23.3954 19.8454 23.5079L23.3848 38.0188L24.6372 35.9102L26.8838 36.5918L22.9426 22.4697C22.7794 22.4377 22.6158 22.3891 22.4533 22.3228C21.6236 21.9843 20.6708 22.2939 20.1984 23.0556ZM22.7366 21.6284C22.7586 21.6374 22.7806 21.6459 22.8027 21.654C24.0457 22.1085 25.3603 21.1289 25.2624 19.793C25.1702 18.5343 25.9994 17.3927 27.2249 17.0914C28.5485 16.7661 29.0694 15.1631 28.1897 14.1217C27.3754 13.1576 27.3754 11.7465 28.1897 10.7824C29.0694 9.74106 28.5485 8.13802 27.2249 7.81266C25.9994 7.51141 25.1702 6.36981 25.2624 5.11115C25.362 3.75152 23.9985 2.7609 22.7366 3.27573C21.5681 3.75243 20.2262 3.31635 19.5611 2.24382C18.8426 1.08539 17.1574 1.08539 16.439 2.24383C15.7738 3.31635 14.432 3.75243 13.2635 3.27573C12.0015 2.7609 10.638 3.75152 10.7377 5.11115C10.8299 6.36981 10.0006 7.51141 8.77511 7.81266C7.45155 8.13802 6.93069 9.74106 7.81033 10.7824C8.62469 11.7465 8.62469 13.1576 7.81033 14.1217C6.93069 15.1631 7.45155 16.7661 8.77511 17.0914C10.0006 17.3927 10.8299 18.5343 10.7377 19.793C10.6522 20.9592 11.6454 21.8578 12.7282 21.7599C12.9044 21.744 13.0842 21.7015 13.2635 21.6284C14.432 21.1517 15.7738 21.5878 16.439 22.6603C16.5459 22.8326 16.673 22.9781 16.8138 23.0978C17.6339 23.795 18.9496 23.6462 19.5611 22.6603C20.2262 21.5878 21.5681 21.1517 22.7366 21.6284ZM18 5.53274C14.1792 5.53274 11.0816 8.63058 11.0816 12.4521C11.0816 16.2735 14.1792 19.3714 18 19.3714C21.8209 19.3714 24.9184 16.2735 24.9184 12.4521C24.9184 8.63058 21.8209 5.53274 18 5.53274ZM10.3316 12.4521C10.3316 8.21646 13.7649 4.78274 18 4.78274C22.2352 4.78274 25.6684 8.21646 25.6684 12.4521C25.6684 16.6877 22.2352 20.1214 18 20.1214C13.7649 20.1214 10.3316 16.6877 10.3316 12.4521Z" fill="#E7DFFF"></path>
<path d="M38 24C38 27.3137 35.3137 30 32 30C28.6863 30 26 27.3137 26 24C26 20.6863 28.6863 18 32 18C35.3137 18 38 20.6863 38 24Z" fill="#E7DFFF"></path>
<path fill-rule="evenodd" clip-rule="evenodd" d="M26.3873 23.625H27C27.2071 23.625 27.375 23.7929 27.375 24C27.375 24.2071 27.2071 24.375 27 24.375H26.3873C26.5721 27.1828 28.8172 29.4279 31.625 29.6127V29C31.625 28.7929 31.7929 28.625 32 28.625C32.2071 28.625 32.375 28.7929 32.375 29V29.6127C35.1828 29.4279 37.4279 27.1828 37.6127 24.375H37C36.7929 24.375 36.625 24.2071 36.625 24C36.625 23.7929 36.7929 23.625 37 23.625H37.6127C37.4279 20.8172 35.1828 18.5721 32.375 18.3873V19C32.375 19.2071 32.2071 19.375 32 19.375C31.7929 19.375 31.625 19.2071 31.625 19V18.3873C28.8172 18.5721 26.5721 20.8172 26.3873 23.625ZM25.625 24C25.625 20.4792 28.4792 17.625 32 17.625C35.5208 17.625 38.375 20.4792 38.375 24C38.375 27.5208 35.5208 30.375 32 30.375C28.4792 30.375 25.625 27.5208 25.625 24ZM33.1861 20.6744C33.3659 20.7772 33.4283 21.0062 33.3256 21.1861L31.4548 24.46L33.7881 27.2599C33.9207 27.419 33.8992 27.6555 33.7401 27.7881C33.581 27.9207 33.3445 27.8992 33.2119 27.7401L30.7119 24.7401C30.6117 24.6198 30.5967 24.4499 30.6744 24.3139L32.6744 20.8139C32.7772 20.6341 33.0062 20.5717 33.1861 20.6744Z" fill="#E7DFFF"></path>
<path fill-rule="evenodd" clip-rule="evenodd" d="M9.8016 1.84854C10.8133 0.217152 13.1867 0.217152 14.1984 1.84854C14.6708 2.61016 15.6236 2.91977 16.4533 2.58129C18.2306 1.85619 20.1507 3.25147 20.0104 5.16595C19.9449 6.05981 20.5338 6.87044 21.404 7.08435C23.268 7.54257 24.0013 9.8 22.7627 11.2664C22.1844 11.951 22.1844 12.9531 22.7627 13.6377C24.0013 15.1041 23.268 17.3615 21.404 17.8198C20.5338 18.0337 19.9449 18.8443 20.0104 19.7382C20.1169 21.1922 19.035 22.3467 17.7298 22.5003L21.9734 37.7062L18.9819 36.7985L17.0915 39.9812L13.1915 23.992C12.4487 24.375 11.5513 24.3742 10.8087 23.9913L6.88483 40.0786L5.03656 36.4051L1.96392 38.2372L6.27274 22.5C4.96688 22.3475 3.88295 21.1946 3.98966 19.7382C4.05515 18.8443 3.46623 18.0337 2.59607 17.8198C0.732044 17.3615 -0.00127518 15.1041 1.23738 13.6377C1.81568 12.9531 1.81568 11.951 1.23738 11.2664C-0.00127518 9.8 0.732044 7.54257 2.59607 7.08435C3.46623 6.87044 4.05515 6.05981 3.98966 5.16595C3.84939 3.25147 5.7694 1.85619 7.54678 2.58129C8.37646 2.91977 9.32928 2.61016 9.8016 1.84854ZM7.05878 22.4692L3.17898 36.6395L5.34444 35.3483L6.63902 37.9214L10.1547 23.5075C10.024 23.3737 9.90538 23.2229 9.8016 23.0556C9.32928 22.2939 8.37646 21.9843 7.54678 22.3228C7.38534 22.3887 7.22209 22.4372 7.05878 22.4692ZM13.8454 23.5079L17.3848 38.0188L18.6372 35.9102L20.8838 36.5918L16.9426 22.4697C16.7794 22.4377 16.6158 22.3891 16.4533 22.3228C15.6236 21.9843 14.6708 22.2939 14.1984 23.0556C14.0942 23.2237 13.9755 23.3744 13.8454 23.5079ZM13.5611 2.24382C12.8426 1.08539 11.1574 1.08539 10.439 2.24383C9.77384 3.31635 8.43197 3.75243 7.26347 3.27573C6.00152 2.7609 4.63804 3.75152 4.73766 5.11115C4.82988 6.36981 4.0006 7.51141 2.77511 7.81266C1.45155 8.13802 0.93069 9.74106 1.81033 10.7824C2.62469 11.7465 2.62469 13.1576 1.81033 14.1217C0.93069 15.1631 1.45155 16.7661 2.77511 17.0914C4.0006 17.3927 4.82988 18.5343 4.73766 19.793C4.65221 20.9592 5.64541 21.8578 6.72817 21.7599C6.90443 21.744 7.08421 21.7015 7.26347 21.6284C8.43197 21.1517 9.77384 21.5878 10.439 22.6603C10.5459 22.8326 10.673 22.9781 10.8138 23.0978C11.6339 23.795 12.9496 23.6462 13.5611 22.6603C14.2262 21.5878 15.5681 21.1517 16.7366 21.6284C17.9985 22.1432 19.362 21.1526 19.2624 19.793C19.1702 18.5343 19.9994 17.3927 21.2249 17.0914C22.5485 16.7661 23.0694 15.1631 22.1897 14.1217C21.3754 13.1576 21.3754 11.7465 22.1897 10.7824C23.0694 9.74106 22.5485 8.13802 21.2249 7.81266C19.9994 7.51141 19.1702 6.36981 19.2624 5.11115C19.362 3.75152 17.9985 2.7609 16.7366 3.27573C15.5681 3.75243 14.2262 3.31635 13.5611 2.24382ZM12 5.53274C8.17916 5.53274 5.08165 8.63058 5.08165 12.4521C5.08165 16.2735 8.17916 19.3714 12 19.3714C15.8209 19.3714 18.9184 16.2735 18.9184 12.4521C18.9184 8.63058 15.8209 5.53274 12 5.53274ZM4.33165 12.4521C4.33165 8.21646 7.76485 4.78274 12 4.78274C16.2352 4.78274 19.6684 8.21646 19.6684 12.4521C19.6684 16.6877 16.2352 20.1214 12 20.1214C7.76485 20.1214 4.33165 16.6877 4.33165 12.4521Z" fill="#1A468D"></path>
<path fill-rule="evenodd" clip-rule="evenodd" d="M20.3873 23.625H21C21.2071 23.625 21.375 23.7929 21.375 24C21.375 24.2071 21.2071 24.375 21 24.375H20.3873C20.5721 27.1828 22.8172 29.4279 25.625 29.6127V29C25.625 28.7929 25.7929 28.625 26 28.625C26.2071 28.625 26.375 28.7929 26.375 29V29.6127C29.1828 29.4279 31.4279 27.1828 31.6127 24.375H31C30.7929 24.375 30.625 24.2071 30.625 24C30.625 23.7929 30.7929 23.625 31 23.625H31.6127C31.4279 20.8172 29.1828 18.5721 26.375 18.3873V19C26.375 19.2071 26.2071 19.375 26 19.375C25.7929 19.375 25.625 19.2071 25.625 19V18.3873C22.8172 18.5721 20.5721 20.8172 20.3873 23.625ZM19.625 24C19.625 20.4792 22.4792 17.625 26 17.625C29.5208 17.625 32.375 20.4792 32.375 24C32.375 27.5208 29.5208 30.375 26 30.375C22.4792 30.375 19.625 27.5208 19.625 24ZM27.1861 20.6744C27.3659 20.7772 27.4283 21.0062 27.3256 21.1861L25.4548 24.46L27.7881 27.2599C27.9207 27.419 27.8992 27.6555 27.7401 27.7881C27.581 27.9207 27.3445 27.8992 27.2119 27.7401L24.7119 24.7401C24.6117 24.6198 24.5967 24.4499 24.6744 24.3139L26.6744 20.8139C26.7772 20.6341 27.0062 20.5717 27.1861 20.6744Z" fill="#1A468D"></path>
</svg>