<svg width="45" height="40" viewBox="0 0 45 40" fill="none" xmlns="http://www.w3.org/2000/svg">
<path d="M11.4205 8.90966C11.6547 8.16698 12.7889 4.07061 13.478 3.81045C14.3394 3.48526 15.1992 4.25555 15.2875 4.78848C15.3757 5.32141 15.1394 9.66403 15.0582 10.2785C16.7689 10.6606 26.509 9.82233 30.5897 6.79341C30.2083 5.96445 27.9949 2.8428 28.1623 2.08498C28.246 1.70608 28.683 1.08611 29.0547 0.841984C29.4265 0.597859 32.1528 2.30534 32.9745 4.50551C33.0924 4.66466 33.2129 4.82732 33.3355 4.99335C33.3976 5.07758 33.4604 5.16268 33.5236 5.24863C37.8289 4.53553 36.9993 7.34123 36.0463 8.83322C40.9264 8.46296 40.0708 12.1121 39.033 13.983C44.5737 14.3685 42.7682 18.0534 41.1729 19.8477C45.7226 21.8684 43.3409 24.5383 41.5813 25.6206C45.2272 29.2512 41.6948 30.5298 39.4729 30.7153C40.6749 36.5028 36.5484 35.641 34.3349 34.4866C33.5449 40.166 29.7148 38.3416 27.8985 36.7195C25.5253 41.8424 22.3124 39.0965 21.0027 37.0831C16.2027 40.8169 14.9337 37.1072 14.8992 34.7856C9.5396 36.2574 10.2208 32.1535 11.2313 29.9176C5.87966 29.3438 7.8077 26.2259 9.44068 24.7386C5.4575 22.9161 7.66338 20.5917 9.26422 19.6574C5.65775 16.8964 8.33806 15.0045 10.129 14.4036C6.68344 11.178 9.44944 9.83176 11.2631 9.56187C11.3151 9.34678 11.3675 9.1294 11.4205 8.90966Z" fill="#DBE9FF"></path>
<path fill-rule="evenodd" clip-rule="evenodd" d="M29.1507 1.09952C29.1507 1.0995 29.1512 1.09944 29.1525 1.09941L29.1507 1.09952ZM29.1738 1.10085C29.1866 1.10244 29.2048 1.10559 29.2289 1.11154C29.3129 1.13231 29.4326 1.17795 29.5832 1.25314C29.8821 1.40238 30.2664 1.64965 30.6695 1.97545C31.4433 2.60072 32.2487 3.48461 32.6564 4.46381C32.1723 5.11605 31.9266 5.40627 31.6674 5.63817C31.4865 5.80003 31.3028 5.9315 31.0253 6.13014C30.9258 6.20131 30.8143 6.28111 30.6866 6.37401C30.5737 6.17357 30.4264 5.93041 30.2651 5.66778C30.2008 5.56301 30.1337 5.45431 30.0649 5.34268C29.8552 5.00292 29.6288 4.63594 29.4116 4.26948C29.1227 3.78203 28.8559 3.30498 28.6722 2.9064C28.5803 2.70681 28.5126 2.53418 28.4729 2.39432C28.4306 2.24514 28.431 2.16962 28.4363 2.14554C28.4663 2.00975 28.5718 1.79615 28.7289 1.57599C28.8723 1.37514 29.0351 1.20173 29.1738 1.10085ZM30.2295 6.70661C30.1246 6.51644 29.9712 6.26183 29.7868 5.96144C29.7238 5.85879 29.6576 5.7515 29.5893 5.64077C29.3791 5.30011 29.1488 4.92687 28.9288 4.55564C28.6376 4.06433 28.3587 3.56707 28.1625 3.14129C28.0645 2.92871 27.9838 2.72665 27.9329 2.5475C27.8848 2.37768 27.8518 2.18988 27.8883 2.0245C27.942 1.78139 28.0968 1.49555 28.2721 1.24997C28.4488 1.00225 28.6747 0.755883 28.9007 0.607445C28.9864 0.551186 29.0795 0.538769 29.1485 0.538145C29.2205 0.537494 29.294 0.549478 29.3636 0.56668C29.503 0.601157 29.6638 0.666051 29.8339 0.750985C30.1764 0.921997 30.5947 1.19333 31.0223 1.53891C31.8643 2.21933 32.7822 3.22008 33.2232 4.36976C33.3337 4.519 33.4465 4.67135 33.5612 4.82671C33.5902 4.86593 33.6193 4.90534 33.6485 4.94494C34.6595 4.7942 35.4162 4.83557 35.9638 5.03431C36.5598 5.25056 36.8979 5.65062 37.0281 6.14219C37.1532 6.61425 37.0795 7.14156 36.9274 7.62729C36.8298 7.93919 36.6961 8.24594 36.5478 8.52802C37.5359 8.50875 38.2912 8.66867 38.8513 8.97182C39.517 9.33217 39.8814 9.88139 40.0316 10.5017C40.1793 11.1115 40.1188 11.7807 39.9627 12.4051C39.8446 12.8774 39.6689 13.3353 39.4744 13.74C40.6625 13.8667 41.5159 14.1598 42.0949 14.5832C42.7536 15.0648 43.0357 15.6998 43.0595 16.3773C43.0827 17.0402 42.8591 17.73 42.5409 18.3558C42.2836 18.8618 41.9573 19.34 41.6252 19.7487C42.5975 20.2229 43.2467 20.7409 43.6329 21.2883C44.0695 21.9072 44.1574 22.5467 44.0164 23.15C43.8781 23.7416 43.5244 24.282 43.1061 24.7363C42.774 25.097 42.3921 25.4135 42.0205 25.6693C42.7958 26.4908 43.2267 27.2156 43.3758 27.8589C43.5443 28.5855 43.3471 29.1833 42.9377 29.6459C42.5399 30.0953 41.9528 30.4065 41.3441 30.6169C40.8392 30.7913 40.3017 30.9024 39.8073 30.963C40.0485 32.2803 40.0103 33.2733 39.7531 34.002C39.4704 34.8026 38.9297 35.2644 38.2688 35.4719C37.6237 35.6745 36.8827 35.6302 36.1791 35.4721C35.6099 35.3441 35.0483 35.1379 34.5535 34.9073C34.3381 36.1524 33.9627 37.0405 33.4676 37.6386C32.9153 38.3058 32.2295 38.5931 31.5127 38.6216C30.8074 38.6497 30.0856 38.4274 29.4348 38.1052C28.9059 37.8433 28.4115 37.5092 27.9932 37.1689C27.4296 38.2885 26.8108 39.0255 26.1583 39.4551C25.4344 39.9318 24.6894 40.0161 23.9874 39.8506C23.2953 39.6875 22.6562 39.2851 22.1134 38.8067C21.6548 38.4024 21.2544 37.9348 20.937 37.4859C19.8228 38.3165 18.8787 38.76 18.078 38.9022C17.2086 39.0564 16.515 38.8532 15.9867 38.4227C15.4687 38.0007 15.1336 37.3802 14.9254 36.7353C14.7563 36.2115 14.6659 35.6563 14.6328 35.1444C13.4379 35.4344 12.5228 35.4439 11.8385 35.2279C11.0719 34.986 10.623 34.4697 10.4102 33.8306C10.2026 33.207 10.222 32.4774 10.3483 31.7786C10.4507 31.2122 10.6264 30.6493 10.8268 30.1509C9.66734 29.991 8.84576 29.6989 8.29942 29.3027C7.68049 28.8538 7.42605 28.278 7.43618 27.6661C7.44598 27.0738 7.70242 26.4747 8.04264 25.9433C8.30588 25.5321 8.62886 25.1465 8.95583 24.8154C8.142 24.397 7.59673 23.9433 7.27464 23.4637C6.89863 22.9039 6.84045 22.3285 6.9878 21.7908C7.13186 21.2651 7.46754 20.7897 7.85574 20.393C8.14152 20.1009 8.46416 19.843 8.78051 19.63C8.04358 19.0139 7.58873 18.4238 7.36513 17.8596C7.1069 17.208 7.16554 16.6111 7.4212 16.0958C7.67172 15.5908 8.10343 15.1785 8.57296 14.858C8.90677 14.6301 9.26851 14.4426 9.61726 14.2968C8.93315 13.6013 8.52145 12.9769 8.33166 12.4139C8.10947 11.7548 8.19498 11.1872 8.48645 10.7247C8.76984 10.2751 9.2309 9.95113 9.71774 9.72431C10.144 9.52573 10.6081 9.39306 11.034 9.31544C11.0716 9.15948 11.1095 9.00233 11.1477 8.84396L11.15 8.83455L11.1529 8.82531C11.1808 8.73669 11.2231 8.59484 11.2771 8.41405C11.441 7.86445 11.7123 6.955 12.0135 6.08713C12.2141 5.5092 12.4319 4.93787 12.6456 4.49139C12.7522 4.26877 12.8616 4.06882 12.9719 3.91227C13.0734 3.76811 13.2079 3.61251 13.3789 3.54795C13.9157 3.34528 14.4402 3.48996 14.8264 3.74295C15.2016 3.98871 15.5033 4.37434 15.5643 4.74266C15.5794 4.83382 15.5851 4.98106 15.5869 5.14923C15.5888 5.32456 15.5864 5.54376 15.5809 5.79104C15.5698 6.28596 15.5459 6.90051 15.5167 7.51624C15.4696 8.51182 15.408 9.52606 15.3638 10.0435C15.8225 10.0956 16.6073 10.1008 17.6162 10.041C18.8232 9.96944 20.3184 9.80702 21.8879 9.53852C24.9417 9.01608 28.224 8.10056 30.2295 6.70661ZM14.8124 9.90187C14.854 9.3834 14.9111 8.43887 14.9561 7.48969C14.9851 6.87632 15.0088 6.26689 15.0198 5.77848C15.0252 5.5341 15.0275 5.32179 15.0257 5.15523C15.0238 4.9815 15.0176 4.87646 15.0106 4.83438C14.9833 4.66977 14.811 4.4038 14.5189 4.21247C14.2382 4.0286 13.9024 3.9507 13.5782 4.07261C13.5783 4.07271 13.5649 4.07931 13.5385 4.10469C13.5092 4.13291 13.473 4.17548 13.4308 4.2354C13.3462 4.35557 13.2522 4.52413 13.1518 4.73373C12.9518 5.15169 12.7421 5.69966 12.5438 6.27117C12.2475 7.12483 11.985 8.00469 11.8203 8.55682C11.7962 8.63734 11.7743 8.71088 11.7546 8.77636C12.6159 9.25323 13.1705 9.41439 13.915 9.63069C14.1821 9.70828 14.4736 9.79297 14.8124 9.90187ZM11.6067 9.33477C12.4625 9.79385 13.0679 9.97002 13.8067 10.185C14.1517 10.2854 14.5258 10.3943 14.968 10.5443L14.9823 10.5492L14.997 10.5525C15.4681 10.6577 16.4348 10.6733 17.6495 10.6013C18.8774 10.5285 20.3931 10.3637 21.9825 10.0917C25.1466 9.55045 28.6595 8.57565 30.7569 7.0188C30.9732 6.85824 31.157 6.72654 31.3179 6.61127C31.6183 6.39593 31.8388 6.23796 32.0416 6.05648C32.317 5.81013 32.5684 5.51579 32.974 4.97648C32.9791 4.98331 32.9841 4.99015 32.9892 4.99699C29.6504 9.66745 25.3966 11.3692 21.4188 11.6032C17.4916 11.8342 13.8269 10.6335 11.5862 9.41963C11.593 9.39138 11.5998 9.3631 11.6067 9.33477ZM10.8883 9.91842C10.5747 9.99075 10.2518 10.0947 9.95477 10.2331C9.52055 10.4354 9.1654 10.7001 8.96127 11.024C8.76523 11.3351 8.69193 11.7257 8.86351 12.2346C9.01283 12.6775 9.34957 13.2133 9.96383 13.8483C10.2375 12.6189 10.5509 11.3158 10.8883 9.91842ZM9.7462 14.852C9.42862 16.3614 9.18102 17.7663 9.03604 19.1105C8.40975 18.5679 8.05599 18.0794 7.88691 17.6528C7.68935 17.1544 7.73651 16.7231 7.92399 16.3452C8.11661 15.957 8.46538 15.611 8.88941 15.3216C9.16094 15.1362 9.4562 14.9789 9.7462 14.852ZM8.94067 20.2023C8.70301 20.3735 8.46758 20.5702 8.25689 20.7855C7.90573 21.1444 7.63873 21.5392 7.52911 21.9392C7.42278 22.3272 7.45993 22.733 7.74056 23.1508C7.97732 23.5033 8.39582 23.8761 9.07611 24.2444C8.88231 22.9149 8.84985 21.585 8.94067 20.2023ZM9.265 25.3028C9.55978 26.6959 10.0408 28.0988 10.7479 29.5723C9.72486 29.4157 9.05119 29.1546 8.62895 28.8483C8.15525 28.5048 7.99033 28.1005 7.99737 27.6754C8.00473 27.2306 8.202 26.7354 8.51533 26.2459C8.73055 25.9098 8.99302 25.5881 9.265 25.3028ZM11.2619 30.5819C11.11 30.9917 10.9806 31.436 10.9006 31.8784C10.7825 32.5319 10.777 33.1555 10.9428 33.6534C11.1033 34.1357 11.4259 34.5092 12.0074 34.6927C12.521 34.8548 13.255 34.874 14.2812 34.6496C13.5356 34.016 12.8756 33.2666 12.3227 32.3919C11.9318 31.7734 11.5789 31.1713 11.2619 30.5819ZM15.2133 35.3535C16.6962 36.3465 18.4315 36.961 20.2851 37.2644C19.356 37.9125 18.5953 38.2403 17.9799 38.3495C17.2602 38.4773 16.7344 38.308 16.3412 37.9876C15.9376 37.6587 15.649 37.1498 15.4595 36.5629C15.3329 36.1707 15.254 35.754 15.2133 35.3535ZM21.5909 37.4261C21.849 37.759 22.1512 38.0918 22.4845 38.3856C22.9867 38.8282 23.5448 39.1696 24.1162 39.3043C24.6778 39.4367 25.2629 39.3727 25.8497 38.9864C26.3614 38.6495 26.8887 38.0577 27.3953 37.1034C25.4509 37.4595 23.4749 37.5875 21.5909 37.4261ZM28.5216 36.8711C30.4269 36.4339 32.2825 35.7844 33.9701 34.9786C33.7619 36.0722 33.4276 36.8066 33.0352 37.2807C32.5904 37.8181 32.057 38.0382 31.4904 38.0608C30.9125 38.0838 30.2868 37.9007 29.6839 37.6022C29.2679 37.3962 28.8716 37.1396 28.5216 36.8711ZM34.9624 34.4763C36.6606 33.5659 38.1536 32.4915 39.2983 31.3154C39.4794 32.4483 39.4217 33.2547 39.2238 33.8151C39.0016 34.4445 38.5978 34.7803 38.1006 34.9365C37.5877 35.0976 36.9572 35.0717 36.3021 34.9245C35.8418 34.821 35.3819 34.6604 34.9624 34.4763ZM40.1436 30.3454C40.4835 30.2854 40.8314 30.2002 41.1608 30.0864C41.7253 29.8913 42.2101 29.6211 42.5174 29.2739C42.8131 28.9398 42.9543 28.5257 42.8291 27.9856C42.7207 27.5182 42.4088 26.9418 41.7873 26.2452C41.7254 26.6801 41.6444 27.1152 41.543 27.5503C41.318 28.5165 40.8301 29.4563 40.1436 30.3454ZM41.9103 25.0575C42.0141 23.4688 41.8783 21.8915 41.5677 20.3479C42.377 20.7672 42.8825 21.1983 43.1743 21.6118C43.5157 22.0957 43.5755 22.5701 43.4698 23.0222C43.3615 23.4859 43.0742 23.9423 42.6932 24.3561C42.4539 24.616 42.1834 24.8529 41.9103 25.0575ZM41.3136 19.2383C40.8779 17.5382 40.2441 15.8847 39.5003 14.3076C40.5841 14.4327 41.3045 14.7006 41.7636 15.0362C42.2748 15.41 42.4805 15.8806 42.4985 16.3969C42.5171 16.9277 42.3364 17.5197 42.0406 18.1014C41.8355 18.5049 41.5802 18.893 41.3136 19.2383ZM39.0342 13.3563C38.2681 11.8485 37.4131 10.417 36.5499 9.08935C37.4795 9.07015 38.1337 9.22158 38.5841 9.46541C39.0981 9.7436 39.37 10.1542 39.4861 10.6338C39.6048 11.1238 39.5618 11.6945 39.4182 12.2689C39.3236 12.647 39.1876 13.0182 39.0342 13.3563ZM36.031 8.30448C35.3452 7.2837 34.6638 6.33108 34.0274 5.46083C34.8324 5.36821 35.3931 5.42428 35.7724 5.56191C36.202 5.71781 36.4042 5.97871 36.4855 6.28593C36.5721 6.61266 36.5288 7.02195 36.3918 7.45963C36.3012 7.74893 36.1737 8.03801 36.031 8.30448ZM33.339 5.47131C34.115 6.52656 34.9646 7.70712 35.8123 8.98813C36.8529 10.5607 37.8892 12.2826 38.7809 14.1063C39.6855 15.9561 40.4397 17.9073 40.8994 19.9105C41.3271 21.7742 41.4994 23.6808 41.3022 25.5919C41.2392 26.202 41.1385 26.8128 40.9964 27.423C40.7507 28.4778 40.1496 29.528 39.2628 30.5293C38.0336 31.9173 36.2711 33.1934 34.2083 34.2362C32.2741 35.2141 30.0848 35.9823 27.8418 36.4447C25.552 36.9168 23.2128 37.069 21.0365 36.8046C18.7912 36.5317 16.7284 35.8168 15.0685 34.5618C14.1896 33.8972 13.4214 33.0797 12.7971 32.092C12.295 31.2976 11.8584 30.5332 11.4816 29.7906C10.5747 28.0032 10.013 26.3407 9.71692 24.6891C9.42381 23.0542 9.38964 21.4226 9.54377 19.6822C9.68693 18.0656 9.99235 16.3566 10.4033 14.4632C10.7041 13.0774 11.0605 11.5967 11.4501 9.98336C13.775 11.213 17.4775 12.3972 21.4518 12.1635C25.5394 11.923 29.908 10.1814 33.339 5.47131ZM32.1809 10.6415C31.9848 10.8015 31.8124 10.9982 31.6843 11.1809L31.6774 11.1908L31.6696 11.2C29.5776 13.6958 26.2115 14.7038 22.911 14.9719C19.603 15.2407 16.3022 14.7717 14.2669 14.255L14.2182 14.2427L14.1769 14.2142C13.9423 14.0527 13.8184 14.0701 13.755 14.0976C13.6695 14.1348 13.5668 14.2433 13.4714 14.4662C13.2835 14.9049 13.2134 15.5744 13.2134 16.0711L13.2134 16.0803L13.2128 16.0894C13.0735 18.2256 13.0877 21.5946 13.5819 24.7482C13.829 26.325 14.1946 27.8383 14.7159 29.1134C15.2385 30.3919 15.9075 31.4059 16.7459 32.0149C17.7988 32.7797 19.5701 33.1852 21.7084 33.2633C23.8344 33.3409 26.2754 33.0934 28.6252 32.5962C30.9758 32.0987 33.2213 31.3543 34.9596 30.4458C36.7157 29.528 37.885 28.4789 38.2012 27.4072C38.5352 26.2753 38.5234 24.884 38.2852 23.3723C38.0476 21.8642 37.5885 20.2584 37.0478 18.7087C36.2572 16.4428 35.3039 14.3259 34.624 12.8163C34.3715 12.2554 34.1567 11.7784 34.002 11.4087C33.7886 10.8989 33.5622 10.614 33.3577 10.4658C33.1621 10.324 32.9712 10.2954 32.7835 10.3308C32.5857 10.3682 32.3788 10.48 32.1809 10.6415ZM33.6872 10.0114C34.0053 10.242 34.2841 10.6289 34.5197 11.1921C34.6669 11.5438 34.8756 12.0073 35.1233 12.5572C35.8037 14.0682 36.7781 16.232 37.5777 18.5238C38.1245 20.0909 38.5949 21.7315 38.8396 23.285C39.0838 24.8349 39.1071 26.3204 38.7395 27.5661C38.3541 28.8721 36.9977 30.0139 35.2196 30.9432C33.4237 31.8818 31.1265 32.6406 28.7414 33.1453C26.3555 33.6502 23.8679 33.9038 21.6879 33.8242C19.5203 33.745 17.6083 33.3351 16.4161 32.469C15.4585 31.7734 14.7383 30.6516 14.1963 29.3258C13.6529 27.9965 13.2784 26.437 13.0274 24.8351C12.526 21.6359 12.5115 18.2292 12.6522 16.0619C12.653 15.541 12.7238 14.786 12.9555 14.2452C13.0705 13.9767 13.2484 13.7058 13.5313 13.5829C13.8227 13.4562 14.1389 13.5206 14.4514 13.7227C16.4423 14.2225 19.6552 14.6733 22.8655 14.4125C26.1042 14.1494 29.2822 13.1673 31.2319 10.8485C31.3838 10.6336 31.5876 10.4013 31.8261 10.2066C32.0667 10.0103 32.358 9.83997 32.6793 9.77929C33.0108 9.71672 33.3601 9.77425 33.6872 10.0114Z" fill="#DBE9FF"></path>
<path d="M11.4205 8.90966C11.6547 8.16698 12.7889 4.07061 13.478 3.81045C14.3394 3.48526 15.1992 4.25555 15.2875 4.78848C15.3757 5.32141 15.1394 9.66403 15.0582 10.2785C16.7689 10.6606 26.509 9.82233 30.5897 6.79341C30.2083 5.96445 27.9949 2.8428 28.1623 2.08498C28.246 1.70608 28.683 1.08611 29.0547 0.841984C29.4265 0.597859 32.1528 2.30534 32.9745 4.50551C33.0924 4.66466 33.2129 4.82732 33.3355 4.99335C33.3976 5.07758 33.4604 5.16268 33.5236 5.24863C37.8289 4.53553 36.9993 7.34123 36.0463 8.83322C40.9264 8.46296 40.0708 12.1121 39.033 13.983C44.5737 14.3685 42.7682 18.0534 41.1729 19.8477C45.7226 21.8684 43.3409 24.5383 41.5813 25.6206C45.2272 29.2512 41.6948 30.5298 39.4729 30.7153C40.6749 36.5028 36.5484 35.641 34.3349 34.4866C33.5449 40.166 29.7148 38.3416 27.8985 36.7195C25.5253 41.8424 22.3124 39.0965 21.0027 37.0831C16.2027 40.8169 14.9337 37.1072 14.8992 34.7856C9.5396 36.2574 10.2208 32.1535 11.2313 29.9176C5.87966 29.3438 7.8077 26.2259 9.44068 24.7386C5.4575 22.9161 7.66338 20.5917 9.26422 19.6574C5.65775 16.8964 8.33806 15.0045 10.129 14.4036C6.68344 11.178 9.44944 9.83176 11.2631 9.56187C11.3151 9.34678 11.3675 9.1294 11.4205 8.90966Z" fill="#DBE9FF"></path>
<path fill-rule="evenodd" clip-rule="evenodd" d="M29.1507 1.09952C29.1507 1.0995 29.1512 1.09944 29.1525 1.09941L29.1507 1.09952ZM29.1738 1.10085C29.1866 1.10244 29.2048 1.10559 29.2289 1.11154C29.3129 1.13231 29.4326 1.17795 29.5832 1.25314C29.8821 1.40238 30.2664 1.64965 30.6695 1.97545C31.4433 2.60072 32.2487 3.48461 32.6564 4.46381C32.1723 5.11605 31.9266 5.40627 31.6674 5.63817C31.4865 5.80003 31.3028 5.9315 31.0253 6.13014C30.9258 6.20131 30.8143 6.28111 30.6866 6.37401C30.5737 6.17357 30.4264 5.93041 30.2651 5.66778C30.2008 5.56301 30.1337 5.45431 30.0649 5.34268C29.8552 5.00292 29.6288 4.63594 29.4116 4.26948C29.1227 3.78203 28.8559 3.30498 28.6722 2.9064C28.5803 2.70681 28.5126 2.53418 28.4729 2.39432C28.4306 2.24514 28.431 2.16962 28.4363 2.14554C28.4663 2.00975 28.5718 1.79615 28.7289 1.57599C28.8723 1.37514 29.0351 1.20173 29.1738 1.10085ZM30.2295 6.70661C30.1246 6.51644 29.9712 6.26183 29.7868 5.96144C29.7238 5.85879 29.6576 5.7515 29.5893 5.64077C29.3791 5.30011 29.1488 4.92687 28.9288 4.55564C28.6376 4.06433 28.3587 3.56707 28.1625 3.14129C28.0645 2.92871 27.9838 2.72665 27.9329 2.5475C27.8848 2.37768 27.8518 2.18988 27.8883 2.0245C27.942 1.78139 28.0968 1.49555 28.2721 1.24997C28.4488 1.00225 28.6747 0.755883 28.9007 0.607445C28.9864 0.551186 29.0795 0.538769 29.1485 0.538145C29.2205 0.537494 29.294 0.549478 29.3636 0.56668C29.503 0.601157 29.6638 0.666051 29.8339 0.750985C30.1764 0.921997 30.5947 1.19333 31.0223 1.53891C31.8643 2.21933 32.7822 3.22008 33.2232 4.36976C33.3337 4.519 33.4465 4.67135 33.5612 4.82671C33.5902 4.86593 33.6193 4.90534 33.6485 4.94494C34.6595 4.7942 35.4162 4.83557 35.9638 5.03431C36.5598 5.25056 36.8979 5.65062 37.0281 6.14219C37.1532 6.61425 37.0795 7.14156 36.9274 7.62729C36.8298 7.93919 36.6961 8.24594 36.5478 8.52802C37.5359 8.50875 38.2912 8.66867 38.8513 8.97182C39.517 9.33217 39.8814 9.88139 40.0316 10.5017C40.1793 11.1115 40.1188 11.7807 39.9627 12.4051C39.8446 12.8774 39.6689 13.3353 39.4744 13.74C40.6625 13.8667 41.5159 14.1598 42.0949 14.5832C42.7536 15.0648 43.0357 15.6998 43.0595 16.3773C43.0827 17.0402 42.8591 17.73 42.5409 18.3558C42.2836 18.8618 41.9573 19.34 41.6252 19.7487C42.5975 20.2229 43.2467 20.7409 43.6329 21.2883C44.0695 21.9072 44.1574 22.5467 44.0164 23.15C43.8781 23.7416 43.5244 24.282 43.1061 24.7363C42.774 25.097 42.3921 25.4135 42.0205 25.6693C42.7958 26.4908 43.2267 27.2156 43.3758 27.8589C43.5443 28.5855 43.3471 29.1833 42.9377 29.6459C42.5399 30.0953 41.9528 30.4065 41.3441 30.6169C40.8392 30.7913 40.3017 30.9024 39.8073 30.963C40.0485 32.2803 40.0103 33.2733 39.7531 34.002C39.4704 34.8026 38.9297 35.2644 38.2688 35.4719C37.6237 35.6745 36.8827 35.6302 36.1791 35.4721C35.6099 35.3441 35.0483 35.1379 34.5535 34.9073C34.3381 36.1524 33.9627 37.0405 33.4676 37.6386C32.9153 38.3058 32.2295 38.5931 31.5127 38.6216C30.8074 38.6497 30.0856 38.4274 29.4348 38.1052C28.9059 37.8433 28.4115 37.5092 27.9932 37.1689C27.4296 38.2885 26.8108 39.0255 26.1583 39.4551C25.4344 39.9318 24.6894 40.0161 23.9874 39.8506C23.2953 39.6875 22.6562 39.2851 22.1134 38.8067C21.6548 38.4024 21.2544 37.9348 20.937 37.4859C19.8228 38.3165 18.8787 38.76 18.078 38.9022C17.2086 39.0564 16.515 38.8532 15.9867 38.4227C15.4687 38.0007 15.1336 37.3802 14.9254 36.7353C14.7563 36.2115 14.6659 35.6563 14.6328 35.1444C13.4379 35.4344 12.5228 35.4439 11.8385 35.2279C11.0719 34.986 10.623 34.4697 10.4102 33.8306C10.2026 33.207 10.222 32.4774 10.3483 31.7786C10.4507 31.2122 10.6264 30.6493 10.8268 30.1509C9.66734 29.991 8.84576 29.6989 8.29942 29.3027C7.68049 28.8538 7.42605 28.278 7.43618 27.6661C7.44598 27.0738 7.70242 26.4747 8.04264 25.9433C8.30588 25.5321 8.62886 25.1465 8.95583 24.8154C8.142 24.397 7.59673 23.9433 7.27464 23.4637C6.89863 22.9039 6.84045 22.3285 6.9878 21.7908C7.13186 21.2651 7.46754 20.7897 7.85574 20.393C8.14152 20.1009 8.46416 19.843 8.78051 19.63C8.04358 19.0139 7.58873 18.4238 7.36513 17.8596C7.1069 17.208 7.16554 16.6111 7.4212 16.0958C7.67172 15.5908 8.10343 15.1785 8.57296 14.858C8.90677 14.6301 9.26851 14.4426 9.61726 14.2968C8.93315 13.6013 8.52145 12.9769 8.33166 12.4139C8.10947 11.7548 8.19498 11.1872 8.48645 10.7247C8.76984 10.2751 9.2309 9.95113 9.71774 9.72431C10.144 9.52573 10.6081 9.39306 11.034 9.31544C11.0716 9.15948 11.1095 9.00233 11.1477 8.84396L11.15 8.83455L11.1529 8.82531C11.1808 8.73669 11.2231 8.59484 11.2771 8.41405C11.441 7.86445 11.7123 6.955 12.0135 6.08713C12.2141 5.5092 12.4319 4.93787 12.6456 4.49139C12.7522 4.26877 12.8616 4.06882 12.9719 3.91227C13.0734 3.76811 13.2079 3.61251 13.3789 3.54795C13.9157 3.34528 14.4402 3.48996 14.8264 3.74295C15.2016 3.98871 15.5033 4.37434 15.5643 4.74266C15.5794 4.83382 15.5851 4.98106 15.5869 5.14923C15.5888 5.32456 15.5864 5.54376 15.5809 5.79104C15.5698 6.28596 15.5459 6.90051 15.5167 7.51624C15.4696 8.51182 15.408 9.52606 15.3638 10.0435C15.8225 10.0956 16.6073 10.1008 17.6162 10.041C18.8232 9.96944 20.3184 9.80702 21.8879 9.53852C24.9417 9.01608 28.224 8.10056 30.2295 6.70661ZM14.8124 9.90187C14.854 9.3834 14.9111 8.43887 14.9561 7.48969C14.9851 6.87632 15.0088 6.26689 15.0198 5.77848C15.0252 5.5341 15.0275 5.32179 15.0257 5.15523C15.0238 4.9815 15.0176 4.87646 15.0106 4.83438C14.9833 4.66977 14.811 4.4038 14.5189 4.21247C14.2382 4.0286 13.9024 3.9507 13.5782 4.07261C13.5783 4.07271 13.5649 4.07931 13.5385 4.10469C13.5092 4.13291 13.473 4.17548 13.4308 4.2354C13.3462 4.35557 13.2522 4.52413 13.1518 4.73373C12.9518 5.15169 12.7421 5.69966 12.5438 6.27117C12.2475 7.12483 11.985 8.00469 11.8203 8.55682C11.7962 8.63734 11.7743 8.71088 11.7546 8.77636C12.6159 9.25323 13.1705 9.41439 13.915 9.63069C14.1821 9.70828 14.4736 9.79297 14.8124 9.90187ZM11.6067 9.33477C12.4625 9.79385 13.0679 9.97002 13.8067 10.185C14.1517 10.2854 14.5258 10.3943 14.968 10.5443L14.9823 10.5492L14.997 10.5525C15.4681 10.6577 16.4348 10.6733 17.6495 10.6013C18.8774 10.5285 20.3931 10.3637 21.9825 10.0917C25.1466 9.55045 28.6595 8.57565 30.7569 7.0188C30.9732 6.85824 31.157 6.72654 31.3179 6.61127C31.6183 6.39593 31.8388 6.23796 32.0416 6.05648C32.317 5.81013 32.5684 5.51579 32.974 4.97648C32.9791 4.98331 32.9841 4.99015 32.9892 4.99699C29.6504 9.66745 25.3966 11.3692 21.4188 11.6032C17.4916 11.8342 13.8269 10.6335 11.5862 9.41963C11.593 9.39138 11.5998 9.3631 11.6067 9.33477ZM10.8883 9.91842C10.5747 9.99075 10.2518 10.0947 9.95477 10.2331C9.52055 10.4354 9.1654 10.7001 8.96127 11.024C8.76523 11.3351 8.69193 11.7257 8.86351 12.2346C9.01283 12.6775 9.34957 13.2133 9.96383 13.8483C10.2375 12.6189 10.5509 11.3158 10.8883 9.91842ZM9.7462 14.852C9.42862 16.3614 9.18102 17.7663 9.03604 19.1105C8.40975 18.5679 8.05599 18.0794 7.88691 17.6528C7.68935 17.1544 7.73651 16.7231 7.92399 16.3452C8.11661 15.957 8.46538 15.611 8.88941 15.3216C9.16094 15.1362 9.4562 14.9789 9.7462 14.852ZM8.94067 20.2023C8.70301 20.3735 8.46758 20.5702 8.25689 20.7855C7.90573 21.1444 7.63873 21.5392 7.52911 21.9392C7.42278 22.3272 7.45993 22.733 7.74056 23.1508C7.97732 23.5033 8.39582 23.8761 9.07611 24.2444C8.88231 22.9149 8.84985 21.585 8.94067 20.2023ZM9.265 25.3028C9.55978 26.6959 10.0408 28.0988 10.7479 29.5723C9.72486 29.4157 9.05119 29.1546 8.62895 28.8483C8.15525 28.5048 7.99033 28.1005 7.99737 27.6754C8.00473 27.2306 8.202 26.7354 8.51533 26.2459C8.73055 25.9098 8.99302 25.5881 9.265 25.3028ZM11.2619 30.5819C11.11 30.9917 10.9806 31.436 10.9006 31.8784C10.7825 32.5319 10.777 33.1555 10.9428 33.6534C11.1033 34.1357 11.4259 34.5092 12.0074 34.6927C12.521 34.8548 13.255 34.874 14.2812 34.6496C13.5356 34.016 12.8756 33.2666 12.3227 32.3919C11.9318 31.7734 11.5789 31.1713 11.2619 30.5819ZM15.2133 35.3535C16.6962 36.3465 18.4315 36.961 20.2851 37.2644C19.356 37.9125 18.5953 38.2403 17.9799 38.3495C17.2602 38.4773 16.7344 38.308 16.3412 37.9876C15.9376 37.6587 15.649 37.1498 15.4595 36.5629C15.3329 36.1707 15.254 35.754 15.2133 35.3535ZM21.5909 37.4261C21.849 37.759 22.1512 38.0918 22.4845 38.3856C22.9867 38.8282 23.5448 39.1696 24.1162 39.3043C24.6778 39.4367 25.2629 39.3727 25.8497 38.9864C26.3614 38.6495 26.8887 38.0577 27.3953 37.1034C25.4509 37.4595 23.4749 37.5875 21.5909 37.4261ZM28.5216 36.8711C30.4269 36.4339 32.2825 35.7844 33.9701 34.9786C33.7619 36.0722 33.4276 36.8066 33.0352 37.2807C32.5904 37.8181 32.057 38.0382 31.4904 38.0608C30.9125 38.0838 30.2868 37.9007 29.6839 37.6022C29.2679 37.3962 28.8716 37.1396 28.5216 36.8711ZM34.9624 34.4763C36.6606 33.5659 38.1536 32.4915 39.2983 31.3154C39.4794 32.4483 39.4217 33.2547 39.2238 33.8151C39.0016 34.4445 38.5978 34.7803 38.1006 34.9365C37.5877 35.0976 36.9572 35.0717 36.3021 34.9245C35.8418 34.821 35.3819 34.6604 34.9624 34.4763ZM40.1436 30.3454C40.4835 30.2854 40.8314 30.2002 41.1608 30.0864C41.7253 29.8913 42.2101 29.6211 42.5174 29.2739C42.8131 28.9398 42.9543 28.5257 42.8291 27.9856C42.7207 27.5182 42.4088 26.9418 41.7873 26.2452C41.7254 26.6801 41.6444 27.1152 41.543 27.5503C41.318 28.5165 40.8301 29.4563 40.1436 30.3454ZM41.9103 25.0575C42.0141 23.4688 41.8783 21.8915 41.5677 20.3479C42.377 20.7672 42.8825 21.1983 43.1743 21.6118C43.5157 22.0957 43.5755 22.5701 43.4698 23.0222C43.3615 23.4859 43.0742 23.9423 42.6932 24.3561C42.4539 24.616 42.1834 24.8529 41.9103 25.0575ZM41.3136 19.2383C40.8779 17.5382 40.2441 15.8847 39.5003 14.3076C40.5841 14.4327 41.3045 14.7006 41.7636 15.0362C42.2748 15.41 42.4805 15.8806 42.4985 16.3969C42.5171 16.9277 42.3364 17.5197 42.0406 18.1014C41.8355 18.5049 41.5802 18.893 41.3136 19.2383ZM39.0342 13.3563C38.2681 11.8485 37.4131 10.417 36.5499 9.08935C37.4795 9.07015 38.1337 9.22158 38.5841 9.46541C39.0981 9.7436 39.37 10.1542 39.4861 10.6338C39.6048 11.1238 39.5618 11.6945 39.4182 12.2689C39.3236 12.647 39.1876 13.0182 39.0342 13.3563ZM36.031 8.30448C35.3452 7.2837 34.6638 6.33108 34.0274 5.46083C34.8324 5.36821 35.3931 5.42428 35.7724 5.56191C36.202 5.71781 36.4042 5.97871 36.4855 6.28593C36.5721 6.61266 36.5288 7.02195 36.3918 7.45963C36.3012 7.74893 36.1737 8.03801 36.031 8.30448ZM33.339 5.47131C34.115 6.52656 34.9646 7.70712 35.8123 8.98813C36.8529 10.5607 37.8892 12.2826 38.7809 14.1063C39.6855 15.9561 40.4397 17.9073 40.8994 19.9105C41.3271 21.7742 41.4994 23.6808 41.3022 25.5919C41.2392 26.202 41.1385 26.8128 40.9964 27.423C40.7507 28.4778 40.1496 29.528 39.2628 30.5293C38.0336 31.9173 36.2711 33.1934 34.2083 34.2362C32.2741 35.2141 30.0848 35.9823 27.8418 36.4447C25.552 36.9168 23.2128 37.069 21.0365 36.8046C18.7912 36.5317 16.7284 35.8168 15.0685 34.5618C14.1896 33.8972 13.4214 33.0797 12.7971 32.092C12.295 31.2976 11.8584 30.5332 11.4816 29.7906C10.5747 28.0032 10.013 26.3407 9.71692 24.6891C9.42381 23.0542 9.38964 21.4226 9.54377 19.6822C9.68693 18.0656 9.99235 16.3566 10.4033 14.4632C10.7041 13.0774 11.0605 11.5967 11.4501 9.98336C13.775 11.213 17.4775 12.3972 21.4518 12.1635C25.5394 11.923 29.908 10.1814 33.339 5.47131ZM32.1809 10.6415C31.9848 10.8015 31.8124 10.9982 31.6843 11.1809L31.6774 11.1908L31.6696 11.2C29.5776 13.6958 26.2115 14.7038 22.911 14.9719C19.603 15.2407 16.3022 14.7717 14.2669 14.255L14.2182 14.2427L14.1769 14.2142C13.9423 14.0527 13.8184 14.0701 13.755 14.0976C13.6695 14.1348 13.5668 14.2433 13.4714 14.4662C13.2835 14.9049 13.2134 15.5744 13.2134 16.0711L13.2134 16.0803L13.2128 16.0894C13.0735 18.2256 13.0877 21.5946 13.5819 24.7482C13.829 26.325 14.1946 27.8383 14.7159 29.1134C15.2385 30.3919 15.9075 31.4059 16.7459 32.0149C17.7988 32.7797 19.5701 33.1852 21.7084 33.2633C23.8344 33.3409 26.2754 33.0934 28.6252 32.5962C30.9758 32.0987 33.2213 31.3543 34.9596 30.4458C36.7157 29.528 37.885 28.4789 38.2012 27.4072C38.5352 26.2753 38.5234 24.884 38.2852 23.3723C38.0476 21.8642 37.5885 20.2584 37.0478 18.7087C36.2572 16.4428 35.3039 14.3259 34.624 12.8163C34.3715 12.2554 34.1567 11.7784 34.002 11.4087C33.7886 10.8989 33.5622 10.614 33.3577 10.4658C33.1621 10.324 32.9712 10.2954 32.7835 10.3308C32.5857 10.3682 32.3788 10.48 32.1809 10.6415ZM33.6872 10.0114C34.0053 10.242 34.2841 10.6289 34.5197 11.1921C34.6669 11.5438 34.8756 12.0073 35.1233 12.5572C35.8037 14.0682 36.7781 16.232 37.5777 18.5238C38.1245 20.0909 38.5949 21.7315 38.8396 23.285C39.0838 24.8349 39.1071 26.3204 38.7395 27.5661C38.3541 28.8721 36.9977 30.0139 35.2196 30.9432C33.4237 31.8818 31.1265 32.6406 28.7414 33.1453C26.3555 33.6502 23.8679 33.9038 21.6879 33.8242C19.5203 33.745 17.6083 33.3351 16.4161 32.469C15.4585 31.7734 14.7383 30.6516 14.1963 29.3258C13.6529 27.9965 13.2784 26.437 13.0274 24.8351C12.526 21.6359 12.5115 18.2292 12.6522 16.0619C12.653 15.541 12.7238 14.786 12.9555 14.2452C13.0705 13.9767 13.2484 13.7058 13.5313 13.5829C13.8227 13.4562 14.1389 13.5206 14.4514 13.7227C16.4423 14.2225 19.6552 14.6733 22.8655 14.4125C26.1042 14.1494 29.2822 13.1673 31.2319 10.8485C31.3838 10.6336 31.5876 10.4013 31.8261 10.2066C32.0667 10.0103 32.358 9.83997 32.6793 9.77929C33.0108 9.71672 33.3601 9.77425 33.6872 10.0114Z" fill="#DBE9FF"></path>
<path fill-rule="evenodd" clip-rule="evenodd" d="M22.2796 1.02225C22.2796 1.02223 22.2802 1.02217 22.2814 1.02214L22.2796 1.02225ZM22.3028 1.02358C22.3156 1.02517 22.3338 1.02832 22.3578 1.03427C22.4418 1.05504 22.5615 1.10068 22.7121 1.17587C23.011 1.32511 23.3954 1.57238 23.7985 1.89818C24.5722 2.52345 25.3777 3.40734 25.7853 4.38654C25.3013 5.03878 25.0556 5.329 24.7964 5.5609C24.6154 5.72276 24.4318 5.85423 24.1542 6.05287C24.0548 6.12404 23.9433 6.20383 23.8156 6.29674C23.7027 6.0963 23.5553 5.85314 23.3941 5.59051C23.3298 5.48574 23.2627 5.37704 23.1938 5.26541C22.9842 4.92565 22.7578 4.55867 22.5406 4.19221C22.2517 3.70476 21.9848 3.22771 21.8012 2.82913C21.7092 2.62954 21.6415 2.45691 21.6019 2.31705C21.5595 2.16787 21.56 2.09235 21.5653 2.06827C21.5953 1.93248 21.7008 1.71888 21.8579 1.49873C22.0012 1.29787 22.1641 1.12447 22.3028 1.02358ZM23.3585 6.62934C23.2536 6.43917 23.1002 6.18456 22.9158 5.88417C22.8528 5.78151 22.7866 5.67423 22.7182 5.5635C22.5081 5.22284 22.2778 4.8496 22.0578 4.47837C21.7666 3.98706 21.4876 3.4898 21.2914 3.06402C21.1935 2.85144 21.1127 2.64938 21.0619 2.47023C21.0137 2.30041 20.9807 2.11261 21.0172 1.94723C21.0709 1.70412 21.2258 1.41828 21.401 1.1727C21.5778 0.924982 21.8036 0.678613 22.0297 0.530175C22.1154 0.473916 22.2085 0.461499 22.2774 0.460876C22.3494 0.460225 22.423 0.472208 22.4925 0.48941C22.632 0.523887 22.7927 0.588781 22.9628 0.673715C23.3054 0.844727 23.7237 1.11606 24.1513 1.46164C24.9932 2.14206 25.9111 3.14281 26.3521 4.29249C26.4627 4.44173 26.5755 4.59408 26.6902 4.74943C26.7192 4.78865 26.7482 4.82807 26.7774 4.86767C27.7885 4.71693 28.5451 4.7583 29.0928 4.95704C29.6887 5.17329 30.0268 5.57335 30.1571 6.06492C30.2821 6.53697 30.2084 7.06429 30.0564 7.55002C29.9588 7.86192 29.8251 8.16867 29.6767 8.45075C30.6649 8.43148 31.4202 8.5914 31.9803 8.89455C32.646 9.2549 33.0104 9.80412 33.1606 10.4244C33.3083 11.0342 33.2478 11.7034 33.0916 12.3278C32.9735 12.8001 32.7979 13.258 32.6033 13.6627C33.7915 13.7894 34.6448 14.0825 35.2238 14.5059C35.8826 14.9875 36.1647 15.6226 36.1884 16.3C36.2116 16.9629 35.9881 17.6527 35.6699 18.2786C35.4126 18.7845 35.0862 19.2628 34.7542 19.6715C35.7264 20.1457 36.3757 20.6637 36.7618 21.211C37.1985 21.8299 37.2863 22.4694 37.1453 23.0727C37.007 23.6643 36.6533 24.2047 36.235 24.659C35.903 25.0197 35.521 25.3362 35.1494 25.5921C35.9247 26.4135 36.3556 27.1383 36.5048 27.7816C36.6732 28.5082 36.476 29.1061 36.0666 29.5686C35.6689 30.0181 35.0818 30.3292 34.473 30.5396C33.9682 30.714 33.4307 30.8251 32.9362 30.8857C33.1775 32.2031 33.1393 33.196 32.882 33.9247C32.5994 34.7254 32.0587 35.1871 31.3978 35.3947C30.7527 35.5973 30.0117 35.5529 29.308 35.3948C28.7388 35.2668 28.1772 35.0606 27.6824 34.83C27.467 36.0751 27.0916 36.9632 26.5965 37.5613C26.0443 38.2285 25.3584 38.5158 24.6417 38.5443C23.9364 38.5724 23.2146 38.3502 22.5638 38.0279C22.0349 37.766 21.5404 37.4319 21.1222 37.0916C20.5586 38.2112 19.9398 38.9483 19.2873 39.3779C18.5633 39.8545 17.8184 39.9388 17.1164 39.7733C16.4242 39.6102 15.7852 39.2078 15.2424 38.7294C14.7838 38.3252 14.3834 37.8575 14.066 37.4087C12.9518 38.2392 12.0077 38.6828 11.2069 38.8249C10.3376 38.9792 9.64396 38.7759 9.11563 38.3454C8.59768 37.9234 8.26256 37.303 8.05438 36.658C7.88531 36.1343 7.7949 35.579 7.76177 35.0672C6.56683 35.3571 5.65176 35.3666 4.96745 35.1507C4.20082 34.9087 3.75194 34.3925 3.53918 33.7533C3.33159 33.1297 3.35092 32.4001 3.47725 31.7013C3.57962 31.135 3.75532 30.572 3.95577 30.0736C2.79631 29.9137 1.97473 29.6216 1.42839 29.2254C0.809457 28.7765 0.555013 28.2007 0.565144 27.5888C0.574951 26.9965 0.831391 26.3975 1.1716 25.8661C1.43484 25.4549 1.75782 25.0692 2.0848 24.7382C1.27096 24.3197 0.725694 23.866 0.403604 23.3865C0.0275951 22.8267 -0.0305798 22.2512 0.116769 21.7136C0.260831 21.1879 0.596506 20.7124 0.984707 20.3157C1.27049 20.0237 1.59312 19.7657 1.90948 19.5527C1.17255 18.9367 0.717692 18.3465 0.4941 17.7823C0.235862 17.1308 0.294508 16.5338 0.550167 16.0185C0.800685 15.5135 1.2324 15.1013 1.70193 14.7807C2.03573 14.5529 2.39747 14.3653 2.74622 14.2195C2.06212 13.5241 1.65042 12.8996 1.46062 12.3366C1.23844 11.6776 1.32395 11.1099 1.61542 10.6475C1.89881 10.1978 2.35987 9.87386 2.8467 9.64704C3.27292 9.44846 3.73708 9.31578 4.16292 9.23817C4.20057 9.08221 4.23849 8.92506 4.27665 8.76669L4.27892 8.75728L4.28183 8.74804C4.30978 8.65941 4.35209 8.51757 4.40602 8.33678C4.56997 7.78718 4.84127 6.87772 5.14249 6.00986C5.34308 5.43193 5.56083 4.8606 5.77455 4.41412C5.88112 4.19149 5.99061 3.99155 6.10084 3.835C6.20235 3.69084 6.33682 3.53524 6.50784 3.47068C7.04469 3.26801 7.56912 3.41269 7.95538 3.66568C8.33059 3.91144 8.63229 4.29707 8.6933 4.66539C8.7084 4.75655 8.71408 4.90379 8.71588 5.07196C8.71775 5.24729 8.71538 5.46649 8.70984 5.71377C8.69876 6.20869 8.67484 6.82324 8.64569 7.43896C8.59854 8.43454 8.53698 9.44879 8.49275 9.96618C8.95151 10.0183 9.7363 10.0236 10.7452 9.96374C11.9522 9.89217 13.4474 9.72975 15.0168 9.46125C18.0707 8.93881 21.3529 8.02329 23.3585 6.62934ZM7.94139 9.8246C7.98298 9.30613 8.0401 8.3616 8.08505 7.41242C8.11409 6.79905 8.13778 6.18962 8.14872 5.70121C8.15419 5.45683 8.15643 5.24452 8.15464 5.07796C8.15279 4.90423 8.14655 4.79918 8.13958 4.75711C8.11231 4.5925 7.93997 4.32653 7.64786 4.1352C7.36713 3.95133 7.03141 3.87343 6.70721 3.99534C6.70726 3.99544 6.69382 4.00204 6.66744 4.02742C6.63812 4.05564 6.60195 4.09821 6.55976 4.15813C6.47515 4.2783 6.38114 4.44686 6.28081 4.65646C6.08073 5.07442 5.87109 5.62238 5.67273 6.1939C5.37643 7.04756 5.11394 7.92742 4.94923 8.47955C4.92521 8.56007 4.90327 8.63361 4.88361 8.69909C5.74482 9.17596 6.29951 9.33712 7.04401 9.55342C7.31108 9.63101 7.60257 9.71569 7.94139 9.8246ZM4.73564 9.2575C5.59146 9.71658 6.19687 9.89275 6.93566 10.1077C7.28065 10.2081 7.65472 10.317 8.09696 10.4671L8.11125 10.4719L8.12598 10.4752C8.5971 10.5804 9.56374 10.596 10.7784 10.524C12.0064 10.4512 13.522 10.2864 15.1115 10.0145C18.2755 9.47317 21.7884 8.49838 23.8859 6.94152C24.1022 6.78097 24.286 6.64926 24.4468 6.534C24.7473 6.31865 24.9677 6.16069 25.1706 5.97921C25.446 5.73286 25.6974 5.43852 26.103 4.89921C26.108 4.90604 26.1131 4.91288 26.1182 4.91972C22.7793 9.59018 18.5256 11.2919 14.5478 11.5259C10.6205 11.7569 6.95585 10.5562 4.71516 9.34236C4.72198 9.31411 4.7288 9.28583 4.73564 9.2575ZM4.01731 9.84115C3.70371 9.91348 3.38074 10.0174 3.08373 10.1558C2.64952 10.3581 2.29436 10.6229 2.09024 10.9467C1.89419 11.2578 1.8209 11.6484 1.99248 12.1574C2.14179 12.6003 2.47854 13.136 3.09279 13.771C3.36643 12.5417 3.67991 11.2385 4.01731 9.84115ZM2.87517 14.7748C2.55758 16.2842 2.30999 17.689 2.16501 19.0332C1.53871 18.4906 1.18496 18.0022 1.01588 17.5755C0.818321 17.0771 0.865474 16.6458 1.05296 16.2679C1.24558 15.8797 1.59434 15.5338 2.01838 15.2443C2.28991 15.0589 2.58517 14.9016 2.87517 14.7748ZM2.06964 20.1251C1.83198 20.2963 1.59654 20.493 1.38586 20.7083C1.0347 21.0671 0.767693 21.4619 0.658076 21.8619C0.551746 22.2499 0.588894 22.6557 0.869523 23.0735C1.10629 23.426 1.52479 23.7989 2.20508 24.1671C2.01128 22.8376 1.97881 21.5077 2.06964 20.1251ZM2.39397 25.2255C2.68875 26.6186 3.16977 28.0216 3.87687 29.495C2.85383 29.3385 2.18015 29.0773 1.75791 28.7711C1.28422 28.4275 1.11929 28.0233 1.12633 27.5981C1.1337 27.1533 1.33097 26.6581 1.6443 26.1687C1.85951 25.8325 2.12198 25.5108 2.39397 25.2255ZM4.3909 30.5046C4.23899 30.9144 4.10953 31.3587 4.02957 31.8011C3.91144 32.4546 3.90598 33.0782 4.07172 33.5761C4.2323 34.0585 4.55489 34.4319 5.13635 34.6154C5.64996 34.7775 6.38399 34.7968 7.41014 34.5723C6.66461 33.9388 6.00459 33.1894 5.45168 32.3146C5.06073 31.6962 4.70791 31.094 4.3909 30.5046ZM8.34226 35.2762C9.82512 36.2692 11.5605 36.8837 13.414 37.1871C12.4849 37.8352 11.7243 38.163 11.1088 38.2723C10.3892 38.4 9.8634 38.2308 9.47017 37.9103C9.06657 37.5815 8.77796 37.0725 8.5885 36.4856C8.4619 36.0934 8.38298 35.6767 8.34226 35.2762ZM14.7199 37.3488C14.9779 37.6818 15.2802 38.0145 15.6135 38.3083C16.1156 38.7509 16.6737 39.0924 17.2451 39.227C17.8067 39.3594 18.3918 39.2954 18.9787 38.9091C19.4903 38.5722 20.0176 37.9804 20.5242 37.0262C18.5798 37.3822 16.6038 37.5102 14.7199 37.3488ZM21.6505 36.7938C23.5559 36.3566 25.4114 35.7072 27.099 34.9013C26.8908 35.9949 26.5566 36.7294 26.1642 37.2034C25.7193 37.7409 25.186 37.9609 24.6194 37.9835C24.0414 38.0065 23.4157 37.8235 22.8129 37.5249C22.3968 37.3189 22.0006 37.0623 21.6505 36.7938ZM28.0914 34.399C29.7896 33.4886 31.2826 32.4143 32.4273 31.2381C32.6084 32.371 32.5506 33.1774 32.3528 33.7379C32.1306 34.3673 31.7268 34.7031 31.2296 34.8592C30.7166 35.0203 30.0861 34.9944 29.4311 34.8472C28.9707 34.7437 28.5109 34.5831 28.0914 34.399ZM33.2726 30.2682C33.6125 30.2081 33.9603 30.1229 34.2897 30.0091C34.8542 29.814 35.339 29.5439 35.6464 29.1966C35.9421 28.8625 36.0832 28.4484 35.958 27.9084C35.8497 27.4409 35.5378 26.8646 34.9163 26.1679C34.8543 26.6028 34.7733 27.038 34.672 27.4731C34.4469 28.4393 33.9591 29.3791 33.2726 30.2682ZM35.0393 24.9803C35.143 23.3915 35.0073 21.8143 34.6967 20.2707C35.5059 20.6899 36.0115 21.121 36.3032 21.5346C36.6446 22.0184 36.7045 22.4929 36.5988 22.945C36.4904 23.4086 36.2031 23.865 35.8221 24.2789C35.5829 24.5388 35.3123 24.7756 35.0393 24.9803ZM34.4426 19.161C34.0069 17.4609 33.3731 15.8074 32.6292 14.2303C33.7131 14.3554 34.4335 14.6233 34.8925 14.959C35.4038 15.3327 35.6094 15.8034 35.6275 16.3196C35.6461 16.8505 35.4654 17.4424 35.1696 18.0242C34.9644 18.4276 34.7092 18.8158 34.4426 19.161ZM32.1631 13.279C31.397 11.7712 30.5421 10.3397 29.6789 9.01208C30.6085 8.99288 31.2626 9.14431 31.7131 9.38814C32.227 9.66633 32.4989 10.0769 32.6151 10.5565C32.7338 11.0466 32.6908 11.6172 32.5471 12.1917C32.4526 12.5697 32.3166 12.9409 32.1631 13.279ZM29.16 8.22721C28.4742 7.20643 27.7928 6.2538 27.1563 5.38356C27.9613 5.29094 28.5221 5.34701 28.9013 5.48464C29.3309 5.64054 29.5331 5.90144 29.6145 6.20866C29.7011 6.53539 29.6578 6.94468 29.5207 7.38236C29.4302 7.67166 29.3026 7.96074 29.16 8.22721ZM26.468 5.39404C27.2439 6.44929 28.0936 7.62985 28.9412 8.91086C29.9818 10.4835 31.0181 12.2054 31.9099 14.029C32.8144 15.8788 33.5686 17.83 34.0284 19.8333C34.456 21.6969 34.6284 23.6035 34.4311 25.5146C34.3681 26.1247 34.2675 26.7355 34.1253 27.3457C33.8796 28.4006 33.2786 29.4507 32.3918 30.452C31.1625 31.84 29.4 33.1161 27.3373 34.1589C25.403 35.1368 23.2138 35.905 20.9708 36.3675C18.681 36.8396 16.3418 36.9917 14.1655 36.7273C11.9201 36.4545 9.85736 35.7395 8.19746 34.4845C7.31857 33.8199 6.55041 33.0024 5.92611 32.0148C5.42397 31.2204 4.9874 30.4559 4.61059 29.7133C3.70362 27.9259 3.14196 26.2634 2.84588 24.6119C2.55277 22.9769 2.51861 21.3453 2.67274 19.6049C2.8159 17.9883 3.12132 16.2793 3.53225 14.3859C3.83303 13.0001 4.18943 11.5194 4.57903 9.90609C6.90398 11.1357 10.6064 12.32 14.5807 12.0862C18.6683 11.8457 23.037 10.1042 26.468 5.39404ZM25.3099 10.5642C25.1138 10.7242 24.9413 10.9209 24.8133 11.1036L24.8063 11.1135L24.7986 11.1228C22.7066 13.6185 19.3405 14.6265 16.0399 14.8946C12.7319 15.1634 9.43119 14.6944 7.39587 14.1777L7.3472 14.1654L7.30583 14.1369C7.07122 13.9755 6.94735 13.9928 6.88395 14.0203C6.79848 14.0575 6.69581 14.1661 6.60035 14.3889C6.41243 14.8276 6.34239 15.4971 6.34239 15.9939L6.34239 16.003L6.3418 16.0121C6.20248 18.1483 6.21665 21.5174 6.71085 24.671C6.95794 26.2477 7.32359 27.761 7.84483 29.0361C8.36748 30.3146 9.03645 31.3286 9.87491 31.9377C10.9278 32.7025 12.699 33.1079 14.8374 33.186C16.9633 33.2636 19.4044 33.0161 21.7542 32.5189C24.1047 32.0215 26.3503 31.277 28.0886 30.3685C29.8446 29.4508 31.0139 28.4016 31.3301 27.33C31.6642 26.198 31.6523 24.8067 31.4142 23.2951C31.1766 21.787 30.7174 20.1811 30.1767 18.6314C29.3862 16.3656 28.4328 14.2486 27.753 12.739C27.5004 12.1781 27.2856 11.7011 27.1309 11.3315C26.9176 10.8216 26.6912 10.5368 26.4867 10.3885C26.2911 10.2467 26.1002 10.2181 25.9124 10.2535C25.7146 10.2909 25.5078 10.4028 25.3099 10.5642ZM26.8161 9.9341C27.1343 10.1648 27.413 10.5516 27.6487 11.1148C27.7959 11.4665 28.0046 11.93 28.2522 12.4799C28.9327 13.9909 29.9071 16.1547 30.7067 18.4465C31.2534 20.0137 31.7239 21.6542 31.9686 23.2077C32.2128 24.7576 32.236 26.2431 31.8685 27.4888C31.4831 28.7948 30.1267 29.9366 28.3485 30.866C26.5527 31.8045 24.2554 32.5633 21.8703 33.068C19.4845 33.5729 16.9969 33.8265 14.8169 33.7469C12.6493 33.6678 10.7373 33.2578 9.54505 32.3918C8.58746 31.6961 7.8673 30.5743 7.3253 29.2485C6.7819 27.9192 6.40738 26.3598 6.15635 24.7579C5.655 21.5586 5.64045 18.1519 5.78113 15.9846C5.78196 15.4638 5.85277 14.7087 6.08443 14.1679C6.19945 13.8994 6.37741 13.6285 6.66027 13.5056C6.95164 13.379 7.26788 13.4434 7.58041 13.6454C9.57126 14.1452 12.7841 14.596 15.9945 14.3352C19.2331 14.0721 22.4111 13.0901 24.3609 10.7712C24.5128 10.5563 24.7165 10.324 24.9551 10.1293C25.1957 9.93301 25.487 9.76269 25.8083 9.70202C26.1397 9.63945 26.489 9.69698 26.8161 9.9341Z" fill="#1A468D"></path>
</svg>